%TF.GenerationSoftware,KiCad,Pcbnew,8.0.3*%
%TF.CreationDate,2024-06-29T17:28:32+02:00*%
%TF.ProjectId,DMH_Buffered_Mult_PANEL,444d485f-4275-4666-9665-7265645f4d75,1*%
%TF.SameCoordinates,Original*%
%TF.FileFunction,Drillmap*%
%TF.FilePolarity,Positive*%
%FSLAX45Y45*%
G04 Gerber Fmt 4.5, Leading zero omitted, Abs format (unit mm)*
G04 Created by KiCad (PCBNEW 8.0.3) date 2024-06-29 17:28:32*
%MOMM*%
%LPD*%
G01*
G04 APERTURE LIST*
%ADD10C,0.050000*%
%ADD11C,0.200000*%
G04 APERTURE END LIST*
D10*
X7500000Y-3000000D02*
X12500000Y-3000000D01*
X12500000Y-23000000D01*
X7500000Y-23000000D01*
X7500000Y-3000000D01*
X11490000Y-20600000D02*
G75*
G02*
X10510000Y-20600000I-490000J0D01*
G01*
X10510000Y-20600000D02*
G75*
G02*
X11490000Y-20600000I490000J0D01*
G01*
X9490000Y-20600000D02*
G75*
G02*
X8510000Y-20600000I-490000J0D01*
G01*
X8510000Y-20600000D02*
G75*
G02*
X9490000Y-20600000I490000J0D01*
G01*
X9490000Y-5400000D02*
G75*
G02*
X8510000Y-5400000I-490000J0D01*
G01*
X8510000Y-5400000D02*
G75*
G02*
X9490000Y-5400000I490000J0D01*
G01*
X11490000Y-5400000D02*
G75*
G02*
X10510000Y-5400000I-490000J0D01*
G01*
X10510000Y-5400000D02*
G75*
G02*
X11490000Y-5400000I490000J0D01*
G01*
X9490000Y-7050000D02*
G75*
G02*
X8510000Y-7050000I-490000J0D01*
G01*
X8510000Y-7050000D02*
G75*
G02*
X9490000Y-7050000I490000J0D01*
G01*
X11490000Y-15650000D02*
G75*
G02*
X10510000Y-15650000I-490000J0D01*
G01*
X10510000Y-15650000D02*
G75*
G02*
X11490000Y-15650000I490000J0D01*
G01*
X9490000Y-17300000D02*
G75*
G02*
X8510000Y-17300000I-490000J0D01*
G01*
X8510000Y-17300000D02*
G75*
G02*
X9490000Y-17300000I490000J0D01*
G01*
X11490000Y-18950000D02*
G75*
G02*
X10510000Y-18950000I-490000J0D01*
G01*
X10510000Y-18950000D02*
G75*
G02*
X11490000Y-18950000I490000J0D01*
G01*
X9490000Y-10350000D02*
G75*
G02*
X8510000Y-10350000I-490000J0D01*
G01*
X8510000Y-10350000D02*
G75*
G02*
X9490000Y-10350000I490000J0D01*
G01*
X9490000Y-18950000D02*
G75*
G02*
X8510000Y-18950000I-490000J0D01*
G01*
X8510000Y-18950000D02*
G75*
G02*
X9490000Y-18950000I490000J0D01*
G01*
X11490000Y-10350000D02*
G75*
G02*
X10510000Y-10350000I-490000J0D01*
G01*
X10510000Y-10350000D02*
G75*
G02*
X11490000Y-10350000I490000J0D01*
G01*
X11490000Y-17300000D02*
G75*
G02*
X10510000Y-17300000I-490000J0D01*
G01*
X10510000Y-17300000D02*
G75*
G02*
X11490000Y-17300000I490000J0D01*
G01*
X9490000Y-15650000D02*
G75*
G02*
X8510000Y-15650000I-490000J0D01*
G01*
X8510000Y-15650000D02*
G75*
G02*
X9490000Y-15650000I490000J0D01*
G01*
X9490000Y-8700000D02*
G75*
G02*
X8510000Y-8700000I-490000J0D01*
G01*
X8510000Y-8700000D02*
G75*
G02*
X9490000Y-8700000I490000J0D01*
G01*
X11490000Y-7050000D02*
G75*
G02*
X10510000Y-7050000I-490000J0D01*
G01*
X10510000Y-7050000D02*
G75*
G02*
X11490000Y-7050000I490000J0D01*
G01*
X11490000Y-8700000D02*
G75*
G02*
X10510000Y-8700000I-490000J0D01*
G01*
X10510000Y-8700000D02*
G75*
G02*
X11490000Y-8700000I490000J0D01*
G01*
D11*
X7758277Y-23313984D02*
X7758277Y-23113984D01*
X7758277Y-23113984D02*
X7805896Y-23113984D01*
X7805896Y-23113984D02*
X7834467Y-23123508D01*
X7834467Y-23123508D02*
X7853515Y-23142555D01*
X7853515Y-23142555D02*
X7863039Y-23161603D01*
X7863039Y-23161603D02*
X7872562Y-23199698D01*
X7872562Y-23199698D02*
X7872562Y-23228269D01*
X7872562Y-23228269D02*
X7863039Y-23266365D01*
X7863039Y-23266365D02*
X7853515Y-23285412D01*
X7853515Y-23285412D02*
X7834467Y-23304460D01*
X7834467Y-23304460D02*
X7805896Y-23313984D01*
X7805896Y-23313984D02*
X7758277Y-23313984D01*
X7958277Y-23313984D02*
X7958277Y-23180650D01*
X7958277Y-23218746D02*
X7967801Y-23199698D01*
X7967801Y-23199698D02*
X7977324Y-23190174D01*
X7977324Y-23190174D02*
X7996372Y-23180650D01*
X7996372Y-23180650D02*
X8015420Y-23180650D01*
X8082086Y-23313984D02*
X8082086Y-23180650D01*
X8082086Y-23113984D02*
X8072562Y-23123508D01*
X8072562Y-23123508D02*
X8082086Y-23133031D01*
X8082086Y-23133031D02*
X8091610Y-23123508D01*
X8091610Y-23123508D02*
X8082086Y-23113984D01*
X8082086Y-23113984D02*
X8082086Y-23133031D01*
X8205896Y-23313984D02*
X8186848Y-23304460D01*
X8186848Y-23304460D02*
X8177324Y-23285412D01*
X8177324Y-23285412D02*
X8177324Y-23113984D01*
X8310658Y-23313984D02*
X8291610Y-23304460D01*
X8291610Y-23304460D02*
X8282086Y-23285412D01*
X8282086Y-23285412D02*
X8282086Y-23113984D01*
X8539229Y-23313984D02*
X8539229Y-23113984D01*
X8539229Y-23113984D02*
X8605896Y-23256841D01*
X8605896Y-23256841D02*
X8672563Y-23113984D01*
X8672563Y-23113984D02*
X8672563Y-23313984D01*
X8853515Y-23313984D02*
X8853515Y-23209222D01*
X8853515Y-23209222D02*
X8843991Y-23190174D01*
X8843991Y-23190174D02*
X8824944Y-23180650D01*
X8824944Y-23180650D02*
X8786848Y-23180650D01*
X8786848Y-23180650D02*
X8767801Y-23190174D01*
X8853515Y-23304460D02*
X8834467Y-23313984D01*
X8834467Y-23313984D02*
X8786848Y-23313984D01*
X8786848Y-23313984D02*
X8767801Y-23304460D01*
X8767801Y-23304460D02*
X8758277Y-23285412D01*
X8758277Y-23285412D02*
X8758277Y-23266365D01*
X8758277Y-23266365D02*
X8767801Y-23247317D01*
X8767801Y-23247317D02*
X8786848Y-23237793D01*
X8786848Y-23237793D02*
X8834467Y-23237793D01*
X8834467Y-23237793D02*
X8853515Y-23228269D01*
X8948753Y-23180650D02*
X8948753Y-23380650D01*
X8948753Y-23190174D02*
X8967801Y-23180650D01*
X8967801Y-23180650D02*
X9005896Y-23180650D01*
X9005896Y-23180650D02*
X9024944Y-23190174D01*
X9024944Y-23190174D02*
X9034467Y-23199698D01*
X9034467Y-23199698D02*
X9043991Y-23218746D01*
X9043991Y-23218746D02*
X9043991Y-23275888D01*
X9043991Y-23275888D02*
X9034467Y-23294936D01*
X9034467Y-23294936D02*
X9024944Y-23304460D01*
X9024944Y-23304460D02*
X9005896Y-23313984D01*
X9005896Y-23313984D02*
X8967801Y-23313984D01*
X8967801Y-23313984D02*
X8948753Y-23304460D01*
X9129705Y-23294936D02*
X9139229Y-23304460D01*
X9139229Y-23304460D02*
X9129705Y-23313984D01*
X9129705Y-23313984D02*
X9120182Y-23304460D01*
X9120182Y-23304460D02*
X9129705Y-23294936D01*
X9129705Y-23294936D02*
X9129705Y-23313984D01*
X9129705Y-23190174D02*
X9139229Y-23199698D01*
X9139229Y-23199698D02*
X9129705Y-23209222D01*
X9129705Y-23209222D02*
X9120182Y-23199698D01*
X9120182Y-23199698D02*
X9129705Y-23190174D01*
X9129705Y-23190174D02*
X9129705Y-23209222D01*
M02*
