%TF.GenerationSoftware,KiCad,Pcbnew,8.0.2*%
%TF.CreationDate,2024-06-03T22:39:04+02:00*%
%TF.ProjectId,Buffered Mult,42756666-6572-4656-9420-4d756c742e6b,1*%
%TF.SameCoordinates,Original*%
%TF.FileFunction,Soldermask,Top*%
%TF.FilePolarity,Negative*%
%FSLAX46Y46*%
G04 Gerber Fmt 4.6, Leading zero omitted, Abs format (unit mm)*
G04 Created by KiCad (PCBNEW 8.0.2) date 2024-06-03 22:39:04*
%MOMM*%
%LPD*%
G01*
G04 APERTURE LIST*
%ADD10C,0.500000*%
%ADD11C,13.000000*%
%ADD12C,4.000000*%
G04 APERTURE END LIST*
D10*
%TO.C,H18*%
X104300000Y-189500000D03*
X105960000Y-185470000D03*
X105970000Y-193540000D03*
X110000000Y-183800000D03*
D11*
X110000000Y-189500000D03*
D10*
X110000000Y-195200000D03*
X114030000Y-193540000D03*
X114040000Y-185470000D03*
X115700000Y-189500000D03*
%TD*%
%TO.C,H17*%
X84300000Y-189500000D03*
X85960000Y-185470000D03*
X85970000Y-193540000D03*
X90000000Y-183800000D03*
D11*
X90000000Y-189500000D03*
D10*
X90000000Y-195200000D03*
X94030000Y-193540000D03*
X94040000Y-185470000D03*
X95700000Y-189500000D03*
%TD*%
%TO.C,H15*%
X84300000Y-173000000D03*
X85960000Y-168970000D03*
X85970000Y-177040000D03*
X90000000Y-167300000D03*
D11*
X90000000Y-173000000D03*
D10*
X90000000Y-178700000D03*
X94030000Y-177040000D03*
X94040000Y-168970000D03*
X95700000Y-173000000D03*
%TD*%
%TO.C,H16*%
X104300000Y-173000000D03*
X105960000Y-168970000D03*
X105970000Y-177040000D03*
X110000000Y-167300000D03*
D11*
X110000000Y-173000000D03*
D10*
X110000000Y-178700000D03*
X114030000Y-177040000D03*
X114040000Y-168970000D03*
X115700000Y-173000000D03*
%TD*%
%TO.C,H20*%
X104300000Y-206000000D03*
X105960000Y-201970000D03*
X105970000Y-210040000D03*
X110000000Y-200300000D03*
D11*
X110000000Y-206000000D03*
D10*
X110000000Y-211700000D03*
X114030000Y-210040000D03*
X114040000Y-201970000D03*
X115700000Y-206000000D03*
%TD*%
%TO.C,H19*%
X84300000Y-206000000D03*
X85960000Y-201970000D03*
X85970000Y-210040000D03*
X90000000Y-200300000D03*
D11*
X90000000Y-206000000D03*
D10*
X90000000Y-211700000D03*
X94030000Y-210040000D03*
X94040000Y-201970000D03*
X95700000Y-206000000D03*
%TD*%
%TO.C,H7*%
X84300000Y-70500000D03*
X85960000Y-66470000D03*
X85970000Y-74540000D03*
X90000000Y-64800000D03*
D11*
X90000000Y-70500000D03*
D10*
X90000000Y-76200000D03*
X94030000Y-74540000D03*
X94040000Y-66470000D03*
X95700000Y-70500000D03*
%TD*%
%TO.C,H11*%
X84300000Y-103500000D03*
X85960000Y-99470000D03*
X85970000Y-107540000D03*
X90000000Y-97800000D03*
D11*
X90000000Y-103500000D03*
D10*
X90000000Y-109200000D03*
X94030000Y-107540000D03*
X94040000Y-99470000D03*
X95700000Y-103500000D03*
%TD*%
%TO.C,H12*%
X104300000Y-103500000D03*
X105960000Y-99470000D03*
X105970000Y-107540000D03*
X110000000Y-97800000D03*
D11*
X110000000Y-103500000D03*
D10*
X110000000Y-109200000D03*
X114030000Y-107540000D03*
X114040000Y-99470000D03*
X115700000Y-103500000D03*
%TD*%
%TO.C,H9*%
X84300000Y-87000000D03*
X85960000Y-82970000D03*
X85970000Y-91040000D03*
X90000000Y-81300000D03*
D11*
X90000000Y-87000000D03*
D10*
X90000000Y-92700000D03*
X94030000Y-91040000D03*
X94040000Y-82970000D03*
X95700000Y-87000000D03*
%TD*%
%TO.C,H8*%
X104300000Y-70500000D03*
X105960000Y-66470000D03*
X105970000Y-74540000D03*
X110000000Y-64800000D03*
D11*
X110000000Y-70500000D03*
D10*
X110000000Y-76200000D03*
X114030000Y-74540000D03*
X114040000Y-66470000D03*
X115700000Y-70500000D03*
%TD*%
%TO.C,H10*%
X104300000Y-87000000D03*
X105960000Y-82970000D03*
X105970000Y-91040000D03*
X110000000Y-81300000D03*
D11*
X110000000Y-87000000D03*
D10*
X110000000Y-92700000D03*
X114030000Y-91040000D03*
X114040000Y-82970000D03*
X115700000Y-87000000D03*
%TD*%
D12*
%TO.C,H2*%
X121500000Y-33500000D03*
%TD*%
D10*
%TO.C,H5*%
X84300000Y-54000000D03*
X85960000Y-49970000D03*
X85970000Y-58040000D03*
X90000000Y-48300000D03*
D11*
X90000000Y-54000000D03*
D10*
X90000000Y-59700000D03*
X94030000Y-58040000D03*
X94040000Y-49970000D03*
X95700000Y-54000000D03*
%TD*%
%TO.C,H6*%
X104300000Y-54000000D03*
X105960000Y-49970000D03*
X105970000Y-58040000D03*
X110000000Y-48300000D03*
D11*
X110000000Y-54000000D03*
D10*
X110000000Y-59700000D03*
X114030000Y-58040000D03*
X114040000Y-49970000D03*
X115700000Y-54000000D03*
%TD*%
D12*
%TO.C,H3*%
X78500000Y-226500000D03*
%TD*%
D10*
%TO.C,H14*%
X104300000Y-156500000D03*
X105960000Y-152470000D03*
X105970000Y-160540000D03*
X110000000Y-150800000D03*
D11*
X110000000Y-156500000D03*
D10*
X110000000Y-162200000D03*
X114030000Y-160540000D03*
X114040000Y-152470000D03*
X115700000Y-156500000D03*
%TD*%
D12*
%TO.C,H4*%
X121500000Y-226500000D03*
%TD*%
D10*
%TO.C,H13*%
X84300000Y-156500000D03*
X85960000Y-152470000D03*
X85970000Y-160540000D03*
X90000000Y-150800000D03*
D11*
X90000000Y-156500000D03*
D10*
X90000000Y-162200000D03*
X94030000Y-160540000D03*
X94040000Y-152470000D03*
X95700000Y-156500000D03*
%TD*%
D12*
%TO.C,H1*%
X78500000Y-33500000D03*
%TD*%
M02*
