%TF.GenerationSoftware,KiCad,Pcbnew,8.0.2*%
%TF.CreationDate,2024-06-03T22:39:04+02:00*%
%TF.ProjectId,Buffered Mult,42756666-6572-4656-9420-4d756c742e6b,1*%
%TF.SameCoordinates,Original*%
%TF.FileFunction,Legend,Top*%
%TF.FilePolarity,Positive*%
%FSLAX46Y46*%
G04 Gerber Fmt 4.6, Leading zero omitted, Abs format (unit mm)*
G04 Created by KiCad (PCBNEW 8.0.2) date 2024-06-03 22:39:04*
%MOMM*%
%LPD*%
G01*
G04 APERTURE LIST*
%ADD10C,1.000000*%
%ADD11C,0.550000*%
%ADD12C,0.400000*%
%ADD13C,0.100000*%
%ADD14C,0.000000*%
%ADD15C,0.500000*%
%ADD16C,13.000000*%
%ADD17C,4.000000*%
G04 APERTURE END LIST*
D10*
X110000000Y-179500000D02*
X110000000Y-183000000D01*
X90000000Y-179500000D02*
X90000000Y-183000000D01*
X90000000Y-163000000D02*
X90000000Y-166500000D01*
X110000000Y-163000000D02*
X110000000Y-166500000D01*
X110000000Y-93500000D02*
X110000000Y-97000000D01*
X90000000Y-93500000D02*
X90000000Y-97000000D01*
D11*
X100775000Y-156500000D02*
G75*
G02*
X100225000Y-156500000I-275000J0D01*
G01*
X100225000Y-156500000D02*
G75*
G02*
X100775000Y-156500000I275000J0D01*
G01*
X97775000Y-156500000D02*
G75*
G02*
X97225000Y-156500000I-275000J0D01*
G01*
X97225000Y-156500000D02*
G75*
G02*
X97775000Y-156500000I275000J0D01*
G01*
X99275000Y-156500000D02*
G75*
G02*
X98725000Y-156500000I-275000J0D01*
G01*
X98725000Y-156500000D02*
G75*
G02*
X99275000Y-156500000I275000J0D01*
G01*
D10*
X100500000Y-158500000D02*
X102500000Y-156500000D01*
X100500000Y-154500000D02*
X102500000Y-156500000D01*
D11*
X97775000Y-54000000D02*
G75*
G02*
X97225000Y-54000000I-275000J0D01*
G01*
X97225000Y-54000000D02*
G75*
G02*
X97775000Y-54000000I275000J0D01*
G01*
X99275000Y-54000000D02*
G75*
G02*
X98725000Y-54000000I-275000J0D01*
G01*
X98725000Y-54000000D02*
G75*
G02*
X99275000Y-54000000I275000J0D01*
G01*
X100775000Y-54000000D02*
G75*
G02*
X100225000Y-54000000I-275000J0D01*
G01*
X100225000Y-54000000D02*
G75*
G02*
X100775000Y-54000000I275000J0D01*
G01*
D10*
X110000000Y-77000000D02*
X110000000Y-80500000D01*
X100500000Y-52000000D02*
X102500000Y-54000000D01*
D12*
X77000000Y-130000000D02*
X123000000Y-130000000D01*
D10*
X90000000Y-60500000D02*
X90000000Y-64000000D01*
X110000000Y-60500000D02*
X110000000Y-64000000D01*
X90000000Y-77000000D02*
X90000000Y-80500000D01*
X100500000Y-56000000D02*
X102500000Y-54000000D01*
D13*
G36*
X85061557Y-31494939D02*
G01*
X85261160Y-31529331D01*
X85470524Y-31601244D01*
X85653872Y-31706570D01*
X85810467Y-31844452D01*
X85941460Y-32016924D01*
X86027892Y-32197125D01*
X86081123Y-32403017D01*
X86096720Y-32604535D01*
X86095146Y-32666034D01*
X86065248Y-32870635D01*
X85998534Y-33055408D01*
X85879100Y-33236789D01*
X85715701Y-33380251D01*
X85836508Y-33461599D01*
X85971412Y-33614495D01*
X86066275Y-33803575D01*
X86120974Y-34018532D01*
X86135799Y-34215561D01*
X86128514Y-34341347D01*
X86080891Y-34556030D01*
X85993567Y-34751963D01*
X85872017Y-34924842D01*
X85729291Y-35062804D01*
X85555114Y-35172777D01*
X85345805Y-35250897D01*
X85135645Y-35289573D01*
X84937055Y-35300000D01*
X82176134Y-35300000D01*
X81995213Y-35247876D01*
X81924075Y-35059665D01*
X81924075Y-34295673D01*
X82937194Y-34295673D01*
X83016329Y-34381646D01*
X84695743Y-34381646D01*
X84820512Y-34368910D01*
X84992742Y-34267341D01*
X85014824Y-34236801D01*
X85070900Y-34048499D01*
X85069373Y-34018753D01*
X84986880Y-33836496D01*
X84891815Y-33763185D01*
X84695743Y-33727076D01*
X82937194Y-33727076D01*
X82937194Y-34295673D01*
X81924075Y-34295673D01*
X81924075Y-32524424D01*
X82937194Y-32524424D01*
X82937194Y-33049057D01*
X84701605Y-33049057D01*
X84817130Y-33036368D01*
X84981996Y-32929867D01*
X85049407Y-32741311D01*
X84981996Y-32552756D01*
X84897492Y-32482106D01*
X84701605Y-32438450D01*
X83016329Y-32438450D01*
X82937194Y-32524424D01*
X81924075Y-32524424D01*
X81924075Y-31721353D01*
X81987090Y-31545010D01*
X82176134Y-31485903D01*
X84881368Y-31485903D01*
X85061557Y-31494939D01*
G37*
G36*
X89527843Y-35300000D02*
G01*
X89780440Y-35290317D01*
X90003635Y-35260870D01*
X90198423Y-35211060D01*
X90415671Y-35111935D01*
X90586546Y-34974124D01*
X90713406Y-34796208D01*
X90798608Y-34576767D01*
X90836592Y-34384081D01*
X90853465Y-34166640D01*
X90854571Y-34088555D01*
X90854571Y-31485903D01*
X89835589Y-31485903D01*
X89835589Y-33975226D01*
X89791714Y-34180707D01*
X89625388Y-34310312D01*
X89460432Y-34331821D01*
X87886532Y-34331821D01*
X87690322Y-34296932D01*
X87549391Y-34147462D01*
X87522121Y-33975226D01*
X87522121Y-31485903D01*
X86503140Y-31485903D01*
X86503140Y-34088555D01*
X86513199Y-34314381D01*
X86544040Y-34515252D01*
X86619221Y-34745296D01*
X86735497Y-34933461D01*
X86895239Y-35081165D01*
X87100817Y-35189828D01*
X87354600Y-35260870D01*
X87577998Y-35290317D01*
X87830844Y-35300000D01*
X89527843Y-35300000D01*
G37*
G36*
X92068946Y-31485903D02*
G01*
X91872473Y-31502439D01*
X91680312Y-31566392D01*
X91516491Y-31702847D01*
X91417973Y-31907130D01*
X91385739Y-32137192D01*
X91385066Y-32180530D01*
X91385066Y-35300000D01*
X92399162Y-35300000D01*
X92399162Y-33990858D01*
X95350593Y-33990858D01*
X95350593Y-33049057D01*
X92399162Y-33049057D01*
X92399162Y-32652407D01*
X92518467Y-32491775D01*
X92555478Y-32489253D01*
X95367201Y-32489253D01*
X95367201Y-31485903D01*
X92068946Y-31485903D01*
G37*
G36*
X96492672Y-31485903D02*
G01*
X96296200Y-31502439D01*
X96104038Y-31566392D01*
X95940217Y-31702847D01*
X95841700Y-31907130D01*
X95809465Y-32137192D01*
X95808793Y-32180530D01*
X95808793Y-35300000D01*
X96822889Y-35300000D01*
X96822889Y-33990858D01*
X99774319Y-33990858D01*
X99774319Y-33049057D01*
X96822889Y-33049057D01*
X96822889Y-32652407D01*
X96942194Y-32491775D01*
X96979204Y-32489253D01*
X99790928Y-32489253D01*
X99790928Y-31485903D01*
X96492672Y-31485903D01*
G37*
G36*
X100770830Y-31485903D02*
G01*
X100561209Y-31510087D01*
X100384574Y-31597275D01*
X100266209Y-31771942D01*
X100232519Y-31995882D01*
X100232519Y-34774389D01*
X100258253Y-34980105D01*
X100350311Y-35152563D01*
X100532983Y-35267469D01*
X100732411Y-35299493D01*
X100764968Y-35300000D01*
X104214654Y-35300000D01*
X104214654Y-34331821D01*
X101336497Y-34331821D01*
X101246615Y-34224354D01*
X101246615Y-33736845D01*
X104198046Y-33736845D01*
X104198046Y-33009002D01*
X101246615Y-33009002D01*
X101246615Y-32583042D01*
X101336497Y-32489253D01*
X104214654Y-32489253D01*
X104214654Y-31485903D01*
X100770830Y-31485903D01*
G37*
G36*
X107835734Y-31495965D02*
G01*
X108052622Y-31533195D01*
X108268408Y-31608141D01*
X108448693Y-31713222D01*
X108598325Y-31844452D01*
X108723957Y-32003500D01*
X108819365Y-32183339D01*
X108879968Y-32379847D01*
X108901186Y-32588904D01*
X108900920Y-32617063D01*
X108877879Y-32837266D01*
X108811756Y-33043720D01*
X108694215Y-33229737D01*
X108542638Y-33370481D01*
X108609868Y-33414538D01*
X108754159Y-33551846D01*
X108849587Y-33731768D01*
X108895018Y-33937836D01*
X108907048Y-34159874D01*
X108907048Y-34933635D01*
X108909212Y-35093948D01*
X108923656Y-35300000D01*
X107898813Y-35300000D01*
X107892081Y-35244091D01*
X107882205Y-35043056D01*
X107882205Y-34269295D01*
X107837839Y-34065282D01*
X107676506Y-33948760D01*
X107466992Y-33924424D01*
X105703559Y-33924424D01*
X105703559Y-35300000D01*
X104689462Y-35300000D01*
X104689462Y-32516608D01*
X105703559Y-32516608D01*
X105703559Y-33062735D01*
X107495324Y-33062735D01*
X107610999Y-33048746D01*
X107780600Y-32939637D01*
X107784764Y-32934385D01*
X107853873Y-32745219D01*
X107852547Y-32715954D01*
X107769853Y-32533217D01*
X107692522Y-32474329D01*
X107495324Y-32432588D01*
X105787578Y-32432588D01*
X105703559Y-32516608D01*
X104689462Y-32516608D01*
X104689462Y-31721353D01*
X104752477Y-31545010D01*
X104941521Y-31485903D01*
X107630146Y-31485903D01*
X107835734Y-31495965D01*
G37*
G36*
X109934822Y-31485903D02*
G01*
X109725200Y-31510087D01*
X109548566Y-31597275D01*
X109430201Y-31771942D01*
X109396511Y-31995882D01*
X109396511Y-34774389D01*
X109422245Y-34980105D01*
X109514302Y-35152563D01*
X109696975Y-35267469D01*
X109896402Y-35299493D01*
X109928960Y-35300000D01*
X113378646Y-35300000D01*
X113378646Y-34331821D01*
X110500488Y-34331821D01*
X110410607Y-34224354D01*
X110410607Y-33736845D01*
X113362037Y-33736845D01*
X113362037Y-33009002D01*
X110410607Y-33009002D01*
X110410607Y-32583042D01*
X110500488Y-32489253D01*
X113378646Y-32489253D01*
X113378646Y-31485903D01*
X109934822Y-31485903D01*
G37*
G36*
X116366135Y-31494692D02*
G01*
X116573541Y-31520494D01*
X116767140Y-31562462D01*
X116990436Y-31636364D01*
X117193810Y-31732547D01*
X117378176Y-31849356D01*
X117544452Y-31985136D01*
X117579211Y-32018108D01*
X117740112Y-32196125D01*
X117877919Y-32394311D01*
X117990439Y-32610275D01*
X118060778Y-32794238D01*
X118112408Y-32986821D01*
X118144209Y-33186801D01*
X118155059Y-33392951D01*
X118152901Y-33487387D01*
X118129138Y-33717382D01*
X118080407Y-33937363D01*
X118008295Y-34145698D01*
X117914389Y-34340756D01*
X117800279Y-34520903D01*
X117667550Y-34684508D01*
X117565741Y-34787733D01*
X117378046Y-34941420D01*
X117211307Y-35046693D01*
X117029466Y-35135136D01*
X116832192Y-35205718D01*
X116619153Y-35257410D01*
X116390017Y-35289180D01*
X116144452Y-35300000D01*
X114099651Y-35300000D01*
X113923713Y-35247876D01*
X113853454Y-35059665D01*
X113853454Y-32568387D01*
X114867550Y-32568387D01*
X114867550Y-34224354D01*
X114939846Y-34303489D01*
X116144452Y-34303489D01*
X116363199Y-34287680D01*
X116574862Y-34233313D01*
X116749237Y-34144175D01*
X116905513Y-34007466D01*
X116932146Y-33976953D01*
X117043981Y-33806470D01*
X117115674Y-33611371D01*
X117140963Y-33398813D01*
X117133312Y-33280329D01*
X117083087Y-33077618D01*
X116990435Y-32894817D01*
X116860572Y-32739357D01*
X116728208Y-32635570D01*
X116547517Y-32548883D01*
X116350644Y-32502718D01*
X116144452Y-32489253D01*
X114939846Y-32489253D01*
X114867550Y-32568387D01*
X113853454Y-32568387D01*
X113853454Y-31721353D01*
X113908234Y-31552612D01*
X114099651Y-31485903D01*
X116144452Y-31485903D01*
X116366135Y-31494692D01*
G37*
G36*
X93550035Y-42082526D02*
G01*
X93746575Y-42062284D01*
X93946437Y-41988796D01*
X94108612Y-41857840D01*
X94187998Y-41736678D01*
X95335939Y-39361660D01*
X95409212Y-39317697D01*
X95498116Y-39418325D01*
X95498116Y-42020000D01*
X96473134Y-42020000D01*
X96473134Y-39243447D01*
X96459758Y-39020434D01*
X96420532Y-38828539D01*
X96343901Y-38639868D01*
X96218248Y-38464658D01*
X96120447Y-38373942D01*
X95946697Y-38260725D01*
X95763857Y-38186982D01*
X95557702Y-38147754D01*
X95459037Y-38143377D01*
X95247623Y-38163765D01*
X95029188Y-38238700D01*
X94844769Y-38363037D01*
X94689652Y-38530785D01*
X94579370Y-38699417D01*
X94501605Y-38850704D01*
X93644802Y-40713789D01*
X93550035Y-40786085D01*
X93454292Y-40713789D01*
X92597488Y-38850704D01*
X92498902Y-38663778D01*
X92385424Y-38500067D01*
X92225751Y-38339138D01*
X92035990Y-38222619D01*
X91811427Y-38156499D01*
X91640056Y-38143377D01*
X91424084Y-38164837D01*
X91230672Y-38224173D01*
X91044293Y-38325327D01*
X90978647Y-38373942D01*
X90829155Y-38525739D01*
X90718406Y-38716371D01*
X90655802Y-38920790D01*
X90629332Y-39127857D01*
X90625960Y-39243447D01*
X90625960Y-42020000D01*
X91600977Y-42020000D01*
X91600977Y-39423210D01*
X91689882Y-39322581D01*
X91763155Y-39366545D01*
X92911096Y-41751332D01*
X93039400Y-41913560D01*
X93216043Y-42020711D01*
X93425375Y-42074742D01*
X93550035Y-42082526D01*
G37*
G36*
X100020517Y-42020000D02*
G01*
X100273113Y-42010317D01*
X100496308Y-41980870D01*
X100691096Y-41931060D01*
X100908345Y-41831935D01*
X101079219Y-41694124D01*
X101206079Y-41516208D01*
X101291282Y-41296767D01*
X101329265Y-41104081D01*
X101346139Y-40886640D01*
X101347244Y-40808555D01*
X101347244Y-38205903D01*
X100328263Y-38205903D01*
X100328263Y-40695226D01*
X100284387Y-40900707D01*
X100118061Y-41030312D01*
X99953106Y-41051821D01*
X98379205Y-41051821D01*
X98182995Y-41016932D01*
X98042065Y-40867462D01*
X98014795Y-40695226D01*
X98014795Y-38205903D01*
X96995813Y-38205903D01*
X96995813Y-40808555D01*
X97005872Y-41034381D01*
X97036714Y-41235252D01*
X97111894Y-41465296D01*
X97228171Y-41653461D01*
X97387913Y-41801165D01*
X97593490Y-41909828D01*
X97847273Y-41980870D01*
X98070671Y-42010317D01*
X98323518Y-42020000D01*
X100020517Y-42020000D01*
G37*
G36*
X105843266Y-42020000D02*
G01*
X105843266Y-41051821D01*
X103216190Y-41051821D01*
X103021789Y-41023640D01*
X102895667Y-40863052D01*
X102880112Y-40689364D01*
X102880112Y-38205903D01*
X101861131Y-38205903D01*
X101861131Y-40786085D01*
X101869383Y-41007276D01*
X101895205Y-41206511D01*
X101959728Y-41438081D01*
X102062119Y-41630798D01*
X102206167Y-41784767D01*
X102395660Y-41900090D01*
X102634390Y-41976871D01*
X102848028Y-42009225D01*
X103093092Y-42020000D01*
X105843266Y-42020000D01*
G37*
G36*
X105174041Y-38205903D02*
G01*
X105174041Y-39209253D01*
X106837823Y-39209253D01*
X106837823Y-42020000D01*
X107856804Y-42020000D01*
X107856804Y-39209253D01*
X109514725Y-39209253D01*
X109514725Y-38205903D01*
X105174041Y-38205903D01*
G37*
D10*
X110000000Y-196000000D02*
X110000000Y-199500000D01*
X90000000Y-196000000D02*
X90000000Y-199500000D01*
D14*
%TO.C,H18*%
G36*
X110000000Y-183000000D02*
G01*
X110000000Y-183000000D01*
G75*
G03*
X103500000Y-189500000I0J-6500000D01*
G01*
X103500000Y-183000000D01*
X110000000Y-183000000D01*
G37*
G36*
X116500000Y-189500000D02*
G01*
X116500000Y-189500000D01*
G75*
G03*
X110000000Y-183000000I-6500000J0D01*
G01*
X116500000Y-183000000D01*
X116500000Y-189500000D01*
G37*
G36*
X103500000Y-189500000D02*
G01*
X103500000Y-189500000D01*
G75*
G03*
X110000000Y-196000000I6500000J0D01*
G01*
X103500000Y-196000000D01*
X103500000Y-189500000D01*
G37*
G36*
X116500000Y-196000000D02*
G01*
X110000000Y-196000000D01*
G75*
G03*
X116500000Y-189500000I0J6500000D01*
G01*
X116500000Y-196000000D01*
G37*
%TO.C,H17*%
G36*
X90000000Y-183000000D02*
G01*
X90000000Y-183000000D01*
G75*
G03*
X83500000Y-189500000I0J-6500000D01*
G01*
X83500000Y-183000000D01*
X90000000Y-183000000D01*
G37*
G36*
X96500000Y-189500000D02*
G01*
X96500000Y-189500000D01*
G75*
G03*
X90000000Y-183000000I-6500000J0D01*
G01*
X96500000Y-183000000D01*
X96500000Y-189500000D01*
G37*
G36*
X83500000Y-189500000D02*
G01*
X83500000Y-189500000D01*
G75*
G03*
X90000000Y-196000000I6500000J0D01*
G01*
X83500000Y-196000000D01*
X83500000Y-189500000D01*
G37*
G36*
X96500000Y-196000000D02*
G01*
X90000000Y-196000000D01*
G75*
G03*
X96500000Y-189500000I0J6500000D01*
G01*
X96500000Y-196000000D01*
G37*
%TO.C,H15*%
G36*
X90000000Y-166500000D02*
G01*
X90000000Y-166500000D01*
G75*
G03*
X83500000Y-173000000I0J-6500000D01*
G01*
X83500000Y-166500000D01*
X90000000Y-166500000D01*
G37*
G36*
X96500000Y-173000000D02*
G01*
X96500000Y-173000000D01*
G75*
G03*
X90000000Y-166500000I-6500000J0D01*
G01*
X96500000Y-166500000D01*
X96500000Y-173000000D01*
G37*
G36*
X83500000Y-173000000D02*
G01*
X83500000Y-173000000D01*
G75*
G03*
X90000000Y-179500000I6500000J0D01*
G01*
X83500000Y-179500000D01*
X83500000Y-173000000D01*
G37*
G36*
X96500000Y-179500000D02*
G01*
X90000000Y-179500000D01*
G75*
G03*
X96500000Y-173000000I0J6500000D01*
G01*
X96500000Y-179500000D01*
G37*
%TO.C,H16*%
G36*
X110000000Y-166500000D02*
G01*
X110000000Y-166500000D01*
G75*
G03*
X103500000Y-173000000I0J-6500000D01*
G01*
X103500000Y-166500000D01*
X110000000Y-166500000D01*
G37*
G36*
X116500000Y-173000000D02*
G01*
X116500000Y-173000000D01*
G75*
G03*
X110000000Y-166500000I-6500000J0D01*
G01*
X116500000Y-166500000D01*
X116500000Y-173000000D01*
G37*
G36*
X103500000Y-173000000D02*
G01*
X103500000Y-173000000D01*
G75*
G03*
X110000000Y-179500000I6500000J0D01*
G01*
X103500000Y-179500000D01*
X103500000Y-173000000D01*
G37*
G36*
X116500000Y-179500000D02*
G01*
X110000000Y-179500000D01*
G75*
G03*
X116500000Y-173000000I0J6500000D01*
G01*
X116500000Y-179500000D01*
G37*
%TO.C,H20*%
G36*
X110000000Y-199500000D02*
G01*
X110000000Y-199500000D01*
G75*
G03*
X103500000Y-206000000I0J-6500000D01*
G01*
X103500000Y-199500000D01*
X110000000Y-199500000D01*
G37*
G36*
X116500000Y-206000000D02*
G01*
X116500000Y-206000000D01*
G75*
G03*
X110000000Y-199500000I-6500000J0D01*
G01*
X116500000Y-199500000D01*
X116500000Y-206000000D01*
G37*
G36*
X103500000Y-206000000D02*
G01*
X103500000Y-206000000D01*
G75*
G03*
X110000000Y-212500000I6500000J0D01*
G01*
X103500000Y-212500000D01*
X103500000Y-206000000D01*
G37*
G36*
X116500000Y-212500000D02*
G01*
X110000000Y-212500000D01*
G75*
G03*
X116500000Y-206000000I0J6500000D01*
G01*
X116500000Y-212500000D01*
G37*
%TO.C,H19*%
G36*
X90000000Y-199500000D02*
G01*
X90000000Y-199500000D01*
G75*
G03*
X83500000Y-206000000I0J-6500000D01*
G01*
X83500000Y-199500000D01*
X90000000Y-199500000D01*
G37*
G36*
X96500000Y-206000000D02*
G01*
X96500000Y-206000000D01*
G75*
G03*
X90000000Y-199500000I-6500000J0D01*
G01*
X96500000Y-199500000D01*
X96500000Y-206000000D01*
G37*
G36*
X83500000Y-206000000D02*
G01*
X83500000Y-206000000D01*
G75*
G03*
X90000000Y-212500000I6500000J0D01*
G01*
X83500000Y-212500000D01*
X83500000Y-206000000D01*
G37*
G36*
X96500000Y-212500000D02*
G01*
X90000000Y-212500000D01*
G75*
G03*
X96500000Y-206000000I0J6500000D01*
G01*
X96500000Y-212500000D01*
G37*
%TO.C,H7*%
G36*
X90000000Y-64000000D02*
G01*
X90000000Y-64000000D01*
G75*
G03*
X83500000Y-70500000I0J-6500000D01*
G01*
X83500000Y-64000000D01*
X90000000Y-64000000D01*
G37*
G36*
X96500000Y-70500000D02*
G01*
X96500000Y-70500000D01*
G75*
G03*
X90000000Y-64000000I-6500000J0D01*
G01*
X96500000Y-64000000D01*
X96500000Y-70500000D01*
G37*
G36*
X83500000Y-70500000D02*
G01*
X83500000Y-70500000D01*
G75*
G03*
X90000000Y-77000000I6500000J0D01*
G01*
X83500000Y-77000000D01*
X83500000Y-70500000D01*
G37*
G36*
X96500000Y-77000000D02*
G01*
X90000000Y-77000000D01*
G75*
G03*
X96500000Y-70500000I0J6500000D01*
G01*
X96500000Y-77000000D01*
G37*
%TO.C,H11*%
G36*
X90000000Y-97000000D02*
G01*
X90000000Y-97000000D01*
G75*
G03*
X83500000Y-103500000I0J-6500000D01*
G01*
X83500000Y-97000000D01*
X90000000Y-97000000D01*
G37*
G36*
X96500000Y-103500000D02*
G01*
X96500000Y-103500000D01*
G75*
G03*
X90000000Y-97000000I-6500000J0D01*
G01*
X96500000Y-97000000D01*
X96500000Y-103500000D01*
G37*
G36*
X83500000Y-103500000D02*
G01*
X83500000Y-103500000D01*
G75*
G03*
X90000000Y-110000000I6500000J0D01*
G01*
X83500000Y-110000000D01*
X83500000Y-103500000D01*
G37*
G36*
X96500000Y-110000000D02*
G01*
X90000000Y-110000000D01*
G75*
G03*
X96500000Y-103500000I0J6500000D01*
G01*
X96500000Y-110000000D01*
G37*
%TO.C,H12*%
G36*
X110000000Y-97000000D02*
G01*
X110000000Y-97000000D01*
G75*
G03*
X103500000Y-103500000I0J-6500000D01*
G01*
X103500000Y-97000000D01*
X110000000Y-97000000D01*
G37*
G36*
X116500000Y-103500000D02*
G01*
X116500000Y-103500000D01*
G75*
G03*
X110000000Y-97000000I-6500000J0D01*
G01*
X116500000Y-97000000D01*
X116500000Y-103500000D01*
G37*
G36*
X103500000Y-103500000D02*
G01*
X103500000Y-103500000D01*
G75*
G03*
X110000000Y-110000000I6500000J0D01*
G01*
X103500000Y-110000000D01*
X103500000Y-103500000D01*
G37*
G36*
X116500000Y-110000000D02*
G01*
X110000000Y-110000000D01*
G75*
G03*
X116500000Y-103500000I0J6500000D01*
G01*
X116500000Y-110000000D01*
G37*
%TO.C,H9*%
G36*
X90000000Y-80500000D02*
G01*
X90000000Y-80500000D01*
G75*
G03*
X83500000Y-87000000I0J-6500000D01*
G01*
X83500000Y-80500000D01*
X90000000Y-80500000D01*
G37*
G36*
X96500000Y-87000000D02*
G01*
X96500000Y-87000000D01*
G75*
G03*
X90000000Y-80500000I-6500000J0D01*
G01*
X96500000Y-80500000D01*
X96500000Y-87000000D01*
G37*
G36*
X83500000Y-87000000D02*
G01*
X83500000Y-87000000D01*
G75*
G03*
X90000000Y-93500000I6500000J0D01*
G01*
X83500000Y-93500000D01*
X83500000Y-87000000D01*
G37*
G36*
X96500000Y-93500000D02*
G01*
X90000000Y-93500000D01*
G75*
G03*
X96500000Y-87000000I0J6500000D01*
G01*
X96500000Y-93500000D01*
G37*
%TO.C,H8*%
G36*
X110000000Y-64000000D02*
G01*
X110000000Y-64000000D01*
G75*
G03*
X103500000Y-70500000I0J-6500000D01*
G01*
X103500000Y-64000000D01*
X110000000Y-64000000D01*
G37*
G36*
X116500000Y-70500000D02*
G01*
X116500000Y-70500000D01*
G75*
G03*
X110000000Y-64000000I-6500000J0D01*
G01*
X116500000Y-64000000D01*
X116500000Y-70500000D01*
G37*
G36*
X103500000Y-70500000D02*
G01*
X103500000Y-70500000D01*
G75*
G03*
X110000000Y-77000000I6500000J0D01*
G01*
X103500000Y-77000000D01*
X103500000Y-70500000D01*
G37*
G36*
X116500000Y-77000000D02*
G01*
X110000000Y-77000000D01*
G75*
G03*
X116500000Y-70500000I0J6500000D01*
G01*
X116500000Y-77000000D01*
G37*
%TO.C,H10*%
G36*
X110000000Y-80500000D02*
G01*
X110000000Y-80500000D01*
G75*
G03*
X103500000Y-87000000I0J-6500000D01*
G01*
X103500000Y-80500000D01*
X110000000Y-80500000D01*
G37*
G36*
X116500000Y-87000000D02*
G01*
X116500000Y-87000000D01*
G75*
G03*
X110000000Y-80500000I-6500000J0D01*
G01*
X116500000Y-80500000D01*
X116500000Y-87000000D01*
G37*
G36*
X103500000Y-87000000D02*
G01*
X103500000Y-87000000D01*
G75*
G03*
X110000000Y-93500000I6500000J0D01*
G01*
X103500000Y-93500000D01*
X103500000Y-87000000D01*
G37*
G36*
X116500000Y-93500000D02*
G01*
X110000000Y-93500000D01*
G75*
G03*
X116500000Y-87000000I0J6500000D01*
G01*
X116500000Y-93500000D01*
G37*
%TD*%
%LPC*%
D15*
%TO.C,H18*%
X104300000Y-189500000D03*
X105960000Y-185470000D03*
X105970000Y-193540000D03*
X110000000Y-183800000D03*
D16*
X110000000Y-189500000D03*
D15*
X110000000Y-195200000D03*
X114030000Y-193540000D03*
X114040000Y-185470000D03*
X115700000Y-189500000D03*
%TD*%
%TO.C,H17*%
X84300000Y-189500000D03*
X85960000Y-185470000D03*
X85970000Y-193540000D03*
X90000000Y-183800000D03*
D16*
X90000000Y-189500000D03*
D15*
X90000000Y-195200000D03*
X94030000Y-193540000D03*
X94040000Y-185470000D03*
X95700000Y-189500000D03*
%TD*%
%TO.C,H15*%
X84300000Y-173000000D03*
X85960000Y-168970000D03*
X85970000Y-177040000D03*
X90000000Y-167300000D03*
D16*
X90000000Y-173000000D03*
D15*
X90000000Y-178700000D03*
X94030000Y-177040000D03*
X94040000Y-168970000D03*
X95700000Y-173000000D03*
%TD*%
%TO.C,H16*%
X104300000Y-173000000D03*
X105960000Y-168970000D03*
X105970000Y-177040000D03*
X110000000Y-167300000D03*
D16*
X110000000Y-173000000D03*
D15*
X110000000Y-178700000D03*
X114030000Y-177040000D03*
X114040000Y-168970000D03*
X115700000Y-173000000D03*
%TD*%
%TO.C,H20*%
X104300000Y-206000000D03*
X105960000Y-201970000D03*
X105970000Y-210040000D03*
X110000000Y-200300000D03*
D16*
X110000000Y-206000000D03*
D15*
X110000000Y-211700000D03*
X114030000Y-210040000D03*
X114040000Y-201970000D03*
X115700000Y-206000000D03*
%TD*%
%TO.C,H19*%
X84300000Y-206000000D03*
X85960000Y-201970000D03*
X85970000Y-210040000D03*
X90000000Y-200300000D03*
D16*
X90000000Y-206000000D03*
D15*
X90000000Y-211700000D03*
X94030000Y-210040000D03*
X94040000Y-201970000D03*
X95700000Y-206000000D03*
%TD*%
%TO.C,H7*%
X84300000Y-70500000D03*
X85960000Y-66470000D03*
X85970000Y-74540000D03*
X90000000Y-64800000D03*
D16*
X90000000Y-70500000D03*
D15*
X90000000Y-76200000D03*
X94030000Y-74540000D03*
X94040000Y-66470000D03*
X95700000Y-70500000D03*
%TD*%
%TO.C,H11*%
X84300000Y-103500000D03*
X85960000Y-99470000D03*
X85970000Y-107540000D03*
X90000000Y-97800000D03*
D16*
X90000000Y-103500000D03*
D15*
X90000000Y-109200000D03*
X94030000Y-107540000D03*
X94040000Y-99470000D03*
X95700000Y-103500000D03*
%TD*%
%TO.C,H12*%
X104300000Y-103500000D03*
X105960000Y-99470000D03*
X105970000Y-107540000D03*
X110000000Y-97800000D03*
D16*
X110000000Y-103500000D03*
D15*
X110000000Y-109200000D03*
X114030000Y-107540000D03*
X114040000Y-99470000D03*
X115700000Y-103500000D03*
%TD*%
%TO.C,H9*%
X84300000Y-87000000D03*
X85960000Y-82970000D03*
X85970000Y-91040000D03*
X90000000Y-81300000D03*
D16*
X90000000Y-87000000D03*
D15*
X90000000Y-92700000D03*
X94030000Y-91040000D03*
X94040000Y-82970000D03*
X95700000Y-87000000D03*
%TD*%
%TO.C,H8*%
X104300000Y-70500000D03*
X105960000Y-66470000D03*
X105970000Y-74540000D03*
X110000000Y-64800000D03*
D16*
X110000000Y-70500000D03*
D15*
X110000000Y-76200000D03*
X114030000Y-74540000D03*
X114040000Y-66470000D03*
X115700000Y-70500000D03*
%TD*%
%TO.C,H10*%
X104300000Y-87000000D03*
X105960000Y-82970000D03*
X105970000Y-91040000D03*
X110000000Y-81300000D03*
D16*
X110000000Y-87000000D03*
D15*
X110000000Y-92700000D03*
X114030000Y-91040000D03*
X114040000Y-82970000D03*
X115700000Y-87000000D03*
%TD*%
D17*
%TO.C,H2*%
X121500000Y-33500000D03*
%TD*%
D15*
%TO.C,H5*%
X84300000Y-54000000D03*
X85960000Y-49970000D03*
X85970000Y-58040000D03*
X90000000Y-48300000D03*
D16*
X90000000Y-54000000D03*
D15*
X90000000Y-59700000D03*
X94030000Y-58040000D03*
X94040000Y-49970000D03*
X95700000Y-54000000D03*
%TD*%
%TO.C,H6*%
X104300000Y-54000000D03*
X105960000Y-49970000D03*
X105970000Y-58040000D03*
X110000000Y-48300000D03*
D16*
X110000000Y-54000000D03*
D15*
X110000000Y-59700000D03*
X114030000Y-58040000D03*
X114040000Y-49970000D03*
X115700000Y-54000000D03*
%TD*%
D17*
%TO.C,H3*%
X78500000Y-226500000D03*
%TD*%
D15*
%TO.C,H14*%
X104300000Y-156500000D03*
X105960000Y-152470000D03*
X105970000Y-160540000D03*
X110000000Y-150800000D03*
D16*
X110000000Y-156500000D03*
D15*
X110000000Y-162200000D03*
X114030000Y-160540000D03*
X114040000Y-152470000D03*
X115700000Y-156500000D03*
%TD*%
D17*
%TO.C,H4*%
X121500000Y-226500000D03*
%TD*%
D15*
%TO.C,H13*%
X84300000Y-156500000D03*
X85960000Y-152470000D03*
X85970000Y-160540000D03*
X90000000Y-150800000D03*
D16*
X90000000Y-156500000D03*
D15*
X90000000Y-162200000D03*
X94030000Y-160540000D03*
X94040000Y-152470000D03*
X95700000Y-156500000D03*
%TD*%
D17*
%TO.C,H1*%
X78500000Y-33500000D03*
%TD*%
%LPD*%
M02*
