%TF.GenerationSoftware,KiCad,Pcbnew,8.0.2*%
%TF.CreationDate,2024-06-03T22:39:04+02:00*%
%TF.ProjectId,Buffered Mult,42756666-6572-4656-9420-4d756c742e6b,1*%
%TF.SameCoordinates,Original*%
%TF.FileFunction,Copper,L1,Top*%
%TF.FilePolarity,Positive*%
%FSLAX46Y46*%
G04 Gerber Fmt 4.6, Leading zero omitted, Abs format (unit mm)*
G04 Created by KiCad (PCBNEW 8.0.2) date 2024-06-03 22:39:04*
%MOMM*%
%LPD*%
G01*
G04 APERTURE LIST*
%TA.AperFunction,ComponentPad*%
%ADD10C,0.500000*%
%TD*%
%TA.AperFunction,ConnectorPad*%
%ADD11C,13.000000*%
%TD*%
%TA.AperFunction,ComponentPad*%
%ADD12C,4.000000*%
%TD*%
G04 APERTURE END LIST*
D10*
%TO.P,H18,1,1*%
%TO.N,GND*%
X104300000Y-189500000D03*
X105960000Y-185470000D03*
X105970000Y-193540000D03*
X110000000Y-183800000D03*
D11*
X110000000Y-189500000D03*
D10*
X110000000Y-195200000D03*
X114030000Y-193540000D03*
X114040000Y-185470000D03*
X115700000Y-189500000D03*
%TD*%
%TO.P,H17,1,1*%
%TO.N,GND*%
X84300000Y-189500000D03*
X85960000Y-185470000D03*
X85970000Y-193540000D03*
X90000000Y-183800000D03*
D11*
X90000000Y-189500000D03*
D10*
X90000000Y-195200000D03*
X94030000Y-193540000D03*
X94040000Y-185470000D03*
X95700000Y-189500000D03*
%TD*%
%TO.P,H15,1,1*%
%TO.N,GND*%
X84300000Y-173000000D03*
X85960000Y-168970000D03*
X85970000Y-177040000D03*
X90000000Y-167300000D03*
D11*
X90000000Y-173000000D03*
D10*
X90000000Y-178700000D03*
X94030000Y-177040000D03*
X94040000Y-168970000D03*
X95700000Y-173000000D03*
%TD*%
%TO.P,H16,1,1*%
%TO.N,GND*%
X104300000Y-173000000D03*
X105960000Y-168970000D03*
X105970000Y-177040000D03*
X110000000Y-167300000D03*
D11*
X110000000Y-173000000D03*
D10*
X110000000Y-178700000D03*
X114030000Y-177040000D03*
X114040000Y-168970000D03*
X115700000Y-173000000D03*
%TD*%
%TO.P,H20,1,1*%
%TO.N,GND*%
X104300000Y-206000000D03*
X105960000Y-201970000D03*
X105970000Y-210040000D03*
X110000000Y-200300000D03*
D11*
X110000000Y-206000000D03*
D10*
X110000000Y-211700000D03*
X114030000Y-210040000D03*
X114040000Y-201970000D03*
X115700000Y-206000000D03*
%TD*%
%TO.P,H19,1,1*%
%TO.N,GND*%
X84300000Y-206000000D03*
X85960000Y-201970000D03*
X85970000Y-210040000D03*
X90000000Y-200300000D03*
D11*
X90000000Y-206000000D03*
D10*
X90000000Y-211700000D03*
X94030000Y-210040000D03*
X94040000Y-201970000D03*
X95700000Y-206000000D03*
%TD*%
%TO.P,H7,1,1*%
%TO.N,GND*%
X84300000Y-70500000D03*
X85960000Y-66470000D03*
X85970000Y-74540000D03*
X90000000Y-64800000D03*
D11*
X90000000Y-70500000D03*
D10*
X90000000Y-76200000D03*
X94030000Y-74540000D03*
X94040000Y-66470000D03*
X95700000Y-70500000D03*
%TD*%
%TO.P,H11,1,1*%
%TO.N,GND*%
X84300000Y-103500000D03*
X85960000Y-99470000D03*
X85970000Y-107540000D03*
X90000000Y-97800000D03*
D11*
X90000000Y-103500000D03*
D10*
X90000000Y-109200000D03*
X94030000Y-107540000D03*
X94040000Y-99470000D03*
X95700000Y-103500000D03*
%TD*%
%TO.P,H12,1,1*%
%TO.N,GND*%
X104300000Y-103500000D03*
X105960000Y-99470000D03*
X105970000Y-107540000D03*
X110000000Y-97800000D03*
D11*
X110000000Y-103500000D03*
D10*
X110000000Y-109200000D03*
X114030000Y-107540000D03*
X114040000Y-99470000D03*
X115700000Y-103500000D03*
%TD*%
%TO.P,H9,1,1*%
%TO.N,GND*%
X84300000Y-87000000D03*
X85960000Y-82970000D03*
X85970000Y-91040000D03*
X90000000Y-81300000D03*
D11*
X90000000Y-87000000D03*
D10*
X90000000Y-92700000D03*
X94030000Y-91040000D03*
X94040000Y-82970000D03*
X95700000Y-87000000D03*
%TD*%
%TO.P,H8,1,1*%
%TO.N,GND*%
X104300000Y-70500000D03*
X105960000Y-66470000D03*
X105970000Y-74540000D03*
X110000000Y-64800000D03*
D11*
X110000000Y-70500000D03*
D10*
X110000000Y-76200000D03*
X114030000Y-74540000D03*
X114040000Y-66470000D03*
X115700000Y-70500000D03*
%TD*%
%TO.P,H10,1,1*%
%TO.N,GND*%
X104300000Y-87000000D03*
X105960000Y-82970000D03*
X105970000Y-91040000D03*
X110000000Y-81300000D03*
D11*
X110000000Y-87000000D03*
D10*
X110000000Y-92700000D03*
X114030000Y-91040000D03*
X114040000Y-82970000D03*
X115700000Y-87000000D03*
%TD*%
D12*
%TO.P,H2,1,1*%
%TO.N,GND*%
X121500000Y-33500000D03*
%TD*%
D10*
%TO.P,H5,1,1*%
%TO.N,GND*%
X84300000Y-54000000D03*
X85960000Y-49970000D03*
X85970000Y-58040000D03*
X90000000Y-48300000D03*
D11*
X90000000Y-54000000D03*
D10*
X90000000Y-59700000D03*
X94030000Y-58040000D03*
X94040000Y-49970000D03*
X95700000Y-54000000D03*
%TD*%
%TO.P,H6,1,1*%
%TO.N,GND*%
X104300000Y-54000000D03*
X105960000Y-49970000D03*
X105970000Y-58040000D03*
X110000000Y-48300000D03*
D11*
X110000000Y-54000000D03*
D10*
X110000000Y-59700000D03*
X114030000Y-58040000D03*
X114040000Y-49970000D03*
X115700000Y-54000000D03*
%TD*%
D12*
%TO.P,H3,1,1*%
%TO.N,GND*%
X78500000Y-226500000D03*
%TD*%
D10*
%TO.P,H14,1,1*%
%TO.N,GND*%
X104300000Y-156500000D03*
X105960000Y-152470000D03*
X105970000Y-160540000D03*
X110000000Y-150800000D03*
D11*
X110000000Y-156500000D03*
D10*
X110000000Y-162200000D03*
X114030000Y-160540000D03*
X114040000Y-152470000D03*
X115700000Y-156500000D03*
%TD*%
D12*
%TO.P,H4,1,1*%
%TO.N,GND*%
X121500000Y-226500000D03*
%TD*%
D10*
%TO.P,H13,1,1*%
%TO.N,GND*%
X84300000Y-156500000D03*
X85960000Y-152470000D03*
X85970000Y-160540000D03*
X90000000Y-150800000D03*
D11*
X90000000Y-156500000D03*
D10*
X90000000Y-162200000D03*
X94030000Y-160540000D03*
X94040000Y-152470000D03*
X95700000Y-156500000D03*
%TD*%
D12*
%TO.P,H1,1,1*%
%TO.N,GND*%
X78500000Y-33500000D03*
%TD*%
%TA.AperFunction,Conductor*%
%TO.N,GND*%
G36*
X124442539Y-30520185D02*
G01*
X124488294Y-30572989D01*
X124499500Y-30624500D01*
X124499500Y-229375500D01*
X124479815Y-229442539D01*
X124427011Y-229488294D01*
X124375500Y-229499500D01*
X75624500Y-229499500D01*
X75557461Y-229479815D01*
X75511706Y-229427011D01*
X75500500Y-229375500D01*
X75500500Y-205999993D01*
X84594630Y-205999993D01*
X84594630Y-206000006D01*
X84614101Y-206458394D01*
X84672381Y-206913513D01*
X84769043Y-207362028D01*
X84903399Y-207800746D01*
X84903401Y-207800751D01*
X85074468Y-208226468D01*
X85074472Y-208226479D01*
X85281026Y-208636154D01*
X85281037Y-208636174D01*
X85401317Y-208831521D01*
X85521599Y-209026871D01*
X85794429Y-209395762D01*
X86097560Y-209740186D01*
X86428809Y-210057662D01*
X86785788Y-210345902D01*
X87165925Y-210602830D01*
X87566482Y-210826595D01*
X87566485Y-210826596D01*
X87566494Y-210826601D01*
X87984566Y-211015581D01*
X87984573Y-211015584D01*
X88417185Y-211168435D01*
X88861201Y-211284048D01*
X89313422Y-211361589D01*
X89454946Y-211373634D01*
X89770571Y-211400499D01*
X89770588Y-211400499D01*
X89770590Y-211400500D01*
X89770591Y-211400500D01*
X90229409Y-211400500D01*
X90229410Y-211400500D01*
X90229411Y-211400499D01*
X90229428Y-211400499D01*
X90501523Y-211377339D01*
X90686578Y-211361589D01*
X91138799Y-211284048D01*
X91582815Y-211168435D01*
X92015427Y-211015584D01*
X92433518Y-210826595D01*
X92834075Y-210602830D01*
X93214212Y-210345902D01*
X93571191Y-210057662D01*
X93902440Y-209740186D01*
X94205571Y-209395762D01*
X94478401Y-209026871D01*
X94718964Y-208636172D01*
X94925527Y-208226479D01*
X95096601Y-207800744D01*
X95230955Y-207362035D01*
X95327619Y-206913512D01*
X95385897Y-206458407D01*
X95405370Y-206000000D01*
X95405370Y-205999993D01*
X104594630Y-205999993D01*
X104594630Y-206000006D01*
X104614101Y-206458394D01*
X104672381Y-206913513D01*
X104769043Y-207362028D01*
X104903399Y-207800746D01*
X104903401Y-207800751D01*
X105074468Y-208226468D01*
X105074472Y-208226479D01*
X105281026Y-208636154D01*
X105281037Y-208636174D01*
X105401317Y-208831521D01*
X105521599Y-209026871D01*
X105794429Y-209395762D01*
X106097560Y-209740186D01*
X106428809Y-210057662D01*
X106785788Y-210345902D01*
X107165925Y-210602830D01*
X107566482Y-210826595D01*
X107566485Y-210826596D01*
X107566494Y-210826601D01*
X107984566Y-211015581D01*
X107984573Y-211015584D01*
X108417185Y-211168435D01*
X108861201Y-211284048D01*
X109313422Y-211361589D01*
X109454946Y-211373634D01*
X109770571Y-211400499D01*
X109770588Y-211400499D01*
X109770590Y-211400500D01*
X109770591Y-211400500D01*
X110229409Y-211400500D01*
X110229410Y-211400500D01*
X110229411Y-211400499D01*
X110229428Y-211400499D01*
X110501523Y-211377339D01*
X110686578Y-211361589D01*
X111138799Y-211284048D01*
X111582815Y-211168435D01*
X112015427Y-211015584D01*
X112433518Y-210826595D01*
X112834075Y-210602830D01*
X113214212Y-210345902D01*
X113571191Y-210057662D01*
X113902440Y-209740186D01*
X114205571Y-209395762D01*
X114478401Y-209026871D01*
X114718964Y-208636172D01*
X114925527Y-208226479D01*
X115096601Y-207800744D01*
X115230955Y-207362035D01*
X115327619Y-206913512D01*
X115385897Y-206458407D01*
X115405370Y-206000000D01*
X115385897Y-205541593D01*
X115327619Y-205086488D01*
X115230955Y-204637965D01*
X115096601Y-204199256D01*
X114925527Y-203773521D01*
X114925527Y-203773520D01*
X114718973Y-203363845D01*
X114718962Y-203363825D01*
X114667601Y-203280410D01*
X114478401Y-202973129D01*
X114205571Y-202604238D01*
X113902440Y-202259814D01*
X113571191Y-201942338D01*
X113214212Y-201654098D01*
X112834075Y-201397170D01*
X112811723Y-201384683D01*
X112433526Y-201173409D01*
X112433505Y-201173398D01*
X112015433Y-200984418D01*
X111582810Y-200831563D01*
X111138797Y-200715951D01*
X110686588Y-200638412D01*
X110686562Y-200638409D01*
X110229428Y-200599500D01*
X110229410Y-200599500D01*
X109770590Y-200599500D01*
X109770571Y-200599500D01*
X109313437Y-200638409D01*
X109313411Y-200638412D01*
X108861202Y-200715951D01*
X108417189Y-200831563D01*
X107984566Y-200984418D01*
X107566494Y-201173398D01*
X107566473Y-201173409D01*
X107165933Y-201397165D01*
X107165914Y-201397177D01*
X106785793Y-201654094D01*
X106428806Y-201942340D01*
X106097559Y-202259814D01*
X105794435Y-202604230D01*
X105521598Y-202973130D01*
X105281037Y-203363825D01*
X105281026Y-203363845D01*
X105074472Y-203773520D01*
X105074468Y-203773531D01*
X104903401Y-204199248D01*
X104903399Y-204199253D01*
X104769043Y-204637971D01*
X104672381Y-205086486D01*
X104614101Y-205541605D01*
X104594630Y-205999993D01*
X95405370Y-205999993D01*
X95385897Y-205541593D01*
X95327619Y-205086488D01*
X95230955Y-204637965D01*
X95096601Y-204199256D01*
X94925527Y-203773521D01*
X94925527Y-203773520D01*
X94718973Y-203363845D01*
X94718962Y-203363825D01*
X94667601Y-203280410D01*
X94478401Y-202973129D01*
X94205571Y-202604238D01*
X93902440Y-202259814D01*
X93571191Y-201942338D01*
X93214212Y-201654098D01*
X92834075Y-201397170D01*
X92811723Y-201384683D01*
X92433526Y-201173409D01*
X92433505Y-201173398D01*
X92015433Y-200984418D01*
X91582810Y-200831563D01*
X91138797Y-200715951D01*
X90686588Y-200638412D01*
X90686562Y-200638409D01*
X90229428Y-200599500D01*
X90229410Y-200599500D01*
X89770590Y-200599500D01*
X89770571Y-200599500D01*
X89313437Y-200638409D01*
X89313411Y-200638412D01*
X88861202Y-200715951D01*
X88417189Y-200831563D01*
X87984566Y-200984418D01*
X87566494Y-201173398D01*
X87566473Y-201173409D01*
X87165933Y-201397165D01*
X87165914Y-201397177D01*
X86785793Y-201654094D01*
X86428806Y-201942340D01*
X86097559Y-202259814D01*
X85794435Y-202604230D01*
X85521598Y-202973130D01*
X85281037Y-203363825D01*
X85281026Y-203363845D01*
X85074472Y-203773520D01*
X85074468Y-203773531D01*
X84903401Y-204199248D01*
X84903399Y-204199253D01*
X84769043Y-204637971D01*
X84672381Y-205086486D01*
X84614101Y-205541605D01*
X84594630Y-205999993D01*
X75500500Y-205999993D01*
X75500500Y-189499993D01*
X84594630Y-189499993D01*
X84594630Y-189500006D01*
X84614101Y-189958394D01*
X84672381Y-190413513D01*
X84769043Y-190862028D01*
X84903399Y-191300746D01*
X84903401Y-191300751D01*
X85074468Y-191726468D01*
X85074472Y-191726479D01*
X85281026Y-192136154D01*
X85281037Y-192136174D01*
X85401317Y-192331521D01*
X85521599Y-192526871D01*
X85794429Y-192895762D01*
X86097560Y-193240186D01*
X86428809Y-193557662D01*
X86785788Y-193845902D01*
X87165925Y-194102830D01*
X87566482Y-194326595D01*
X87566485Y-194326596D01*
X87566494Y-194326601D01*
X87984566Y-194515581D01*
X87984573Y-194515584D01*
X88417185Y-194668435D01*
X88861201Y-194784048D01*
X89313422Y-194861589D01*
X89454946Y-194873634D01*
X89770571Y-194900499D01*
X89770588Y-194900499D01*
X89770590Y-194900500D01*
X89770591Y-194900500D01*
X90229409Y-194900500D01*
X90229410Y-194900500D01*
X90229411Y-194900499D01*
X90229428Y-194900499D01*
X90501523Y-194877339D01*
X90686578Y-194861589D01*
X91138799Y-194784048D01*
X91582815Y-194668435D01*
X92015427Y-194515584D01*
X92433518Y-194326595D01*
X92834075Y-194102830D01*
X93214212Y-193845902D01*
X93571191Y-193557662D01*
X93902440Y-193240186D01*
X94205571Y-192895762D01*
X94478401Y-192526871D01*
X94718964Y-192136172D01*
X94925527Y-191726479D01*
X95096601Y-191300744D01*
X95230955Y-190862035D01*
X95327619Y-190413512D01*
X95385897Y-189958407D01*
X95405370Y-189500000D01*
X95405370Y-189499993D01*
X104594630Y-189499993D01*
X104594630Y-189500006D01*
X104614101Y-189958394D01*
X104672381Y-190413513D01*
X104769043Y-190862028D01*
X104903399Y-191300746D01*
X104903401Y-191300751D01*
X105074468Y-191726468D01*
X105074472Y-191726479D01*
X105281026Y-192136154D01*
X105281037Y-192136174D01*
X105401317Y-192331521D01*
X105521599Y-192526871D01*
X105794429Y-192895762D01*
X106097560Y-193240186D01*
X106428809Y-193557662D01*
X106785788Y-193845902D01*
X107165925Y-194102830D01*
X107566482Y-194326595D01*
X107566485Y-194326596D01*
X107566494Y-194326601D01*
X107984566Y-194515581D01*
X107984573Y-194515584D01*
X108417185Y-194668435D01*
X108861201Y-194784048D01*
X109313422Y-194861589D01*
X109454946Y-194873634D01*
X109770571Y-194900499D01*
X109770588Y-194900499D01*
X109770590Y-194900500D01*
X109770591Y-194900500D01*
X110229409Y-194900500D01*
X110229410Y-194900500D01*
X110229411Y-194900499D01*
X110229428Y-194900499D01*
X110501523Y-194877339D01*
X110686578Y-194861589D01*
X111138799Y-194784048D01*
X111582815Y-194668435D01*
X112015427Y-194515584D01*
X112433518Y-194326595D01*
X112834075Y-194102830D01*
X113214212Y-193845902D01*
X113571191Y-193557662D01*
X113902440Y-193240186D01*
X114205571Y-192895762D01*
X114478401Y-192526871D01*
X114718964Y-192136172D01*
X114925527Y-191726479D01*
X115096601Y-191300744D01*
X115230955Y-190862035D01*
X115327619Y-190413512D01*
X115385897Y-189958407D01*
X115405370Y-189500000D01*
X115385897Y-189041593D01*
X115327619Y-188586488D01*
X115230955Y-188137965D01*
X115096601Y-187699256D01*
X114925527Y-187273521D01*
X114925527Y-187273520D01*
X114718973Y-186863845D01*
X114718962Y-186863825D01*
X114667601Y-186780410D01*
X114478401Y-186473129D01*
X114205571Y-186104238D01*
X113902440Y-185759814D01*
X113571191Y-185442338D01*
X113214212Y-185154098D01*
X112834075Y-184897170D01*
X112811723Y-184884683D01*
X112433526Y-184673409D01*
X112433505Y-184673398D01*
X112015433Y-184484418D01*
X111582810Y-184331563D01*
X111138797Y-184215951D01*
X110686588Y-184138412D01*
X110686562Y-184138409D01*
X110229428Y-184099500D01*
X110229410Y-184099500D01*
X109770590Y-184099500D01*
X109770571Y-184099500D01*
X109313437Y-184138409D01*
X109313411Y-184138412D01*
X108861202Y-184215951D01*
X108417189Y-184331563D01*
X107984566Y-184484418D01*
X107566494Y-184673398D01*
X107566473Y-184673409D01*
X107165933Y-184897165D01*
X107165914Y-184897177D01*
X106785793Y-185154094D01*
X106428806Y-185442340D01*
X106097559Y-185759814D01*
X105794435Y-186104230D01*
X105521598Y-186473130D01*
X105281037Y-186863825D01*
X105281026Y-186863845D01*
X105074472Y-187273520D01*
X105074468Y-187273531D01*
X104903401Y-187699248D01*
X104903399Y-187699253D01*
X104769043Y-188137971D01*
X104672381Y-188586486D01*
X104614101Y-189041605D01*
X104594630Y-189499993D01*
X95405370Y-189499993D01*
X95385897Y-189041593D01*
X95327619Y-188586488D01*
X95230955Y-188137965D01*
X95096601Y-187699256D01*
X94925527Y-187273521D01*
X94925527Y-187273520D01*
X94718973Y-186863845D01*
X94718962Y-186863825D01*
X94667601Y-186780410D01*
X94478401Y-186473129D01*
X94205571Y-186104238D01*
X93902440Y-185759814D01*
X93571191Y-185442338D01*
X93214212Y-185154098D01*
X92834075Y-184897170D01*
X92811723Y-184884683D01*
X92433526Y-184673409D01*
X92433505Y-184673398D01*
X92015433Y-184484418D01*
X91582810Y-184331563D01*
X91138797Y-184215951D01*
X90686588Y-184138412D01*
X90686562Y-184138409D01*
X90229428Y-184099500D01*
X90229410Y-184099500D01*
X89770590Y-184099500D01*
X89770571Y-184099500D01*
X89313437Y-184138409D01*
X89313411Y-184138412D01*
X88861202Y-184215951D01*
X88417189Y-184331563D01*
X87984566Y-184484418D01*
X87566494Y-184673398D01*
X87566473Y-184673409D01*
X87165933Y-184897165D01*
X87165914Y-184897177D01*
X86785793Y-185154094D01*
X86428806Y-185442340D01*
X86097559Y-185759814D01*
X85794435Y-186104230D01*
X85521598Y-186473130D01*
X85281037Y-186863825D01*
X85281026Y-186863845D01*
X85074472Y-187273520D01*
X85074468Y-187273531D01*
X84903401Y-187699248D01*
X84903399Y-187699253D01*
X84769043Y-188137971D01*
X84672381Y-188586486D01*
X84614101Y-189041605D01*
X84594630Y-189499993D01*
X75500500Y-189499993D01*
X75500500Y-172999993D01*
X84594630Y-172999993D01*
X84594630Y-173000006D01*
X84614101Y-173458394D01*
X84672381Y-173913513D01*
X84769043Y-174362028D01*
X84903399Y-174800746D01*
X84903401Y-174800751D01*
X85074468Y-175226468D01*
X85074472Y-175226479D01*
X85281026Y-175636154D01*
X85281037Y-175636174D01*
X85401317Y-175831521D01*
X85521599Y-176026871D01*
X85794429Y-176395762D01*
X86097560Y-176740186D01*
X86428809Y-177057662D01*
X86785788Y-177345902D01*
X87165925Y-177602830D01*
X87566482Y-177826595D01*
X87566485Y-177826596D01*
X87566494Y-177826601D01*
X87984566Y-178015581D01*
X87984573Y-178015584D01*
X88417185Y-178168435D01*
X88861201Y-178284048D01*
X89313422Y-178361589D01*
X89454946Y-178373634D01*
X89770571Y-178400499D01*
X89770588Y-178400499D01*
X89770590Y-178400500D01*
X89770591Y-178400500D01*
X90229409Y-178400500D01*
X90229410Y-178400500D01*
X90229411Y-178400499D01*
X90229428Y-178400499D01*
X90501523Y-178377339D01*
X90686578Y-178361589D01*
X91138799Y-178284048D01*
X91582815Y-178168435D01*
X92015427Y-178015584D01*
X92433518Y-177826595D01*
X92834075Y-177602830D01*
X93214212Y-177345902D01*
X93571191Y-177057662D01*
X93902440Y-176740186D01*
X94205571Y-176395762D01*
X94478401Y-176026871D01*
X94718964Y-175636172D01*
X94925527Y-175226479D01*
X95096601Y-174800744D01*
X95230955Y-174362035D01*
X95327619Y-173913512D01*
X95385897Y-173458407D01*
X95405370Y-173000000D01*
X95405370Y-172999993D01*
X104594630Y-172999993D01*
X104594630Y-173000006D01*
X104614101Y-173458394D01*
X104672381Y-173913513D01*
X104769043Y-174362028D01*
X104903399Y-174800746D01*
X104903401Y-174800751D01*
X105074468Y-175226468D01*
X105074472Y-175226479D01*
X105281026Y-175636154D01*
X105281037Y-175636174D01*
X105401317Y-175831521D01*
X105521599Y-176026871D01*
X105794429Y-176395762D01*
X106097560Y-176740186D01*
X106428809Y-177057662D01*
X106785788Y-177345902D01*
X107165925Y-177602830D01*
X107566482Y-177826595D01*
X107566485Y-177826596D01*
X107566494Y-177826601D01*
X107984566Y-178015581D01*
X107984573Y-178015584D01*
X108417185Y-178168435D01*
X108861201Y-178284048D01*
X109313422Y-178361589D01*
X109454946Y-178373634D01*
X109770571Y-178400499D01*
X109770588Y-178400499D01*
X109770590Y-178400500D01*
X109770591Y-178400500D01*
X110229409Y-178400500D01*
X110229410Y-178400500D01*
X110229411Y-178400499D01*
X110229428Y-178400499D01*
X110501523Y-178377339D01*
X110686578Y-178361589D01*
X111138799Y-178284048D01*
X111582815Y-178168435D01*
X112015427Y-178015584D01*
X112433518Y-177826595D01*
X112834075Y-177602830D01*
X113214212Y-177345902D01*
X113571191Y-177057662D01*
X113902440Y-176740186D01*
X114205571Y-176395762D01*
X114478401Y-176026871D01*
X114718964Y-175636172D01*
X114925527Y-175226479D01*
X115096601Y-174800744D01*
X115230955Y-174362035D01*
X115327619Y-173913512D01*
X115385897Y-173458407D01*
X115405370Y-173000000D01*
X115385897Y-172541593D01*
X115327619Y-172086488D01*
X115230955Y-171637965D01*
X115096601Y-171199256D01*
X114925527Y-170773521D01*
X114925527Y-170773520D01*
X114718973Y-170363845D01*
X114718962Y-170363825D01*
X114667601Y-170280410D01*
X114478401Y-169973129D01*
X114205571Y-169604238D01*
X113902440Y-169259814D01*
X113571191Y-168942338D01*
X113214212Y-168654098D01*
X112834075Y-168397170D01*
X112811723Y-168384683D01*
X112433526Y-168173409D01*
X112433505Y-168173398D01*
X112015433Y-167984418D01*
X111582810Y-167831563D01*
X111138797Y-167715951D01*
X110686588Y-167638412D01*
X110686562Y-167638409D01*
X110229428Y-167599500D01*
X110229410Y-167599500D01*
X109770590Y-167599500D01*
X109770571Y-167599500D01*
X109313437Y-167638409D01*
X109313411Y-167638412D01*
X108861202Y-167715951D01*
X108417189Y-167831563D01*
X107984566Y-167984418D01*
X107566494Y-168173398D01*
X107566473Y-168173409D01*
X107165933Y-168397165D01*
X107165914Y-168397177D01*
X106785793Y-168654094D01*
X106428806Y-168942340D01*
X106097559Y-169259814D01*
X105794435Y-169604230D01*
X105521598Y-169973130D01*
X105281037Y-170363825D01*
X105281026Y-170363845D01*
X105074472Y-170773520D01*
X105074468Y-170773531D01*
X104903401Y-171199248D01*
X104903399Y-171199253D01*
X104769043Y-171637971D01*
X104672381Y-172086486D01*
X104614101Y-172541605D01*
X104594630Y-172999993D01*
X95405370Y-172999993D01*
X95385897Y-172541593D01*
X95327619Y-172086488D01*
X95230955Y-171637965D01*
X95096601Y-171199256D01*
X94925527Y-170773521D01*
X94925527Y-170773520D01*
X94718973Y-170363845D01*
X94718962Y-170363825D01*
X94667601Y-170280410D01*
X94478401Y-169973129D01*
X94205571Y-169604238D01*
X93902440Y-169259814D01*
X93571191Y-168942338D01*
X93214212Y-168654098D01*
X92834075Y-168397170D01*
X92811723Y-168384683D01*
X92433526Y-168173409D01*
X92433505Y-168173398D01*
X92015433Y-167984418D01*
X91582810Y-167831563D01*
X91138797Y-167715951D01*
X90686588Y-167638412D01*
X90686562Y-167638409D01*
X90229428Y-167599500D01*
X90229410Y-167599500D01*
X89770590Y-167599500D01*
X89770571Y-167599500D01*
X89313437Y-167638409D01*
X89313411Y-167638412D01*
X88861202Y-167715951D01*
X88417189Y-167831563D01*
X87984566Y-167984418D01*
X87566494Y-168173398D01*
X87566473Y-168173409D01*
X87165933Y-168397165D01*
X87165914Y-168397177D01*
X86785793Y-168654094D01*
X86428806Y-168942340D01*
X86097559Y-169259814D01*
X85794435Y-169604230D01*
X85521598Y-169973130D01*
X85281037Y-170363825D01*
X85281026Y-170363845D01*
X85074472Y-170773520D01*
X85074468Y-170773531D01*
X84903401Y-171199248D01*
X84903399Y-171199253D01*
X84769043Y-171637971D01*
X84672381Y-172086486D01*
X84614101Y-172541605D01*
X84594630Y-172999993D01*
X75500500Y-172999993D01*
X75500500Y-156499993D01*
X84594630Y-156499993D01*
X84594630Y-156500006D01*
X84614101Y-156958394D01*
X84672381Y-157413513D01*
X84769043Y-157862028D01*
X84903399Y-158300746D01*
X84903401Y-158300751D01*
X85074468Y-158726468D01*
X85074472Y-158726479D01*
X85281026Y-159136154D01*
X85281037Y-159136174D01*
X85401317Y-159331521D01*
X85521599Y-159526871D01*
X85794429Y-159895762D01*
X86097560Y-160240186D01*
X86428809Y-160557662D01*
X86785788Y-160845902D01*
X87165925Y-161102830D01*
X87566482Y-161326595D01*
X87566485Y-161326596D01*
X87566494Y-161326601D01*
X87984566Y-161515581D01*
X87984573Y-161515584D01*
X88417185Y-161668435D01*
X88861201Y-161784048D01*
X89313422Y-161861589D01*
X89454946Y-161873634D01*
X89770571Y-161900499D01*
X89770588Y-161900499D01*
X89770590Y-161900500D01*
X89770591Y-161900500D01*
X90229409Y-161900500D01*
X90229410Y-161900500D01*
X90229411Y-161900499D01*
X90229428Y-161900499D01*
X90501523Y-161877339D01*
X90686578Y-161861589D01*
X91138799Y-161784048D01*
X91582815Y-161668435D01*
X92015427Y-161515584D01*
X92433518Y-161326595D01*
X92834075Y-161102830D01*
X93214212Y-160845902D01*
X93571191Y-160557662D01*
X93902440Y-160240186D01*
X94205571Y-159895762D01*
X94478401Y-159526871D01*
X94718964Y-159136172D01*
X94925527Y-158726479D01*
X95096601Y-158300744D01*
X95230955Y-157862035D01*
X95327619Y-157413512D01*
X95385897Y-156958407D01*
X95405370Y-156500000D01*
X95405370Y-156499993D01*
X104594630Y-156499993D01*
X104594630Y-156500006D01*
X104614101Y-156958394D01*
X104672381Y-157413513D01*
X104769043Y-157862028D01*
X104903399Y-158300746D01*
X104903401Y-158300751D01*
X105074468Y-158726468D01*
X105074472Y-158726479D01*
X105281026Y-159136154D01*
X105281037Y-159136174D01*
X105401317Y-159331521D01*
X105521599Y-159526871D01*
X105794429Y-159895762D01*
X106097560Y-160240186D01*
X106428809Y-160557662D01*
X106785788Y-160845902D01*
X107165925Y-161102830D01*
X107566482Y-161326595D01*
X107566485Y-161326596D01*
X107566494Y-161326601D01*
X107984566Y-161515581D01*
X107984573Y-161515584D01*
X108417185Y-161668435D01*
X108861201Y-161784048D01*
X109313422Y-161861589D01*
X109454946Y-161873634D01*
X109770571Y-161900499D01*
X109770588Y-161900499D01*
X109770590Y-161900500D01*
X109770591Y-161900500D01*
X110229409Y-161900500D01*
X110229410Y-161900500D01*
X110229411Y-161900499D01*
X110229428Y-161900499D01*
X110501523Y-161877339D01*
X110686578Y-161861589D01*
X111138799Y-161784048D01*
X111582815Y-161668435D01*
X112015427Y-161515584D01*
X112433518Y-161326595D01*
X112834075Y-161102830D01*
X113214212Y-160845902D01*
X113571191Y-160557662D01*
X113902440Y-160240186D01*
X114205571Y-159895762D01*
X114478401Y-159526871D01*
X114718964Y-159136172D01*
X114925527Y-158726479D01*
X115096601Y-158300744D01*
X115230955Y-157862035D01*
X115327619Y-157413512D01*
X115385897Y-156958407D01*
X115405370Y-156500000D01*
X115385897Y-156041593D01*
X115327619Y-155586488D01*
X115230955Y-155137965D01*
X115096601Y-154699256D01*
X114925527Y-154273521D01*
X114925527Y-154273520D01*
X114718973Y-153863845D01*
X114718962Y-153863825D01*
X114667601Y-153780410D01*
X114478401Y-153473129D01*
X114205571Y-153104238D01*
X113902440Y-152759814D01*
X113571191Y-152442338D01*
X113214212Y-152154098D01*
X112834075Y-151897170D01*
X112811723Y-151884683D01*
X112433526Y-151673409D01*
X112433505Y-151673398D01*
X112015433Y-151484418D01*
X111582810Y-151331563D01*
X111138797Y-151215951D01*
X110686588Y-151138412D01*
X110686562Y-151138409D01*
X110229428Y-151099500D01*
X110229410Y-151099500D01*
X109770590Y-151099500D01*
X109770571Y-151099500D01*
X109313437Y-151138409D01*
X109313411Y-151138412D01*
X108861202Y-151215951D01*
X108417189Y-151331563D01*
X107984566Y-151484418D01*
X107566494Y-151673398D01*
X107566473Y-151673409D01*
X107165933Y-151897165D01*
X107165914Y-151897177D01*
X106785793Y-152154094D01*
X106428806Y-152442340D01*
X106097559Y-152759814D01*
X105794435Y-153104230D01*
X105521598Y-153473130D01*
X105281037Y-153863825D01*
X105281026Y-153863845D01*
X105074472Y-154273520D01*
X105074468Y-154273531D01*
X104903401Y-154699248D01*
X104903399Y-154699253D01*
X104769043Y-155137971D01*
X104672381Y-155586486D01*
X104614101Y-156041605D01*
X104594630Y-156499993D01*
X95405370Y-156499993D01*
X95385897Y-156041593D01*
X95327619Y-155586488D01*
X95230955Y-155137965D01*
X95096601Y-154699256D01*
X94925527Y-154273521D01*
X94925527Y-154273520D01*
X94718973Y-153863845D01*
X94718962Y-153863825D01*
X94667601Y-153780410D01*
X94478401Y-153473129D01*
X94205571Y-153104238D01*
X93902440Y-152759814D01*
X93571191Y-152442338D01*
X93214212Y-152154098D01*
X92834075Y-151897170D01*
X92811723Y-151884683D01*
X92433526Y-151673409D01*
X92433505Y-151673398D01*
X92015433Y-151484418D01*
X91582810Y-151331563D01*
X91138797Y-151215951D01*
X90686588Y-151138412D01*
X90686562Y-151138409D01*
X90229428Y-151099500D01*
X90229410Y-151099500D01*
X89770590Y-151099500D01*
X89770571Y-151099500D01*
X89313437Y-151138409D01*
X89313411Y-151138412D01*
X88861202Y-151215951D01*
X88417189Y-151331563D01*
X87984566Y-151484418D01*
X87566494Y-151673398D01*
X87566473Y-151673409D01*
X87165933Y-151897165D01*
X87165914Y-151897177D01*
X86785793Y-152154094D01*
X86428806Y-152442340D01*
X86097559Y-152759814D01*
X85794435Y-153104230D01*
X85521598Y-153473130D01*
X85281037Y-153863825D01*
X85281026Y-153863845D01*
X85074472Y-154273520D01*
X85074468Y-154273531D01*
X84903401Y-154699248D01*
X84903399Y-154699253D01*
X84769043Y-155137971D01*
X84672381Y-155586486D01*
X84614101Y-156041605D01*
X84594630Y-156499993D01*
X75500500Y-156499993D01*
X75500500Y-103499993D01*
X84594630Y-103499993D01*
X84594630Y-103500006D01*
X84614101Y-103958394D01*
X84672381Y-104413513D01*
X84769043Y-104862028D01*
X84903399Y-105300746D01*
X84903401Y-105300751D01*
X85074468Y-105726468D01*
X85074472Y-105726479D01*
X85281026Y-106136154D01*
X85281037Y-106136174D01*
X85401317Y-106331521D01*
X85521599Y-106526871D01*
X85794429Y-106895762D01*
X86097560Y-107240186D01*
X86428809Y-107557662D01*
X86785788Y-107845902D01*
X87165925Y-108102830D01*
X87566482Y-108326595D01*
X87566485Y-108326596D01*
X87566494Y-108326601D01*
X87984566Y-108515581D01*
X87984573Y-108515584D01*
X88417185Y-108668435D01*
X88861201Y-108784048D01*
X89313422Y-108861589D01*
X89454946Y-108873634D01*
X89770571Y-108900499D01*
X89770588Y-108900499D01*
X89770590Y-108900500D01*
X89770591Y-108900500D01*
X90229409Y-108900500D01*
X90229410Y-108900500D01*
X90229411Y-108900499D01*
X90229428Y-108900499D01*
X90501523Y-108877339D01*
X90686578Y-108861589D01*
X91138799Y-108784048D01*
X91582815Y-108668435D01*
X92015427Y-108515584D01*
X92433518Y-108326595D01*
X92834075Y-108102830D01*
X93214212Y-107845902D01*
X93571191Y-107557662D01*
X93902440Y-107240186D01*
X94205571Y-106895762D01*
X94478401Y-106526871D01*
X94718964Y-106136172D01*
X94925527Y-105726479D01*
X95096601Y-105300744D01*
X95230955Y-104862035D01*
X95327619Y-104413512D01*
X95385897Y-103958407D01*
X95405370Y-103500000D01*
X95405370Y-103499993D01*
X104594630Y-103499993D01*
X104594630Y-103500006D01*
X104614101Y-103958394D01*
X104672381Y-104413513D01*
X104769043Y-104862028D01*
X104903399Y-105300746D01*
X104903401Y-105300751D01*
X105074468Y-105726468D01*
X105074472Y-105726479D01*
X105281026Y-106136154D01*
X105281037Y-106136174D01*
X105401317Y-106331521D01*
X105521599Y-106526871D01*
X105794429Y-106895762D01*
X106097560Y-107240186D01*
X106428809Y-107557662D01*
X106785788Y-107845902D01*
X107165925Y-108102830D01*
X107566482Y-108326595D01*
X107566485Y-108326596D01*
X107566494Y-108326601D01*
X107984566Y-108515581D01*
X107984573Y-108515584D01*
X108417185Y-108668435D01*
X108861201Y-108784048D01*
X109313422Y-108861589D01*
X109454946Y-108873634D01*
X109770571Y-108900499D01*
X109770588Y-108900499D01*
X109770590Y-108900500D01*
X109770591Y-108900500D01*
X110229409Y-108900500D01*
X110229410Y-108900500D01*
X110229411Y-108900499D01*
X110229428Y-108900499D01*
X110501523Y-108877339D01*
X110686578Y-108861589D01*
X111138799Y-108784048D01*
X111582815Y-108668435D01*
X112015427Y-108515584D01*
X112433518Y-108326595D01*
X112834075Y-108102830D01*
X113214212Y-107845902D01*
X113571191Y-107557662D01*
X113902440Y-107240186D01*
X114205571Y-106895762D01*
X114478401Y-106526871D01*
X114718964Y-106136172D01*
X114925527Y-105726479D01*
X115096601Y-105300744D01*
X115230955Y-104862035D01*
X115327619Y-104413512D01*
X115385897Y-103958407D01*
X115405370Y-103500000D01*
X115385897Y-103041593D01*
X115327619Y-102586488D01*
X115230955Y-102137965D01*
X115096601Y-101699256D01*
X114925527Y-101273521D01*
X114925527Y-101273520D01*
X114718973Y-100863845D01*
X114718962Y-100863825D01*
X114667601Y-100780410D01*
X114478401Y-100473129D01*
X114205571Y-100104238D01*
X113902440Y-99759814D01*
X113571191Y-99442338D01*
X113214212Y-99154098D01*
X112834075Y-98897170D01*
X112811723Y-98884683D01*
X112433526Y-98673409D01*
X112433505Y-98673398D01*
X112015433Y-98484418D01*
X111582810Y-98331563D01*
X111138797Y-98215951D01*
X110686588Y-98138412D01*
X110686562Y-98138409D01*
X110229428Y-98099500D01*
X110229410Y-98099500D01*
X109770590Y-98099500D01*
X109770571Y-98099500D01*
X109313437Y-98138409D01*
X109313411Y-98138412D01*
X108861202Y-98215951D01*
X108417189Y-98331563D01*
X107984566Y-98484418D01*
X107566494Y-98673398D01*
X107566473Y-98673409D01*
X107165933Y-98897165D01*
X107165914Y-98897177D01*
X106785793Y-99154094D01*
X106428806Y-99442340D01*
X106097559Y-99759814D01*
X105794435Y-100104230D01*
X105521598Y-100473130D01*
X105281037Y-100863825D01*
X105281026Y-100863845D01*
X105074472Y-101273520D01*
X105074468Y-101273531D01*
X104903401Y-101699248D01*
X104903399Y-101699253D01*
X104769043Y-102137971D01*
X104672381Y-102586486D01*
X104614101Y-103041605D01*
X104594630Y-103499993D01*
X95405370Y-103499993D01*
X95385897Y-103041593D01*
X95327619Y-102586488D01*
X95230955Y-102137965D01*
X95096601Y-101699256D01*
X94925527Y-101273521D01*
X94925527Y-101273520D01*
X94718973Y-100863845D01*
X94718962Y-100863825D01*
X94667601Y-100780410D01*
X94478401Y-100473129D01*
X94205571Y-100104238D01*
X93902440Y-99759814D01*
X93571191Y-99442338D01*
X93214212Y-99154098D01*
X92834075Y-98897170D01*
X92811723Y-98884683D01*
X92433526Y-98673409D01*
X92433505Y-98673398D01*
X92015433Y-98484418D01*
X91582810Y-98331563D01*
X91138797Y-98215951D01*
X90686588Y-98138412D01*
X90686562Y-98138409D01*
X90229428Y-98099500D01*
X90229410Y-98099500D01*
X89770590Y-98099500D01*
X89770571Y-98099500D01*
X89313437Y-98138409D01*
X89313411Y-98138412D01*
X88861202Y-98215951D01*
X88417189Y-98331563D01*
X87984566Y-98484418D01*
X87566494Y-98673398D01*
X87566473Y-98673409D01*
X87165933Y-98897165D01*
X87165914Y-98897177D01*
X86785793Y-99154094D01*
X86428806Y-99442340D01*
X86097559Y-99759814D01*
X85794435Y-100104230D01*
X85521598Y-100473130D01*
X85281037Y-100863825D01*
X85281026Y-100863845D01*
X85074472Y-101273520D01*
X85074468Y-101273531D01*
X84903401Y-101699248D01*
X84903399Y-101699253D01*
X84769043Y-102137971D01*
X84672381Y-102586486D01*
X84614101Y-103041605D01*
X84594630Y-103499993D01*
X75500500Y-103499993D01*
X75500500Y-86999993D01*
X84594630Y-86999993D01*
X84594630Y-87000006D01*
X84614101Y-87458394D01*
X84672381Y-87913513D01*
X84769043Y-88362028D01*
X84903399Y-88800746D01*
X84903401Y-88800751D01*
X85074468Y-89226468D01*
X85074472Y-89226479D01*
X85281026Y-89636154D01*
X85281037Y-89636174D01*
X85401317Y-89831521D01*
X85521599Y-90026871D01*
X85794429Y-90395762D01*
X86097560Y-90740186D01*
X86428809Y-91057662D01*
X86785788Y-91345902D01*
X87165925Y-91602830D01*
X87566482Y-91826595D01*
X87566485Y-91826596D01*
X87566494Y-91826601D01*
X87984566Y-92015581D01*
X87984573Y-92015584D01*
X88417185Y-92168435D01*
X88861201Y-92284048D01*
X89313422Y-92361589D01*
X89454946Y-92373634D01*
X89770571Y-92400499D01*
X89770588Y-92400499D01*
X89770590Y-92400500D01*
X89770591Y-92400500D01*
X90229409Y-92400500D01*
X90229410Y-92400500D01*
X90229411Y-92400499D01*
X90229428Y-92400499D01*
X90501523Y-92377339D01*
X90686578Y-92361589D01*
X91138799Y-92284048D01*
X91582815Y-92168435D01*
X92015427Y-92015584D01*
X92433518Y-91826595D01*
X92834075Y-91602830D01*
X93214212Y-91345902D01*
X93571191Y-91057662D01*
X93902440Y-90740186D01*
X94205571Y-90395762D01*
X94478401Y-90026871D01*
X94718964Y-89636172D01*
X94925527Y-89226479D01*
X95096601Y-88800744D01*
X95230955Y-88362035D01*
X95327619Y-87913512D01*
X95385897Y-87458407D01*
X95405370Y-87000000D01*
X95405370Y-86999993D01*
X104594630Y-86999993D01*
X104594630Y-87000006D01*
X104614101Y-87458394D01*
X104672381Y-87913513D01*
X104769043Y-88362028D01*
X104903399Y-88800746D01*
X104903401Y-88800751D01*
X105074468Y-89226468D01*
X105074472Y-89226479D01*
X105281026Y-89636154D01*
X105281037Y-89636174D01*
X105401317Y-89831521D01*
X105521599Y-90026871D01*
X105794429Y-90395762D01*
X106097560Y-90740186D01*
X106428809Y-91057662D01*
X106785788Y-91345902D01*
X107165925Y-91602830D01*
X107566482Y-91826595D01*
X107566485Y-91826596D01*
X107566494Y-91826601D01*
X107984566Y-92015581D01*
X107984573Y-92015584D01*
X108417185Y-92168435D01*
X108861201Y-92284048D01*
X109313422Y-92361589D01*
X109454946Y-92373634D01*
X109770571Y-92400499D01*
X109770588Y-92400499D01*
X109770590Y-92400500D01*
X109770591Y-92400500D01*
X110229409Y-92400500D01*
X110229410Y-92400500D01*
X110229411Y-92400499D01*
X110229428Y-92400499D01*
X110501523Y-92377339D01*
X110686578Y-92361589D01*
X111138799Y-92284048D01*
X111582815Y-92168435D01*
X112015427Y-92015584D01*
X112433518Y-91826595D01*
X112834075Y-91602830D01*
X113214212Y-91345902D01*
X113571191Y-91057662D01*
X113902440Y-90740186D01*
X114205571Y-90395762D01*
X114478401Y-90026871D01*
X114718964Y-89636172D01*
X114925527Y-89226479D01*
X115096601Y-88800744D01*
X115230955Y-88362035D01*
X115327619Y-87913512D01*
X115385897Y-87458407D01*
X115405370Y-87000000D01*
X115385897Y-86541593D01*
X115327619Y-86086488D01*
X115230955Y-85637965D01*
X115096601Y-85199256D01*
X114925527Y-84773521D01*
X114925527Y-84773520D01*
X114718973Y-84363845D01*
X114718962Y-84363825D01*
X114667601Y-84280410D01*
X114478401Y-83973129D01*
X114205571Y-83604238D01*
X113902440Y-83259814D01*
X113571191Y-82942338D01*
X113214212Y-82654098D01*
X112834075Y-82397170D01*
X112811723Y-82384683D01*
X112433526Y-82173409D01*
X112433505Y-82173398D01*
X112015433Y-81984418D01*
X111582810Y-81831563D01*
X111138797Y-81715951D01*
X110686588Y-81638412D01*
X110686562Y-81638409D01*
X110229428Y-81599500D01*
X110229410Y-81599500D01*
X109770590Y-81599500D01*
X109770571Y-81599500D01*
X109313437Y-81638409D01*
X109313411Y-81638412D01*
X108861202Y-81715951D01*
X108417189Y-81831563D01*
X107984566Y-81984418D01*
X107566494Y-82173398D01*
X107566473Y-82173409D01*
X107165933Y-82397165D01*
X107165914Y-82397177D01*
X106785793Y-82654094D01*
X106428806Y-82942340D01*
X106097559Y-83259814D01*
X105794435Y-83604230D01*
X105521598Y-83973130D01*
X105281037Y-84363825D01*
X105281026Y-84363845D01*
X105074472Y-84773520D01*
X105074468Y-84773531D01*
X104903401Y-85199248D01*
X104903399Y-85199253D01*
X104769043Y-85637971D01*
X104672381Y-86086486D01*
X104614101Y-86541605D01*
X104594630Y-86999993D01*
X95405370Y-86999993D01*
X95385897Y-86541593D01*
X95327619Y-86086488D01*
X95230955Y-85637965D01*
X95096601Y-85199256D01*
X94925527Y-84773521D01*
X94925527Y-84773520D01*
X94718973Y-84363845D01*
X94718962Y-84363825D01*
X94667601Y-84280410D01*
X94478401Y-83973129D01*
X94205571Y-83604238D01*
X93902440Y-83259814D01*
X93571191Y-82942338D01*
X93214212Y-82654098D01*
X92834075Y-82397170D01*
X92811723Y-82384683D01*
X92433526Y-82173409D01*
X92433505Y-82173398D01*
X92015433Y-81984418D01*
X91582810Y-81831563D01*
X91138797Y-81715951D01*
X90686588Y-81638412D01*
X90686562Y-81638409D01*
X90229428Y-81599500D01*
X90229410Y-81599500D01*
X89770590Y-81599500D01*
X89770571Y-81599500D01*
X89313437Y-81638409D01*
X89313411Y-81638412D01*
X88861202Y-81715951D01*
X88417189Y-81831563D01*
X87984566Y-81984418D01*
X87566494Y-82173398D01*
X87566473Y-82173409D01*
X87165933Y-82397165D01*
X87165914Y-82397177D01*
X86785793Y-82654094D01*
X86428806Y-82942340D01*
X86097559Y-83259814D01*
X85794435Y-83604230D01*
X85521598Y-83973130D01*
X85281037Y-84363825D01*
X85281026Y-84363845D01*
X85074472Y-84773520D01*
X85074468Y-84773531D01*
X84903401Y-85199248D01*
X84903399Y-85199253D01*
X84769043Y-85637971D01*
X84672381Y-86086486D01*
X84614101Y-86541605D01*
X84594630Y-86999993D01*
X75500500Y-86999993D01*
X75500500Y-70499993D01*
X84594630Y-70499993D01*
X84594630Y-70500006D01*
X84614101Y-70958394D01*
X84672381Y-71413513D01*
X84769043Y-71862028D01*
X84903399Y-72300746D01*
X84903401Y-72300751D01*
X85074468Y-72726468D01*
X85074472Y-72726479D01*
X85281026Y-73136154D01*
X85281037Y-73136174D01*
X85401317Y-73331521D01*
X85521599Y-73526871D01*
X85794429Y-73895762D01*
X86097560Y-74240186D01*
X86428809Y-74557662D01*
X86785788Y-74845902D01*
X87165925Y-75102830D01*
X87566482Y-75326595D01*
X87566485Y-75326596D01*
X87566494Y-75326601D01*
X87984566Y-75515581D01*
X87984573Y-75515584D01*
X88417185Y-75668435D01*
X88861201Y-75784048D01*
X89313422Y-75861589D01*
X89454946Y-75873634D01*
X89770571Y-75900499D01*
X89770588Y-75900499D01*
X89770590Y-75900500D01*
X89770591Y-75900500D01*
X90229409Y-75900500D01*
X90229410Y-75900500D01*
X90229411Y-75900499D01*
X90229428Y-75900499D01*
X90501523Y-75877339D01*
X90686578Y-75861589D01*
X91138799Y-75784048D01*
X91582815Y-75668435D01*
X92015427Y-75515584D01*
X92433518Y-75326595D01*
X92834075Y-75102830D01*
X93214212Y-74845902D01*
X93571191Y-74557662D01*
X93902440Y-74240186D01*
X94205571Y-73895762D01*
X94478401Y-73526871D01*
X94718964Y-73136172D01*
X94925527Y-72726479D01*
X95096601Y-72300744D01*
X95230955Y-71862035D01*
X95327619Y-71413512D01*
X95385897Y-70958407D01*
X95405370Y-70500000D01*
X95405370Y-70499993D01*
X104594630Y-70499993D01*
X104594630Y-70500006D01*
X104614101Y-70958394D01*
X104672381Y-71413513D01*
X104769043Y-71862028D01*
X104903399Y-72300746D01*
X104903401Y-72300751D01*
X105074468Y-72726468D01*
X105074472Y-72726479D01*
X105281026Y-73136154D01*
X105281037Y-73136174D01*
X105401317Y-73331521D01*
X105521599Y-73526871D01*
X105794429Y-73895762D01*
X106097560Y-74240186D01*
X106428809Y-74557662D01*
X106785788Y-74845902D01*
X107165925Y-75102830D01*
X107566482Y-75326595D01*
X107566485Y-75326596D01*
X107566494Y-75326601D01*
X107984566Y-75515581D01*
X107984573Y-75515584D01*
X108417185Y-75668435D01*
X108861201Y-75784048D01*
X109313422Y-75861589D01*
X109454946Y-75873634D01*
X109770571Y-75900499D01*
X109770588Y-75900499D01*
X109770590Y-75900500D01*
X109770591Y-75900500D01*
X110229409Y-75900500D01*
X110229410Y-75900500D01*
X110229411Y-75900499D01*
X110229428Y-75900499D01*
X110501523Y-75877339D01*
X110686578Y-75861589D01*
X111138799Y-75784048D01*
X111582815Y-75668435D01*
X112015427Y-75515584D01*
X112433518Y-75326595D01*
X112834075Y-75102830D01*
X113214212Y-74845902D01*
X113571191Y-74557662D01*
X113902440Y-74240186D01*
X114205571Y-73895762D01*
X114478401Y-73526871D01*
X114718964Y-73136172D01*
X114925527Y-72726479D01*
X115096601Y-72300744D01*
X115230955Y-71862035D01*
X115327619Y-71413512D01*
X115385897Y-70958407D01*
X115405370Y-70500000D01*
X115385897Y-70041593D01*
X115327619Y-69586488D01*
X115230955Y-69137965D01*
X115096601Y-68699256D01*
X114925527Y-68273521D01*
X114925527Y-68273520D01*
X114718973Y-67863845D01*
X114718962Y-67863825D01*
X114667601Y-67780410D01*
X114478401Y-67473129D01*
X114205571Y-67104238D01*
X113902440Y-66759814D01*
X113571191Y-66442338D01*
X113214212Y-66154098D01*
X112834075Y-65897170D01*
X112811723Y-65884683D01*
X112433526Y-65673409D01*
X112433505Y-65673398D01*
X112015433Y-65484418D01*
X111582810Y-65331563D01*
X111138797Y-65215951D01*
X110686588Y-65138412D01*
X110686562Y-65138409D01*
X110229428Y-65099500D01*
X110229410Y-65099500D01*
X109770590Y-65099500D01*
X109770571Y-65099500D01*
X109313437Y-65138409D01*
X109313411Y-65138412D01*
X108861202Y-65215951D01*
X108417189Y-65331563D01*
X107984566Y-65484418D01*
X107566494Y-65673398D01*
X107566473Y-65673409D01*
X107165933Y-65897165D01*
X107165914Y-65897177D01*
X106785793Y-66154094D01*
X106428806Y-66442340D01*
X106097559Y-66759814D01*
X105794435Y-67104230D01*
X105521598Y-67473130D01*
X105281037Y-67863825D01*
X105281026Y-67863845D01*
X105074472Y-68273520D01*
X105074468Y-68273531D01*
X104903401Y-68699248D01*
X104903399Y-68699253D01*
X104769043Y-69137971D01*
X104672381Y-69586486D01*
X104614101Y-70041605D01*
X104594630Y-70499993D01*
X95405370Y-70499993D01*
X95385897Y-70041593D01*
X95327619Y-69586488D01*
X95230955Y-69137965D01*
X95096601Y-68699256D01*
X94925527Y-68273521D01*
X94925527Y-68273520D01*
X94718973Y-67863845D01*
X94718962Y-67863825D01*
X94667601Y-67780410D01*
X94478401Y-67473129D01*
X94205571Y-67104238D01*
X93902440Y-66759814D01*
X93571191Y-66442338D01*
X93214212Y-66154098D01*
X92834075Y-65897170D01*
X92811723Y-65884683D01*
X92433526Y-65673409D01*
X92433505Y-65673398D01*
X92015433Y-65484418D01*
X91582810Y-65331563D01*
X91138797Y-65215951D01*
X90686588Y-65138412D01*
X90686562Y-65138409D01*
X90229428Y-65099500D01*
X90229410Y-65099500D01*
X89770590Y-65099500D01*
X89770571Y-65099500D01*
X89313437Y-65138409D01*
X89313411Y-65138412D01*
X88861202Y-65215951D01*
X88417189Y-65331563D01*
X87984566Y-65484418D01*
X87566494Y-65673398D01*
X87566473Y-65673409D01*
X87165933Y-65897165D01*
X87165914Y-65897177D01*
X86785793Y-66154094D01*
X86428806Y-66442340D01*
X86097559Y-66759814D01*
X85794435Y-67104230D01*
X85521598Y-67473130D01*
X85281037Y-67863825D01*
X85281026Y-67863845D01*
X85074472Y-68273520D01*
X85074468Y-68273531D01*
X84903401Y-68699248D01*
X84903399Y-68699253D01*
X84769043Y-69137971D01*
X84672381Y-69586486D01*
X84614101Y-70041605D01*
X84594630Y-70499993D01*
X75500500Y-70499993D01*
X75500500Y-53999993D01*
X84594630Y-53999993D01*
X84594630Y-54000006D01*
X84614101Y-54458394D01*
X84672381Y-54913513D01*
X84769043Y-55362028D01*
X84903399Y-55800746D01*
X84903401Y-55800751D01*
X85074468Y-56226468D01*
X85074472Y-56226479D01*
X85281026Y-56636154D01*
X85281037Y-56636174D01*
X85401317Y-56831521D01*
X85521599Y-57026871D01*
X85794429Y-57395762D01*
X86097560Y-57740186D01*
X86428809Y-58057662D01*
X86785788Y-58345902D01*
X87165925Y-58602830D01*
X87566482Y-58826595D01*
X87566485Y-58826596D01*
X87566494Y-58826601D01*
X87984566Y-59015581D01*
X87984573Y-59015584D01*
X88417185Y-59168435D01*
X88861201Y-59284048D01*
X89313422Y-59361589D01*
X89454946Y-59373634D01*
X89770571Y-59400499D01*
X89770588Y-59400499D01*
X89770590Y-59400500D01*
X89770591Y-59400500D01*
X90229409Y-59400500D01*
X90229410Y-59400500D01*
X90229411Y-59400499D01*
X90229428Y-59400499D01*
X90501523Y-59377339D01*
X90686578Y-59361589D01*
X91138799Y-59284048D01*
X91582815Y-59168435D01*
X92015427Y-59015584D01*
X92433518Y-58826595D01*
X92834075Y-58602830D01*
X93214212Y-58345902D01*
X93571191Y-58057662D01*
X93902440Y-57740186D01*
X94205571Y-57395762D01*
X94478401Y-57026871D01*
X94718964Y-56636172D01*
X94925527Y-56226479D01*
X95096601Y-55800744D01*
X95230955Y-55362035D01*
X95327619Y-54913512D01*
X95385897Y-54458407D01*
X95405370Y-54000000D01*
X95405370Y-53999993D01*
X104594630Y-53999993D01*
X104594630Y-54000006D01*
X104614101Y-54458394D01*
X104672381Y-54913513D01*
X104769043Y-55362028D01*
X104903399Y-55800746D01*
X104903401Y-55800751D01*
X105074468Y-56226468D01*
X105074472Y-56226479D01*
X105281026Y-56636154D01*
X105281037Y-56636174D01*
X105401317Y-56831521D01*
X105521599Y-57026871D01*
X105794429Y-57395762D01*
X106097560Y-57740186D01*
X106428809Y-58057662D01*
X106785788Y-58345902D01*
X107165925Y-58602830D01*
X107566482Y-58826595D01*
X107566485Y-58826596D01*
X107566494Y-58826601D01*
X107984566Y-59015581D01*
X107984573Y-59015584D01*
X108417185Y-59168435D01*
X108861201Y-59284048D01*
X109313422Y-59361589D01*
X109454946Y-59373634D01*
X109770571Y-59400499D01*
X109770588Y-59400499D01*
X109770590Y-59400500D01*
X109770591Y-59400500D01*
X110229409Y-59400500D01*
X110229410Y-59400500D01*
X110229411Y-59400499D01*
X110229428Y-59400499D01*
X110501523Y-59377339D01*
X110686578Y-59361589D01*
X111138799Y-59284048D01*
X111582815Y-59168435D01*
X112015427Y-59015584D01*
X112433518Y-58826595D01*
X112834075Y-58602830D01*
X113214212Y-58345902D01*
X113571191Y-58057662D01*
X113902440Y-57740186D01*
X114205571Y-57395762D01*
X114478401Y-57026871D01*
X114718964Y-56636172D01*
X114925527Y-56226479D01*
X115096601Y-55800744D01*
X115230955Y-55362035D01*
X115327619Y-54913512D01*
X115385897Y-54458407D01*
X115405370Y-54000000D01*
X115385897Y-53541593D01*
X115327619Y-53086488D01*
X115230955Y-52637965D01*
X115096601Y-52199256D01*
X114925527Y-51773521D01*
X114925527Y-51773520D01*
X114718973Y-51363845D01*
X114718962Y-51363825D01*
X114667601Y-51280410D01*
X114478401Y-50973129D01*
X114205571Y-50604238D01*
X113902440Y-50259814D01*
X113571191Y-49942338D01*
X113214212Y-49654098D01*
X112834075Y-49397170D01*
X112811723Y-49384683D01*
X112433526Y-49173409D01*
X112433505Y-49173398D01*
X112015433Y-48984418D01*
X111582810Y-48831563D01*
X111138797Y-48715951D01*
X110686588Y-48638412D01*
X110686562Y-48638409D01*
X110229428Y-48599500D01*
X110229410Y-48599500D01*
X109770590Y-48599500D01*
X109770571Y-48599500D01*
X109313437Y-48638409D01*
X109313411Y-48638412D01*
X108861202Y-48715951D01*
X108417189Y-48831563D01*
X107984566Y-48984418D01*
X107566494Y-49173398D01*
X107566473Y-49173409D01*
X107165933Y-49397165D01*
X107165914Y-49397177D01*
X106785793Y-49654094D01*
X106428806Y-49942340D01*
X106097559Y-50259814D01*
X105794435Y-50604230D01*
X105521598Y-50973130D01*
X105281037Y-51363825D01*
X105281026Y-51363845D01*
X105074472Y-51773520D01*
X105074468Y-51773531D01*
X104903401Y-52199248D01*
X104903399Y-52199253D01*
X104769043Y-52637971D01*
X104672381Y-53086486D01*
X104614101Y-53541605D01*
X104594630Y-53999993D01*
X95405370Y-53999993D01*
X95385897Y-53541593D01*
X95327619Y-53086488D01*
X95230955Y-52637965D01*
X95096601Y-52199256D01*
X94925527Y-51773521D01*
X94925527Y-51773520D01*
X94718973Y-51363845D01*
X94718962Y-51363825D01*
X94667601Y-51280410D01*
X94478401Y-50973129D01*
X94205571Y-50604238D01*
X93902440Y-50259814D01*
X93571191Y-49942338D01*
X93214212Y-49654098D01*
X92834075Y-49397170D01*
X92811723Y-49384683D01*
X92433526Y-49173409D01*
X92433505Y-49173398D01*
X92015433Y-48984418D01*
X91582810Y-48831563D01*
X91138797Y-48715951D01*
X90686588Y-48638412D01*
X90686562Y-48638409D01*
X90229428Y-48599500D01*
X90229410Y-48599500D01*
X89770590Y-48599500D01*
X89770571Y-48599500D01*
X89313437Y-48638409D01*
X89313411Y-48638412D01*
X88861202Y-48715951D01*
X88417189Y-48831563D01*
X87984566Y-48984418D01*
X87566494Y-49173398D01*
X87566473Y-49173409D01*
X87165933Y-49397165D01*
X87165914Y-49397177D01*
X86785793Y-49654094D01*
X86428806Y-49942340D01*
X86097559Y-50259814D01*
X85794435Y-50604230D01*
X85521598Y-50973130D01*
X85281037Y-51363825D01*
X85281026Y-51363845D01*
X85074472Y-51773520D01*
X85074468Y-51773531D01*
X84903401Y-52199248D01*
X84903399Y-52199253D01*
X84769043Y-52637971D01*
X84672381Y-53086486D01*
X84614101Y-53541605D01*
X84594630Y-53999993D01*
X75500500Y-53999993D01*
X75500500Y-30624500D01*
X75520185Y-30557461D01*
X75572989Y-30511706D01*
X75624500Y-30500500D01*
X124375500Y-30500500D01*
X124442539Y-30520185D01*
G37*
%TD.AperFunction*%
%TD*%
M02*
