M48
; DRILL file {KiCad 8.0.2} date 2024-06-03T22:25:34+0200
; FORMAT={-:-/ absolute / metric / decimal}
; #@! TF.CreationDate,2024-06-03T22:25:34+02:00
; #@! TF.GenerationSoftware,Kicad,Pcbnew,8.0.2
; #@! TF.FileFunction,Plated,1,2,PTH
FMAT,2
METRIC
; #@! TA.AperFunction,Plated,PTH,ComponentDrill
T1C0.300
; #@! TA.AperFunction,Plated,PTH,ComponentDrill
T2C3.200
%
G90
G05
T1
X84.3Y-54.0
X84.3Y-70.5
X84.3Y-87.0
X84.3Y-103.5
X84.3Y-156.5
X84.3Y-173.0
X84.3Y-189.5
X84.3Y-206.0
X85.96Y-49.97
X85.96Y-66.47
X85.96Y-82.97
X85.96Y-99.47
X85.96Y-152.47
X85.96Y-168.97
X85.96Y-185.47
X85.96Y-201.97
X85.97Y-58.04
X85.97Y-74.54
X85.97Y-91.04
X85.97Y-107.54
X85.97Y-160.54
X85.97Y-177.04
X85.97Y-193.54
X85.97Y-210.04
X90.0Y-48.3
X90.0Y-59.7
X90.0Y-64.8
X90.0Y-76.2
X90.0Y-81.3
X90.0Y-92.7
X90.0Y-97.8
X90.0Y-109.2
X90.0Y-150.8
X90.0Y-162.2
X90.0Y-167.3
X90.0Y-178.7
X90.0Y-183.8
X90.0Y-195.2
X90.0Y-200.3
X90.0Y-211.7
X94.03Y-58.04
X94.03Y-74.54
X94.03Y-91.04
X94.03Y-107.54
X94.03Y-160.54
X94.03Y-177.04
X94.03Y-193.54
X94.03Y-210.04
X94.04Y-49.97
X94.04Y-66.47
X94.04Y-82.97
X94.04Y-99.47
X94.04Y-152.47
X94.04Y-168.97
X94.04Y-185.47
X94.04Y-201.97
X95.7Y-54.0
X95.7Y-70.5
X95.7Y-87.0
X95.7Y-103.5
X95.7Y-156.5
X95.7Y-173.0
X95.7Y-189.5
X95.7Y-206.0
X104.3Y-54.0
X104.3Y-70.5
X104.3Y-87.0
X104.3Y-103.5
X104.3Y-156.5
X104.3Y-173.0
X104.3Y-189.5
X104.3Y-206.0
X105.96Y-49.97
X105.96Y-66.47
X105.96Y-82.97
X105.96Y-99.47
X105.96Y-152.47
X105.96Y-168.97
X105.96Y-185.47
X105.96Y-201.97
X105.97Y-58.04
X105.97Y-74.54
X105.97Y-91.04
X105.97Y-107.54
X105.97Y-160.54
X105.97Y-177.04
X105.97Y-193.54
X105.97Y-210.04
X110.0Y-48.3
X110.0Y-59.7
X110.0Y-64.8
X110.0Y-76.2
X110.0Y-81.3
X110.0Y-92.7
X110.0Y-97.8
X110.0Y-109.2
X110.0Y-150.8
X110.0Y-162.2
X110.0Y-167.3
X110.0Y-178.7
X110.0Y-183.8
X110.0Y-195.2
X110.0Y-200.3
X110.0Y-211.7
X114.03Y-58.04
X114.03Y-74.54
X114.03Y-91.04
X114.03Y-107.54
X114.03Y-160.54
X114.03Y-177.04
X114.03Y-193.54
X114.03Y-210.04
X114.04Y-49.97
X114.04Y-66.47
X114.04Y-82.97
X114.04Y-99.47
X114.04Y-152.47
X114.04Y-168.97
X114.04Y-185.47
X114.04Y-201.97
X115.7Y-54.0
X115.7Y-70.5
X115.7Y-87.0
X115.7Y-103.5
X115.7Y-156.5
X115.7Y-173.0
X115.7Y-189.5
X115.7Y-206.0
T2
X78.5Y-33.5
X78.5Y-226.5
X121.5Y-33.5
X121.5Y-226.5
M30
