G04 #@! TF.GenerationSoftware,KiCad,Pcbnew,8.0.3*
G04 #@! TF.CreationDate,2024-06-29T17:28:01+02:00*
G04 #@! TF.ProjectId,DMH_Buffered_Mult_PANEL,444d485f-4275-4666-9665-7265645f4d75,1*
G04 #@! TF.SameCoordinates,Original*
G04 #@! TF.FileFunction,Soldermask,Bot*
G04 #@! TF.FilePolarity,Negative*
%FSLAX46Y46*%
G04 Gerber Fmt 4.6, Leading zero omitted, Abs format (unit mm)*
G04 Created by KiCad (PCBNEW 8.0.3) date 2024-06-29 17:28:01*
%MOMM*%
%LPD*%
G01*
G04 APERTURE LIST*
%ADD10C,0.500000*%
%ADD11C,12.000000*%
%ADD12C,4.000000*%
%ADD13R,5.000000X10.000000*%
G04 APERTURE END LIST*
D10*
X104300000Y-206000000D03*
X105960000Y-201970000D03*
X105970000Y-210040000D03*
X110000000Y-200300000D03*
D11*
X110000000Y-206000000D03*
D10*
X110000000Y-211700000D03*
X114030000Y-210040000D03*
X114040000Y-201970000D03*
X115700000Y-206000000D03*
X84300000Y-206000000D03*
X85960000Y-201970000D03*
X85970000Y-210040000D03*
X90000000Y-200300000D03*
D11*
X90000000Y-206000000D03*
D10*
X90000000Y-211700000D03*
X94030000Y-210040000D03*
X94040000Y-201970000D03*
X95700000Y-206000000D03*
D12*
X121500000Y-33500000D03*
D10*
X84300000Y-54000000D03*
X85960000Y-49970000D03*
X85970000Y-58040000D03*
X90000000Y-48300000D03*
D11*
X90000000Y-54000000D03*
D10*
X90000000Y-59700000D03*
X94030000Y-58040000D03*
X94040000Y-49970000D03*
X95700000Y-54000000D03*
X104300000Y-54000000D03*
X105960000Y-49970000D03*
X105970000Y-58040000D03*
X110000000Y-48300000D03*
D11*
X110000000Y-54000000D03*
D10*
X110000000Y-59700000D03*
X114030000Y-58040000D03*
X114040000Y-49970000D03*
X115700000Y-54000000D03*
D12*
X78500000Y-226500000D03*
D10*
X84300000Y-70500000D03*
X85960000Y-66470000D03*
X85970000Y-74540000D03*
X90000000Y-64800000D03*
D11*
X90000000Y-70500000D03*
D10*
X90000000Y-76200000D03*
X94030000Y-74540000D03*
X94040000Y-66470000D03*
X95700000Y-70500000D03*
X104300000Y-156500000D03*
X105960000Y-152470000D03*
X105970000Y-160540000D03*
X110000000Y-150800000D03*
D11*
X110000000Y-156500000D03*
D10*
X110000000Y-162200000D03*
X114030000Y-160540000D03*
X114040000Y-152470000D03*
X115700000Y-156500000D03*
X84300000Y-173000000D03*
X85960000Y-168970000D03*
X85970000Y-177040000D03*
X90000000Y-167300000D03*
D11*
X90000000Y-173000000D03*
D10*
X90000000Y-178700000D03*
X94030000Y-177040000D03*
X94040000Y-168970000D03*
X95700000Y-173000000D03*
X104300000Y-189500000D03*
X105960000Y-185470000D03*
X105970000Y-193540000D03*
X110000000Y-183800000D03*
D11*
X110000000Y-189500000D03*
D10*
X110000000Y-195200000D03*
X114030000Y-193540000D03*
X114040000Y-185470000D03*
X115700000Y-189500000D03*
X84300000Y-103500000D03*
X85960000Y-99470000D03*
X85970000Y-107540000D03*
X90000000Y-97800000D03*
D11*
X90000000Y-103500000D03*
D10*
X90000000Y-109200000D03*
X94030000Y-107540000D03*
X94040000Y-99470000D03*
X95700000Y-103500000D03*
X84300000Y-189500000D03*
X85960000Y-185470000D03*
X85970000Y-193540000D03*
X90000000Y-183800000D03*
D11*
X90000000Y-189500000D03*
D10*
X90000000Y-195200000D03*
X94030000Y-193540000D03*
X94040000Y-185470000D03*
X95700000Y-189500000D03*
X104300000Y-103500000D03*
X105960000Y-99470000D03*
X105970000Y-107540000D03*
X110000000Y-97800000D03*
D11*
X110000000Y-103500000D03*
D10*
X110000000Y-109200000D03*
X114030000Y-107540000D03*
X114040000Y-99470000D03*
X115700000Y-103500000D03*
X104300000Y-173000000D03*
X105960000Y-168970000D03*
X105970000Y-177040000D03*
X110000000Y-167300000D03*
D11*
X110000000Y-173000000D03*
D10*
X110000000Y-178700000D03*
X114030000Y-177040000D03*
X114040000Y-168970000D03*
X115700000Y-173000000D03*
D12*
X121500000Y-226500000D03*
D10*
X84300000Y-156500000D03*
X85960000Y-152470000D03*
X85970000Y-160540000D03*
X90000000Y-150800000D03*
D11*
X90000000Y-156500000D03*
D10*
X90000000Y-162200000D03*
X94030000Y-160540000D03*
X94040000Y-152470000D03*
X95700000Y-156500000D03*
X84300000Y-87000000D03*
X85960000Y-82970000D03*
X85970000Y-91040000D03*
X90000000Y-81300000D03*
D11*
X90000000Y-87000000D03*
D10*
X90000000Y-92700000D03*
X94030000Y-91040000D03*
X94040000Y-82970000D03*
X95700000Y-87000000D03*
X104300000Y-70500000D03*
X105960000Y-66470000D03*
X105970000Y-74540000D03*
X110000000Y-64800000D03*
D11*
X110000000Y-70500000D03*
D10*
X110000000Y-76200000D03*
X114030000Y-74540000D03*
X114040000Y-66470000D03*
X115700000Y-70500000D03*
D12*
X78500000Y-33500000D03*
D10*
X104300000Y-87000000D03*
X105960000Y-82970000D03*
X105970000Y-91040000D03*
X110000000Y-81300000D03*
D11*
X110000000Y-87000000D03*
D10*
X110000000Y-92700000D03*
X114030000Y-91040000D03*
X114040000Y-82970000D03*
X115700000Y-87000000D03*
D13*
X80000000Y-130000000D03*
M02*
