%TF.GenerationSoftware,KiCad,Pcbnew,8.0.3*%
%TF.CreationDate,2024-06-29T17:49:58+02:00*%
%TF.ProjectId,DMH_Buffered_Mult_PCB,444d485f-4275-4666-9665-7265645f4d75,1*%
%TF.SameCoordinates,Original*%
%TF.FileFunction,Drillmap*%
%TF.FilePolarity,Positive*%
%FSLAX45Y45*%
G04 Gerber Fmt 4.5, Leading zero omitted, Abs format (unit mm)*
G04 Created by KiCad (PCBNEW 8.0.3) date 2024-06-29 17:49:58*
%MOMM*%
%LPD*%
G01*
G04 APERTURE LIST*
%ADD10C,0.050000*%
%ADD11C,0.200000*%
%ADD12C,0.100000*%
G04 APERTURE END LIST*
D10*
X2600000Y-3750000D02*
X7400000Y-3750000D01*
X7400000Y-21250000D01*
X2600000Y-21250000D01*
X2600000Y-3750000D01*
D11*
D12*
X3070000Y-10972740D02*
X3130000Y-11032740D01*
X3130000Y-10972740D02*
X3070000Y-11032740D01*
X3070000Y-11172740D02*
X3130000Y-11232740D01*
X3130000Y-11172740D02*
X3070000Y-11232740D01*
X3070000Y-13820000D02*
X3130000Y-13880000D01*
X3130000Y-13820000D02*
X3070000Y-13880000D01*
X3070000Y-14020000D02*
X3130000Y-14080000D01*
X3130000Y-14020000D02*
X3070000Y-14080000D01*
X2990000Y-4519000D02*
G75*
G02*
X2910000Y-4519000I-40000J0D01*
G01*
X2910000Y-4519000D02*
G75*
G02*
X2990000Y-4519000I40000J0D01*
G01*
X2990000Y-5281000D02*
G75*
G02*
X2910000Y-5281000I-40000J0D01*
G01*
X2910000Y-5281000D02*
G75*
G02*
X2990000Y-5281000I40000J0D01*
G01*
X2990000Y-6169000D02*
G75*
G02*
X2910000Y-6169000I-40000J0D01*
G01*
X2910000Y-6169000D02*
G75*
G02*
X2990000Y-6169000I40000J0D01*
G01*
X2990000Y-6931000D02*
G75*
G02*
X2910000Y-6931000I-40000J0D01*
G01*
X2910000Y-6931000D02*
G75*
G02*
X2990000Y-6931000I40000J0D01*
G01*
X2990000Y-7819000D02*
G75*
G02*
X2910000Y-7819000I-40000J0D01*
G01*
X2910000Y-7819000D02*
G75*
G02*
X2990000Y-7819000I40000J0D01*
G01*
X2990000Y-8581000D02*
G75*
G02*
X2910000Y-8581000I-40000J0D01*
G01*
X2910000Y-8581000D02*
G75*
G02*
X2990000Y-8581000I40000J0D01*
G01*
X2990000Y-9469000D02*
G75*
G02*
X2910000Y-9469000I-40000J0D01*
G01*
X2910000Y-9469000D02*
G75*
G02*
X2990000Y-9469000I40000J0D01*
G01*
X2990000Y-10231000D02*
G75*
G02*
X2910000Y-10231000I-40000J0D01*
G01*
X2910000Y-10231000D02*
G75*
G02*
X2990000Y-10231000I40000J0D01*
G01*
X2990000Y-14769000D02*
G75*
G02*
X2910000Y-14769000I-40000J0D01*
G01*
X2910000Y-14769000D02*
G75*
G02*
X2990000Y-14769000I40000J0D01*
G01*
X2990000Y-15531000D02*
G75*
G02*
X2910000Y-15531000I-40000J0D01*
G01*
X2910000Y-15531000D02*
G75*
G02*
X2990000Y-15531000I40000J0D01*
G01*
X2990000Y-16419000D02*
G75*
G02*
X2910000Y-16419000I-40000J0D01*
G01*
X2910000Y-16419000D02*
G75*
G02*
X2990000Y-16419000I40000J0D01*
G01*
X2990000Y-17181000D02*
G75*
G02*
X2910000Y-17181000I-40000J0D01*
G01*
X2910000Y-17181000D02*
G75*
G02*
X2990000Y-17181000I40000J0D01*
G01*
X2990000Y-18069000D02*
G75*
G02*
X2910000Y-18069000I-40000J0D01*
G01*
X2910000Y-18069000D02*
G75*
G02*
X2990000Y-18069000I40000J0D01*
G01*
X2990000Y-18831000D02*
G75*
G02*
X2910000Y-18831000I-40000J0D01*
G01*
X2910000Y-18831000D02*
G75*
G02*
X2990000Y-18831000I40000J0D01*
G01*
X2990000Y-19719000D02*
G75*
G02*
X2910000Y-19719000I-40000J0D01*
G01*
X2910000Y-19719000D02*
G75*
G02*
X2990000Y-19719000I40000J0D01*
G01*
X2990000Y-20481000D02*
G75*
G02*
X2910000Y-20481000I-40000J0D01*
G01*
X2910000Y-20481000D02*
G75*
G02*
X2990000Y-20481000I40000J0D01*
G01*
X3978000Y-11730000D02*
G75*
G02*
X3898000Y-11730000I-40000J0D01*
G01*
X3898000Y-11730000D02*
G75*
G02*
X3978000Y-11730000I40000J0D01*
G01*
X3978000Y-11984000D02*
G75*
G02*
X3898000Y-11984000I-40000J0D01*
G01*
X3898000Y-11984000D02*
G75*
G02*
X3978000Y-11984000I40000J0D01*
G01*
X3978000Y-12238000D02*
G75*
G02*
X3898000Y-12238000I-40000J0D01*
G01*
X3898000Y-12238000D02*
G75*
G02*
X3978000Y-12238000I40000J0D01*
G01*
X3978000Y-12492000D02*
G75*
G02*
X3898000Y-12492000I-40000J0D01*
G01*
X3898000Y-12492000D02*
G75*
G02*
X3978000Y-12492000I40000J0D01*
G01*
X3978000Y-12746000D02*
G75*
G02*
X3898000Y-12746000I-40000J0D01*
G01*
X3898000Y-12746000D02*
G75*
G02*
X3978000Y-12746000I40000J0D01*
G01*
X3978000Y-13000000D02*
G75*
G02*
X3898000Y-13000000I-40000J0D01*
G01*
X3898000Y-13000000D02*
G75*
G02*
X3978000Y-13000000I40000J0D01*
G01*
X3978000Y-13254000D02*
G75*
G02*
X3898000Y-13254000I-40000J0D01*
G01*
X3898000Y-13254000D02*
G75*
G02*
X3978000Y-13254000I40000J0D01*
G01*
X4110000Y-11440000D02*
G75*
G02*
X4030000Y-11440000I-40000J0D01*
G01*
X4030000Y-11440000D02*
G75*
G02*
X4110000Y-11440000I40000J0D01*
G01*
X4110000Y-13545000D02*
G75*
G02*
X4030000Y-13545000I-40000J0D01*
G01*
X4030000Y-13545000D02*
G75*
G02*
X4110000Y-13545000I40000J0D01*
G01*
X4610000Y-11440000D02*
G75*
G02*
X4530000Y-11440000I-40000J0D01*
G01*
X4530000Y-11440000D02*
G75*
G02*
X4610000Y-11440000I40000J0D01*
G01*
X4610000Y-13545000D02*
G75*
G02*
X4530000Y-13545000I-40000J0D01*
G01*
X4530000Y-13545000D02*
G75*
G02*
X4610000Y-13545000I40000J0D01*
G01*
X4740000Y-11730000D02*
G75*
G02*
X4660000Y-11730000I-40000J0D01*
G01*
X4660000Y-11730000D02*
G75*
G02*
X4740000Y-11730000I40000J0D01*
G01*
X4740000Y-11984000D02*
G75*
G02*
X4660000Y-11984000I-40000J0D01*
G01*
X4660000Y-11984000D02*
G75*
G02*
X4740000Y-11984000I40000J0D01*
G01*
X4740000Y-12238000D02*
G75*
G02*
X4660000Y-12238000I-40000J0D01*
G01*
X4660000Y-12238000D02*
G75*
G02*
X4740000Y-12238000I40000J0D01*
G01*
X4740000Y-12492000D02*
G75*
G02*
X4660000Y-12492000I-40000J0D01*
G01*
X4660000Y-12492000D02*
G75*
G02*
X4740000Y-12492000I40000J0D01*
G01*
X4740000Y-12746000D02*
G75*
G02*
X4660000Y-12746000I-40000J0D01*
G01*
X4660000Y-12746000D02*
G75*
G02*
X4740000Y-12746000I40000J0D01*
G01*
X4740000Y-13000000D02*
G75*
G02*
X4660000Y-13000000I-40000J0D01*
G01*
X4660000Y-13000000D02*
G75*
G02*
X4740000Y-13000000I40000J0D01*
G01*
X4740000Y-13254000D02*
G75*
G02*
X4660000Y-13254000I-40000J0D01*
G01*
X4660000Y-13254000D02*
G75*
G02*
X4740000Y-13254000I40000J0D01*
G01*
X5258000Y-11730000D02*
G75*
G02*
X5178000Y-11730000I-40000J0D01*
G01*
X5178000Y-11730000D02*
G75*
G02*
X5258000Y-11730000I40000J0D01*
G01*
X5258000Y-11984000D02*
G75*
G02*
X5178000Y-11984000I-40000J0D01*
G01*
X5178000Y-11984000D02*
G75*
G02*
X5258000Y-11984000I40000J0D01*
G01*
X5258000Y-12238000D02*
G75*
G02*
X5178000Y-12238000I-40000J0D01*
G01*
X5178000Y-12238000D02*
G75*
G02*
X5258000Y-12238000I40000J0D01*
G01*
X5258000Y-12492000D02*
G75*
G02*
X5178000Y-12492000I-40000J0D01*
G01*
X5178000Y-12492000D02*
G75*
G02*
X5258000Y-12492000I40000J0D01*
G01*
X5258000Y-12746000D02*
G75*
G02*
X5178000Y-12746000I-40000J0D01*
G01*
X5178000Y-12746000D02*
G75*
G02*
X5258000Y-12746000I40000J0D01*
G01*
X5258000Y-13000000D02*
G75*
G02*
X5178000Y-13000000I-40000J0D01*
G01*
X5178000Y-13000000D02*
G75*
G02*
X5258000Y-13000000I40000J0D01*
G01*
X5258000Y-13254000D02*
G75*
G02*
X5178000Y-13254000I-40000J0D01*
G01*
X5178000Y-13254000D02*
G75*
G02*
X5258000Y-13254000I40000J0D01*
G01*
X5390000Y-11440000D02*
G75*
G02*
X5310000Y-11440000I-40000J0D01*
G01*
X5310000Y-11440000D02*
G75*
G02*
X5390000Y-11440000I40000J0D01*
G01*
X5390000Y-13545000D02*
G75*
G02*
X5310000Y-13545000I-40000J0D01*
G01*
X5310000Y-13545000D02*
G75*
G02*
X5390000Y-13545000I40000J0D01*
G01*
X5890000Y-11440000D02*
G75*
G02*
X5810000Y-11440000I-40000J0D01*
G01*
X5810000Y-11440000D02*
G75*
G02*
X5890000Y-11440000I40000J0D01*
G01*
X5890000Y-13545000D02*
G75*
G02*
X5810000Y-13545000I-40000J0D01*
G01*
X5810000Y-13545000D02*
G75*
G02*
X5890000Y-13545000I40000J0D01*
G01*
X6020000Y-11730000D02*
G75*
G02*
X5940000Y-11730000I-40000J0D01*
G01*
X5940000Y-11730000D02*
G75*
G02*
X6020000Y-11730000I40000J0D01*
G01*
X6020000Y-11984000D02*
G75*
G02*
X5940000Y-11984000I-40000J0D01*
G01*
X5940000Y-11984000D02*
G75*
G02*
X6020000Y-11984000I40000J0D01*
G01*
X6020000Y-12238000D02*
G75*
G02*
X5940000Y-12238000I-40000J0D01*
G01*
X5940000Y-12238000D02*
G75*
G02*
X6020000Y-12238000I40000J0D01*
G01*
X6020000Y-12492000D02*
G75*
G02*
X5940000Y-12492000I-40000J0D01*
G01*
X5940000Y-12492000D02*
G75*
G02*
X6020000Y-12492000I40000J0D01*
G01*
X6020000Y-12746000D02*
G75*
G02*
X5940000Y-12746000I-40000J0D01*
G01*
X5940000Y-12746000D02*
G75*
G02*
X6020000Y-12746000I40000J0D01*
G01*
X6020000Y-13000000D02*
G75*
G02*
X5940000Y-13000000I-40000J0D01*
G01*
X5940000Y-13000000D02*
G75*
G02*
X6020000Y-13000000I40000J0D01*
G01*
X6020000Y-13254000D02*
G75*
G02*
X5940000Y-13254000I-40000J0D01*
G01*
X5940000Y-13254000D02*
G75*
G02*
X6020000Y-13254000I40000J0D01*
G01*
X6505000Y-11730000D02*
G75*
G02*
X6425000Y-11730000I-40000J0D01*
G01*
X6425000Y-11730000D02*
G75*
G02*
X6505000Y-11730000I40000J0D01*
G01*
X6505000Y-11984000D02*
G75*
G02*
X6425000Y-11984000I-40000J0D01*
G01*
X6425000Y-11984000D02*
G75*
G02*
X6505000Y-11984000I40000J0D01*
G01*
X6505000Y-12238000D02*
G75*
G02*
X6425000Y-12238000I-40000J0D01*
G01*
X6425000Y-12238000D02*
G75*
G02*
X6505000Y-12238000I40000J0D01*
G01*
X6505000Y-12492000D02*
G75*
G02*
X6425000Y-12492000I-40000J0D01*
G01*
X6425000Y-12492000D02*
G75*
G02*
X6505000Y-12492000I40000J0D01*
G01*
X6505000Y-12746000D02*
G75*
G02*
X6425000Y-12746000I-40000J0D01*
G01*
X6425000Y-12746000D02*
G75*
G02*
X6505000Y-12746000I40000J0D01*
G01*
X6505000Y-13000000D02*
G75*
G02*
X6425000Y-13000000I-40000J0D01*
G01*
X6425000Y-13000000D02*
G75*
G02*
X6505000Y-13000000I40000J0D01*
G01*
X6505000Y-13254000D02*
G75*
G02*
X6425000Y-13254000I-40000J0D01*
G01*
X6425000Y-13254000D02*
G75*
G02*
X6505000Y-13254000I40000J0D01*
G01*
X6640000Y-11440000D02*
G75*
G02*
X6560000Y-11440000I-40000J0D01*
G01*
X6560000Y-11440000D02*
G75*
G02*
X6640000Y-11440000I40000J0D01*
G01*
X6640000Y-13545000D02*
G75*
G02*
X6560000Y-13545000I-40000J0D01*
G01*
X6560000Y-13545000D02*
G75*
G02*
X6640000Y-13545000I40000J0D01*
G01*
X7090000Y-4519000D02*
G75*
G02*
X7010000Y-4519000I-40000J0D01*
G01*
X7010000Y-4519000D02*
G75*
G02*
X7090000Y-4519000I40000J0D01*
G01*
X7090000Y-5281000D02*
G75*
G02*
X7010000Y-5281000I-40000J0D01*
G01*
X7010000Y-5281000D02*
G75*
G02*
X7090000Y-5281000I40000J0D01*
G01*
X7090000Y-6169000D02*
G75*
G02*
X7010000Y-6169000I-40000J0D01*
G01*
X7010000Y-6169000D02*
G75*
G02*
X7090000Y-6169000I40000J0D01*
G01*
X7090000Y-6931000D02*
G75*
G02*
X7010000Y-6931000I-40000J0D01*
G01*
X7010000Y-6931000D02*
G75*
G02*
X7090000Y-6931000I40000J0D01*
G01*
X7090000Y-7819000D02*
G75*
G02*
X7010000Y-7819000I-40000J0D01*
G01*
X7010000Y-7819000D02*
G75*
G02*
X7090000Y-7819000I40000J0D01*
G01*
X7090000Y-8581000D02*
G75*
G02*
X7010000Y-8581000I-40000J0D01*
G01*
X7010000Y-8581000D02*
G75*
G02*
X7090000Y-8581000I40000J0D01*
G01*
X7090000Y-9469000D02*
G75*
G02*
X7010000Y-9469000I-40000J0D01*
G01*
X7010000Y-9469000D02*
G75*
G02*
X7090000Y-9469000I40000J0D01*
G01*
X7090000Y-10231000D02*
G75*
G02*
X7010000Y-10231000I-40000J0D01*
G01*
X7010000Y-10231000D02*
G75*
G02*
X7090000Y-10231000I40000J0D01*
G01*
X7090000Y-14769000D02*
G75*
G02*
X7010000Y-14769000I-40000J0D01*
G01*
X7010000Y-14769000D02*
G75*
G02*
X7090000Y-14769000I40000J0D01*
G01*
X7090000Y-15531000D02*
G75*
G02*
X7010000Y-15531000I-40000J0D01*
G01*
X7010000Y-15531000D02*
G75*
G02*
X7090000Y-15531000I40000J0D01*
G01*
X7090000Y-16419000D02*
G75*
G02*
X7010000Y-16419000I-40000J0D01*
G01*
X7010000Y-16419000D02*
G75*
G02*
X7090000Y-16419000I40000J0D01*
G01*
X7090000Y-17181000D02*
G75*
G02*
X7010000Y-17181000I-40000J0D01*
G01*
X7010000Y-17181000D02*
G75*
G02*
X7090000Y-17181000I40000J0D01*
G01*
X7090000Y-18069000D02*
G75*
G02*
X7010000Y-18069000I-40000J0D01*
G01*
X7010000Y-18069000D02*
G75*
G02*
X7090000Y-18069000I40000J0D01*
G01*
X7090000Y-18831000D02*
G75*
G02*
X7010000Y-18831000I-40000J0D01*
G01*
X7010000Y-18831000D02*
G75*
G02*
X7090000Y-18831000I40000J0D01*
G01*
X7090000Y-19719000D02*
G75*
G02*
X7010000Y-19719000I-40000J0D01*
G01*
X7010000Y-19719000D02*
G75*
G02*
X7090000Y-19719000I40000J0D01*
G01*
X7090000Y-20481000D02*
G75*
G02*
X7010000Y-20481000I-40000J0D01*
G01*
X7010000Y-20481000D02*
G75*
G02*
X7090000Y-20481000I40000J0D01*
G01*
X7140000Y-11440000D02*
G75*
G02*
X7060000Y-11440000I-40000J0D01*
G01*
X7060000Y-11440000D02*
G75*
G02*
X7140000Y-11440000I40000J0D01*
G01*
X7140000Y-13545000D02*
G75*
G02*
X7060000Y-13545000I-40000J0D01*
G01*
X7060000Y-13545000D02*
G75*
G02*
X7140000Y-13545000I40000J0D01*
G01*
X7267000Y-11730000D02*
G75*
G02*
X7187000Y-11730000I-40000J0D01*
G01*
X7187000Y-11730000D02*
G75*
G02*
X7267000Y-11730000I40000J0D01*
G01*
X7267000Y-11984000D02*
G75*
G02*
X7187000Y-11984000I-40000J0D01*
G01*
X7187000Y-11984000D02*
G75*
G02*
X7267000Y-11984000I40000J0D01*
G01*
X7267000Y-12238000D02*
G75*
G02*
X7187000Y-12238000I-40000J0D01*
G01*
X7187000Y-12238000D02*
G75*
G02*
X7267000Y-12238000I40000J0D01*
G01*
X7267000Y-12492000D02*
G75*
G02*
X7187000Y-12492000I-40000J0D01*
G01*
X7187000Y-12492000D02*
G75*
G02*
X7267000Y-12492000I40000J0D01*
G01*
X7267000Y-12746000D02*
G75*
G02*
X7187000Y-12746000I-40000J0D01*
G01*
X7187000Y-12746000D02*
G75*
G02*
X7267000Y-12746000I40000J0D01*
G01*
X7267000Y-13000000D02*
G75*
G02*
X7187000Y-13000000I-40000J0D01*
G01*
X7187000Y-13000000D02*
G75*
G02*
X7267000Y-13000000I40000J0D01*
G01*
X7267000Y-13254000D02*
G75*
G02*
X7187000Y-13254000I-40000J0D01*
G01*
X7187000Y-13254000D02*
G75*
G02*
X7267000Y-13254000I40000J0D01*
G01*
X2902283Y-10502283D02*
X2902283Y-10602283D01*
X2852283Y-10552283D02*
X2952283Y-10552283D01*
X2996000Y-11950000D02*
X2996000Y-12050000D01*
X2946000Y-12000000D02*
X3046000Y-12000000D01*
X2996000Y-12204000D02*
X2996000Y-12304000D01*
X2946000Y-12254000D02*
X3046000Y-12254000D01*
X2996000Y-12458000D02*
X2996000Y-12558000D01*
X2946000Y-12508000D02*
X3046000Y-12508000D01*
X2996000Y-12712000D02*
X2996000Y-12812000D01*
X2946000Y-12762000D02*
X3046000Y-12762000D01*
X2996000Y-12966000D02*
X2996000Y-13066000D01*
X2946000Y-13016000D02*
X3046000Y-13016000D01*
X3250000Y-11950000D02*
X3250000Y-12050000D01*
X3200000Y-12000000D02*
X3300000Y-12000000D01*
X3250000Y-12204000D02*
X3250000Y-12304000D01*
X3200000Y-12254000D02*
X3300000Y-12254000D01*
X3250000Y-12458000D02*
X3250000Y-12558000D01*
X3200000Y-12508000D02*
X3300000Y-12508000D01*
X3250000Y-12712000D02*
X3250000Y-12812000D01*
X3200000Y-12762000D02*
X3300000Y-12762000D01*
X3250000Y-12966000D02*
X3250000Y-13066000D01*
X3200000Y-13016000D02*
X3300000Y-13016000D01*
X3540381Y-4390381D02*
X3540381Y-4490381D01*
X3490381Y-4440381D02*
X3590381Y-4440381D01*
X3558059Y-4351993D02*
X3451993Y-4458059D01*
X3522703Y-4528769D02*
G75*
G02*
X3451993Y-4458059I-35355J35355D01*
G01*
X3522703Y-4528769D02*
X3628769Y-4422703D01*
X3628769Y-4422703D02*
G75*
G03*
X3558059Y-4351993I-35355J35355D01*
G01*
X3540381Y-6040381D02*
X3540381Y-6140381D01*
X3490381Y-6090381D02*
X3590381Y-6090381D01*
X3558059Y-6001993D02*
X3451993Y-6108059D01*
X3522703Y-6178769D02*
G75*
G02*
X3451993Y-6108059I-35355J35355D01*
G01*
X3522703Y-6178769D02*
X3628769Y-6072703D01*
X3628769Y-6072703D02*
G75*
G03*
X3558059Y-6001993I-35355J35355D01*
G01*
X3540381Y-9340381D02*
X3540381Y-9440381D01*
X3490381Y-9390381D02*
X3590381Y-9390381D01*
X3558059Y-9301993D02*
X3451993Y-9408059D01*
X3522703Y-9478769D02*
G75*
G02*
X3451993Y-9408059I-35355J35355D01*
G01*
X3522703Y-9478769D02*
X3628769Y-9372703D01*
X3628769Y-9372703D02*
G75*
G03*
X3558059Y-9301993I-35355J35355D01*
G01*
X3540381Y-14640381D02*
X3540381Y-14740381D01*
X3490381Y-14690381D02*
X3590381Y-14690381D01*
X3558059Y-14601993D02*
X3451993Y-14708059D01*
X3522703Y-14778769D02*
G75*
G02*
X3451993Y-14708059I-35355J35355D01*
G01*
X3522703Y-14778769D02*
X3628769Y-14672703D01*
X3628769Y-14672703D02*
G75*
G03*
X3558059Y-14601993I-35355J35355D01*
G01*
X3540381Y-17940381D02*
X3540381Y-18040381D01*
X3490381Y-17990381D02*
X3590381Y-17990381D01*
X3558059Y-17901993D02*
X3451993Y-18008059D01*
X3522703Y-18078769D02*
G75*
G02*
X3451993Y-18008059I-35355J35355D01*
G01*
X3522703Y-18078769D02*
X3628769Y-17972703D01*
X3628769Y-17972703D02*
G75*
G03*
X3558059Y-17901993I-35355J35355D01*
G01*
X3540381Y-19590381D02*
X3540381Y-19690381D01*
X3490381Y-19640381D02*
X3590381Y-19640381D01*
X3558059Y-19551993D02*
X3451993Y-19658059D01*
X3522703Y-19728769D02*
G75*
G02*
X3451993Y-19658059I-35355J35355D01*
G01*
X3522703Y-19728769D02*
X3628769Y-19622703D01*
X3628769Y-19622703D02*
G75*
G03*
X3558059Y-19551993I-35355J35355D01*
G01*
X3541631Y-7690381D02*
X3541631Y-7790381D01*
X3491631Y-7740381D02*
X3591631Y-7740381D01*
X3559309Y-7651993D02*
X3453243Y-7758059D01*
X3523953Y-7828769D02*
G75*
G02*
X3453243Y-7758059I-35355J35355D01*
G01*
X3523953Y-7828769D02*
X3630019Y-7722703D01*
X3630019Y-7722703D02*
G75*
G03*
X3559309Y-7651993I-35355J35355D01*
G01*
X3541631Y-16290381D02*
X3541631Y-16390381D01*
X3491631Y-16340381D02*
X3591631Y-16340381D01*
X3559309Y-16251993D02*
X3453243Y-16358059D01*
X3523953Y-16428769D02*
G75*
G02*
X3453243Y-16358059I-35355J35355D01*
G01*
X3523953Y-16428769D02*
X3630019Y-16322703D01*
X3630019Y-16322703D02*
G75*
G03*
X3559309Y-16251993I-35355J35355D01*
G01*
X4250000Y-4200000D02*
X4250000Y-4300000D01*
X4200000Y-4250000D02*
X4300000Y-4250000D01*
X4175000Y-4300000D02*
X4325000Y-4300000D01*
X4325000Y-4200000D02*
G75*
G02*
X4325000Y-4300000I0J-50000D01*
G01*
X4325000Y-4200000D02*
X4175000Y-4200000D01*
X4175000Y-4200000D02*
G75*
G03*
X4175000Y-4300000I0J-50000D01*
G01*
X4250000Y-5850000D02*
X4250000Y-5950000D01*
X4200000Y-5900000D02*
X4300000Y-5900000D01*
X4175000Y-5950000D02*
X4325000Y-5950000D01*
X4325000Y-5850000D02*
G75*
G02*
X4325000Y-5950000I0J-50000D01*
G01*
X4325000Y-5850000D02*
X4175000Y-5850000D01*
X4175000Y-5850000D02*
G75*
G03*
X4175000Y-5950000I0J-50000D01*
G01*
X4250000Y-9150000D02*
X4250000Y-9250000D01*
X4200000Y-9200000D02*
X4300000Y-9200000D01*
X4175000Y-9250000D02*
X4325000Y-9250000D01*
X4325000Y-9150000D02*
G75*
G02*
X4325000Y-9250000I0J-50000D01*
G01*
X4325000Y-9150000D02*
X4175000Y-9150000D01*
X4175000Y-9150000D02*
G75*
G03*
X4175000Y-9250000I0J-50000D01*
G01*
X4250000Y-14450000D02*
X4250000Y-14550000D01*
X4200000Y-14500000D02*
X4300000Y-14500000D01*
X4175000Y-14550000D02*
X4325000Y-14550000D01*
X4325000Y-14450000D02*
G75*
G02*
X4325000Y-14550000I0J-50000D01*
G01*
X4325000Y-14450000D02*
X4175000Y-14450000D01*
X4175000Y-14450000D02*
G75*
G03*
X4175000Y-14550000I0J-50000D01*
G01*
X4250000Y-17750000D02*
X4250000Y-17850000D01*
X4200000Y-17800000D02*
X4300000Y-17800000D01*
X4175000Y-17850000D02*
X4325000Y-17850000D01*
X4325000Y-17750000D02*
G75*
G02*
X4325000Y-17850000I0J-50000D01*
G01*
X4325000Y-17750000D02*
X4175000Y-17750000D01*
X4175000Y-17750000D02*
G75*
G03*
X4175000Y-17850000I0J-50000D01*
G01*
X4250000Y-19400000D02*
X4250000Y-19500000D01*
X4200000Y-19450000D02*
X4300000Y-19450000D01*
X4175000Y-19500000D02*
X4325000Y-19500000D01*
X4325000Y-19400000D02*
G75*
G02*
X4325000Y-19500000I0J-50000D01*
G01*
X4325000Y-19400000D02*
X4175000Y-19400000D01*
X4175000Y-19400000D02*
G75*
G03*
X4175000Y-19500000I0J-50000D01*
G01*
X4251250Y-7500000D02*
X4251250Y-7600000D01*
X4201250Y-7550000D02*
X4301250Y-7550000D01*
X4176250Y-7600000D02*
X4326250Y-7600000D01*
X4326250Y-7500000D02*
G75*
G02*
X4326250Y-7600000I0J-50000D01*
G01*
X4326250Y-7500000D02*
X4176250Y-7500000D01*
X4176250Y-7500000D02*
G75*
G03*
X4176250Y-7600000I0J-50000D01*
G01*
X4251250Y-16100000D02*
X4251250Y-16200000D01*
X4201250Y-16150000D02*
X4301250Y-16150000D01*
X4176250Y-16200000D02*
X4326250Y-16200000D01*
X4326250Y-16100000D02*
G75*
G02*
X4326250Y-16200000I0J-50000D01*
G01*
X4326250Y-16100000D02*
X4176250Y-16100000D01*
X4176250Y-16100000D02*
G75*
G03*
X4176250Y-16200000I0J-50000D01*
G01*
X4650000Y-4800000D02*
X4650000Y-4900000D01*
X4600000Y-4850000D02*
X4700000Y-4850000D01*
X4600000Y-4775000D02*
X4600000Y-4925000D01*
X4700000Y-4925000D02*
G75*
G02*
X4600000Y-4925000I-50000J0D01*
G01*
X4700000Y-4925000D02*
X4700000Y-4775000D01*
X4700000Y-4775000D02*
G75*
G03*
X4600000Y-4775000I-50000J0D01*
G01*
X4650000Y-6450000D02*
X4650000Y-6550000D01*
X4600000Y-6500000D02*
X4700000Y-6500000D01*
X4600000Y-6425000D02*
X4600000Y-6575000D01*
X4700000Y-6575000D02*
G75*
G02*
X4600000Y-6575000I-50000J0D01*
G01*
X4700000Y-6575000D02*
X4700000Y-6425000D01*
X4700000Y-6425000D02*
G75*
G03*
X4600000Y-6425000I-50000J0D01*
G01*
X4650000Y-9750000D02*
X4650000Y-9850000D01*
X4600000Y-9800000D02*
X4700000Y-9800000D01*
X4600000Y-9725000D02*
X4600000Y-9875000D01*
X4700000Y-9875000D02*
G75*
G02*
X4600000Y-9875000I-50000J0D01*
G01*
X4700000Y-9875000D02*
X4700000Y-9725000D01*
X4700000Y-9725000D02*
G75*
G03*
X4600000Y-9725000I-50000J0D01*
G01*
X4650000Y-15050000D02*
X4650000Y-15150000D01*
X4600000Y-15100000D02*
X4700000Y-15100000D01*
X4600000Y-15025000D02*
X4600000Y-15175000D01*
X4700000Y-15175000D02*
G75*
G02*
X4600000Y-15175000I-50000J0D01*
G01*
X4700000Y-15175000D02*
X4700000Y-15025000D01*
X4700000Y-15025000D02*
G75*
G03*
X4600000Y-15025000I-50000J0D01*
G01*
X4650000Y-18350000D02*
X4650000Y-18450000D01*
X4600000Y-18400000D02*
X4700000Y-18400000D01*
X4600000Y-18325000D02*
X4600000Y-18475000D01*
X4700000Y-18475000D02*
G75*
G02*
X4600000Y-18475000I-50000J0D01*
G01*
X4700000Y-18475000D02*
X4700000Y-18325000D01*
X4700000Y-18325000D02*
G75*
G03*
X4600000Y-18325000I-50000J0D01*
G01*
X4650000Y-20000000D02*
X4650000Y-20100000D01*
X4600000Y-20050000D02*
X4700000Y-20050000D01*
X4600000Y-19975000D02*
X4600000Y-20125000D01*
X4700000Y-20125000D02*
G75*
G02*
X4600000Y-20125000I-50000J0D01*
G01*
X4700000Y-20125000D02*
X4700000Y-19975000D01*
X4700000Y-19975000D02*
G75*
G03*
X4600000Y-19975000I-50000J0D01*
G01*
X4651250Y-8100000D02*
X4651250Y-8200000D01*
X4601250Y-8150000D02*
X4701250Y-8150000D01*
X4601250Y-8075000D02*
X4601250Y-8225000D01*
X4701250Y-8225000D02*
G75*
G02*
X4601250Y-8225000I-50000J0D01*
G01*
X4701250Y-8225000D02*
X4701250Y-8075000D01*
X4701250Y-8075000D02*
G75*
G03*
X4601250Y-8075000I-50000J0D01*
G01*
X4651250Y-16700000D02*
X4651250Y-16800000D01*
X4601250Y-16750000D02*
X4701250Y-16750000D01*
X4601250Y-16675000D02*
X4601250Y-16825000D01*
X4701250Y-16825000D02*
G75*
G02*
X4601250Y-16825000I-50000J0D01*
G01*
X4701250Y-16825000D02*
X4701250Y-16675000D01*
X4701250Y-16675000D02*
G75*
G03*
X4601250Y-16675000I-50000J0D01*
G01*
X5540381Y-4390381D02*
X5540381Y-4490381D01*
X5490381Y-4440381D02*
X5590381Y-4440381D01*
X5558059Y-4351993D02*
X5451993Y-4458059D01*
X5522703Y-4528769D02*
G75*
G02*
X5451993Y-4458059I-35355J35355D01*
G01*
X5522703Y-4528769D02*
X5628769Y-4422703D01*
X5628769Y-4422703D02*
G75*
G03*
X5558059Y-4351993I-35355J35355D01*
G01*
X5540381Y-6040381D02*
X5540381Y-6140381D01*
X5490381Y-6090381D02*
X5590381Y-6090381D01*
X5558059Y-6001993D02*
X5451993Y-6108059D01*
X5522703Y-6178769D02*
G75*
G02*
X5451993Y-6108059I-35355J35355D01*
G01*
X5522703Y-6178769D02*
X5628769Y-6072703D01*
X5628769Y-6072703D02*
G75*
G03*
X5558059Y-6001993I-35355J35355D01*
G01*
X5540381Y-7690381D02*
X5540381Y-7790381D01*
X5490381Y-7740381D02*
X5590381Y-7740381D01*
X5558059Y-7651993D02*
X5451993Y-7758059D01*
X5522703Y-7828769D02*
G75*
G02*
X5451993Y-7758059I-35355J35355D01*
G01*
X5522703Y-7828769D02*
X5628769Y-7722703D01*
X5628769Y-7722703D02*
G75*
G03*
X5558059Y-7651993I-35355J35355D01*
G01*
X5540381Y-9340381D02*
X5540381Y-9440381D01*
X5490381Y-9390381D02*
X5590381Y-9390381D01*
X5558059Y-9301993D02*
X5451993Y-9408059D01*
X5522703Y-9478769D02*
G75*
G02*
X5451993Y-9408059I-35355J35355D01*
G01*
X5522703Y-9478769D02*
X5628769Y-9372703D01*
X5628769Y-9372703D02*
G75*
G03*
X5558059Y-9301993I-35355J35355D01*
G01*
X5540381Y-14640381D02*
X5540381Y-14740381D01*
X5490381Y-14690381D02*
X5590381Y-14690381D01*
X5558059Y-14601993D02*
X5451993Y-14708059D01*
X5522703Y-14778769D02*
G75*
G02*
X5451993Y-14708059I-35355J35355D01*
G01*
X5522703Y-14778769D02*
X5628769Y-14672703D01*
X5628769Y-14672703D02*
G75*
G03*
X5558059Y-14601993I-35355J35355D01*
G01*
X5540381Y-16290381D02*
X5540381Y-16390381D01*
X5490381Y-16340381D02*
X5590381Y-16340381D01*
X5558059Y-16251993D02*
X5451993Y-16358059D01*
X5522703Y-16428769D02*
G75*
G02*
X5451993Y-16358059I-35355J35355D01*
G01*
X5522703Y-16428769D02*
X5628769Y-16322703D01*
X5628769Y-16322703D02*
G75*
G03*
X5558059Y-16251993I-35355J35355D01*
G01*
X5540381Y-17940381D02*
X5540381Y-18040381D01*
X5490381Y-17990381D02*
X5590381Y-17990381D01*
X5558059Y-17901993D02*
X5451993Y-18008059D01*
X5522703Y-18078769D02*
G75*
G02*
X5451993Y-18008059I-35355J35355D01*
G01*
X5522703Y-18078769D02*
X5628769Y-17972703D01*
X5628769Y-17972703D02*
G75*
G03*
X5558059Y-17901993I-35355J35355D01*
G01*
X5540381Y-19590381D02*
X5540381Y-19690381D01*
X5490381Y-19640381D02*
X5590381Y-19640381D01*
X5558059Y-19551993D02*
X5451993Y-19658059D01*
X5522703Y-19728769D02*
G75*
G02*
X5451993Y-19658059I-35355J35355D01*
G01*
X5522703Y-19728769D02*
X5628769Y-19622703D01*
X5628769Y-19622703D02*
G75*
G03*
X5558059Y-19551993I-35355J35355D01*
G01*
X6250000Y-4200000D02*
X6250000Y-4300000D01*
X6200000Y-4250000D02*
X6300000Y-4250000D01*
X6175000Y-4300000D02*
X6325000Y-4300000D01*
X6325000Y-4200000D02*
G75*
G02*
X6325000Y-4300000I0J-50000D01*
G01*
X6325000Y-4200000D02*
X6175000Y-4200000D01*
X6175000Y-4200000D02*
G75*
G03*
X6175000Y-4300000I0J-50000D01*
G01*
X6250000Y-5850000D02*
X6250000Y-5950000D01*
X6200000Y-5900000D02*
X6300000Y-5900000D01*
X6175000Y-5950000D02*
X6325000Y-5950000D01*
X6325000Y-5850000D02*
G75*
G02*
X6325000Y-5950000I0J-50000D01*
G01*
X6325000Y-5850000D02*
X6175000Y-5850000D01*
X6175000Y-5850000D02*
G75*
G03*
X6175000Y-5950000I0J-50000D01*
G01*
X6250000Y-7500000D02*
X6250000Y-7600000D01*
X6200000Y-7550000D02*
X6300000Y-7550000D01*
X6175000Y-7600000D02*
X6325000Y-7600000D01*
X6325000Y-7500000D02*
G75*
G02*
X6325000Y-7600000I0J-50000D01*
G01*
X6325000Y-7500000D02*
X6175000Y-7500000D01*
X6175000Y-7500000D02*
G75*
G03*
X6175000Y-7600000I0J-50000D01*
G01*
X6250000Y-9150000D02*
X6250000Y-9250000D01*
X6200000Y-9200000D02*
X6300000Y-9200000D01*
X6175000Y-9250000D02*
X6325000Y-9250000D01*
X6325000Y-9150000D02*
G75*
G02*
X6325000Y-9250000I0J-50000D01*
G01*
X6325000Y-9150000D02*
X6175000Y-9150000D01*
X6175000Y-9150000D02*
G75*
G03*
X6175000Y-9250000I0J-50000D01*
G01*
X6250000Y-14450000D02*
X6250000Y-14550000D01*
X6200000Y-14500000D02*
X6300000Y-14500000D01*
X6175000Y-14550000D02*
X6325000Y-14550000D01*
X6325000Y-14450000D02*
G75*
G02*
X6325000Y-14550000I0J-50000D01*
G01*
X6325000Y-14450000D02*
X6175000Y-14450000D01*
X6175000Y-14450000D02*
G75*
G03*
X6175000Y-14550000I0J-50000D01*
G01*
X6250000Y-16100000D02*
X6250000Y-16200000D01*
X6200000Y-16150000D02*
X6300000Y-16150000D01*
X6175000Y-16200000D02*
X6325000Y-16200000D01*
X6325000Y-16100000D02*
G75*
G02*
X6325000Y-16200000I0J-50000D01*
G01*
X6325000Y-16100000D02*
X6175000Y-16100000D01*
X6175000Y-16100000D02*
G75*
G03*
X6175000Y-16200000I0J-50000D01*
G01*
X6250000Y-17750000D02*
X6250000Y-17850000D01*
X6200000Y-17800000D02*
X6300000Y-17800000D01*
X6175000Y-17850000D02*
X6325000Y-17850000D01*
X6325000Y-17750000D02*
G75*
G02*
X6325000Y-17850000I0J-50000D01*
G01*
X6325000Y-17750000D02*
X6175000Y-17750000D01*
X6175000Y-17750000D02*
G75*
G03*
X6175000Y-17850000I0J-50000D01*
G01*
X6250000Y-19400000D02*
X6250000Y-19500000D01*
X6200000Y-19450000D02*
X6300000Y-19450000D01*
X6175000Y-19500000D02*
X6325000Y-19500000D01*
X6325000Y-19400000D02*
G75*
G02*
X6325000Y-19500000I0J-50000D01*
G01*
X6325000Y-19400000D02*
X6175000Y-19400000D01*
X6175000Y-19400000D02*
G75*
G03*
X6175000Y-19500000I0J-50000D01*
G01*
X6650000Y-4800000D02*
X6650000Y-4900000D01*
X6600000Y-4850000D02*
X6700000Y-4850000D01*
X6600000Y-4775000D02*
X6600000Y-4925000D01*
X6700000Y-4925000D02*
G75*
G02*
X6600000Y-4925000I-50000J0D01*
G01*
X6700000Y-4925000D02*
X6700000Y-4775000D01*
X6700000Y-4775000D02*
G75*
G03*
X6600000Y-4775000I-50000J0D01*
G01*
X6650000Y-6450000D02*
X6650000Y-6550000D01*
X6600000Y-6500000D02*
X6700000Y-6500000D01*
X6600000Y-6425000D02*
X6600000Y-6575000D01*
X6700000Y-6575000D02*
G75*
G02*
X6600000Y-6575000I-50000J0D01*
G01*
X6700000Y-6575000D02*
X6700000Y-6425000D01*
X6700000Y-6425000D02*
G75*
G03*
X6600000Y-6425000I-50000J0D01*
G01*
X6650000Y-8100000D02*
X6650000Y-8200000D01*
X6600000Y-8150000D02*
X6700000Y-8150000D01*
X6600000Y-8075000D02*
X6600000Y-8225000D01*
X6700000Y-8225000D02*
G75*
G02*
X6600000Y-8225000I-50000J0D01*
G01*
X6700000Y-8225000D02*
X6700000Y-8075000D01*
X6700000Y-8075000D02*
G75*
G03*
X6600000Y-8075000I-50000J0D01*
G01*
X6650000Y-9750000D02*
X6650000Y-9850000D01*
X6600000Y-9800000D02*
X6700000Y-9800000D01*
X6600000Y-9725000D02*
X6600000Y-9875000D01*
X6700000Y-9875000D02*
G75*
G02*
X6600000Y-9875000I-50000J0D01*
G01*
X6700000Y-9875000D02*
X6700000Y-9725000D01*
X6700000Y-9725000D02*
G75*
G03*
X6600000Y-9725000I-50000J0D01*
G01*
X6650000Y-15050000D02*
X6650000Y-15150000D01*
X6600000Y-15100000D02*
X6700000Y-15100000D01*
X6600000Y-15025000D02*
X6600000Y-15175000D01*
X6700000Y-15175000D02*
G75*
G02*
X6600000Y-15175000I-50000J0D01*
G01*
X6700000Y-15175000D02*
X6700000Y-15025000D01*
X6700000Y-15025000D02*
G75*
G03*
X6600000Y-15025000I-50000J0D01*
G01*
X6650000Y-16700000D02*
X6650000Y-16800000D01*
X6600000Y-16750000D02*
X6700000Y-16750000D01*
X6600000Y-16675000D02*
X6600000Y-16825000D01*
X6700000Y-16825000D02*
G75*
G02*
X6600000Y-16825000I-50000J0D01*
G01*
X6700000Y-16825000D02*
X6700000Y-16675000D01*
X6700000Y-16675000D02*
G75*
G03*
X6600000Y-16675000I-50000J0D01*
G01*
X6650000Y-18350000D02*
X6650000Y-18450000D01*
X6600000Y-18400000D02*
X6700000Y-18400000D01*
X6600000Y-18325000D02*
X6600000Y-18475000D01*
X6700000Y-18475000D02*
G75*
G02*
X6600000Y-18475000I-50000J0D01*
G01*
X6700000Y-18475000D02*
X6700000Y-18325000D01*
X6700000Y-18325000D02*
G75*
G03*
X6600000Y-18325000I-50000J0D01*
G01*
X6650000Y-20000000D02*
X6650000Y-20100000D01*
X6600000Y-20050000D02*
X6700000Y-20050000D01*
X6600000Y-19975000D02*
X6600000Y-20125000D01*
X6700000Y-20125000D02*
G75*
G02*
X6600000Y-20125000I-50000J0D01*
G01*
X6700000Y-20125000D02*
X6700000Y-19975000D01*
X6700000Y-19975000D02*
G75*
G03*
X6600000Y-19975000I-50000J0D01*
G01*
D11*
X2858277Y-21563984D02*
X2858277Y-21363984D01*
X2858277Y-21363984D02*
X2905896Y-21363984D01*
X2905896Y-21363984D02*
X2934467Y-21373508D01*
X2934467Y-21373508D02*
X2953515Y-21392555D01*
X2953515Y-21392555D02*
X2963039Y-21411603D01*
X2963039Y-21411603D02*
X2972562Y-21449698D01*
X2972562Y-21449698D02*
X2972562Y-21478270D01*
X2972562Y-21478270D02*
X2963039Y-21516365D01*
X2963039Y-21516365D02*
X2953515Y-21535412D01*
X2953515Y-21535412D02*
X2934467Y-21554460D01*
X2934467Y-21554460D02*
X2905896Y-21563984D01*
X2905896Y-21563984D02*
X2858277Y-21563984D01*
X3058277Y-21563984D02*
X3058277Y-21430650D01*
X3058277Y-21468746D02*
X3067801Y-21449698D01*
X3067801Y-21449698D02*
X3077324Y-21440174D01*
X3077324Y-21440174D02*
X3096372Y-21430650D01*
X3096372Y-21430650D02*
X3115420Y-21430650D01*
X3182086Y-21563984D02*
X3182086Y-21430650D01*
X3182086Y-21363984D02*
X3172562Y-21373508D01*
X3172562Y-21373508D02*
X3182086Y-21383031D01*
X3182086Y-21383031D02*
X3191610Y-21373508D01*
X3191610Y-21373508D02*
X3182086Y-21363984D01*
X3182086Y-21363984D02*
X3182086Y-21383031D01*
X3305896Y-21563984D02*
X3286848Y-21554460D01*
X3286848Y-21554460D02*
X3277324Y-21535412D01*
X3277324Y-21535412D02*
X3277324Y-21363984D01*
X3410658Y-21563984D02*
X3391610Y-21554460D01*
X3391610Y-21554460D02*
X3382086Y-21535412D01*
X3382086Y-21535412D02*
X3382086Y-21363984D01*
X3639229Y-21563984D02*
X3639229Y-21363984D01*
X3639229Y-21363984D02*
X3705896Y-21506841D01*
X3705896Y-21506841D02*
X3772562Y-21363984D01*
X3772562Y-21363984D02*
X3772562Y-21563984D01*
X3953515Y-21563984D02*
X3953515Y-21459222D01*
X3953515Y-21459222D02*
X3943991Y-21440174D01*
X3943991Y-21440174D02*
X3924943Y-21430650D01*
X3924943Y-21430650D02*
X3886848Y-21430650D01*
X3886848Y-21430650D02*
X3867801Y-21440174D01*
X3953515Y-21554460D02*
X3934467Y-21563984D01*
X3934467Y-21563984D02*
X3886848Y-21563984D01*
X3886848Y-21563984D02*
X3867801Y-21554460D01*
X3867801Y-21554460D02*
X3858277Y-21535412D01*
X3858277Y-21535412D02*
X3858277Y-21516365D01*
X3858277Y-21516365D02*
X3867801Y-21497317D01*
X3867801Y-21497317D02*
X3886848Y-21487793D01*
X3886848Y-21487793D02*
X3934467Y-21487793D01*
X3934467Y-21487793D02*
X3953515Y-21478270D01*
X4048753Y-21430650D02*
X4048753Y-21630650D01*
X4048753Y-21440174D02*
X4067801Y-21430650D01*
X4067801Y-21430650D02*
X4105896Y-21430650D01*
X4105896Y-21430650D02*
X4124943Y-21440174D01*
X4124943Y-21440174D02*
X4134467Y-21449698D01*
X4134467Y-21449698D02*
X4143991Y-21468746D01*
X4143991Y-21468746D02*
X4143991Y-21525889D01*
X4143991Y-21525889D02*
X4134467Y-21544936D01*
X4134467Y-21544936D02*
X4124943Y-21554460D01*
X4124943Y-21554460D02*
X4105896Y-21563984D01*
X4105896Y-21563984D02*
X4067801Y-21563984D01*
X4067801Y-21563984D02*
X4048753Y-21554460D01*
X4229705Y-21544936D02*
X4239229Y-21554460D01*
X4239229Y-21554460D02*
X4229705Y-21563984D01*
X4229705Y-21563984D02*
X4220182Y-21554460D01*
X4220182Y-21554460D02*
X4229705Y-21544936D01*
X4229705Y-21544936D02*
X4229705Y-21563984D01*
X4229705Y-21440174D02*
X4239229Y-21449698D01*
X4239229Y-21449698D02*
X4229705Y-21459222D01*
X4229705Y-21459222D02*
X4220182Y-21449698D01*
X4220182Y-21449698D02*
X4229705Y-21440174D01*
X4229705Y-21440174D02*
X4229705Y-21459222D01*
D12*
X2537500Y-21862500D02*
X2597500Y-21922500D01*
X2597500Y-21862500D02*
X2537500Y-21922500D01*
D11*
X2896372Y-21783984D02*
X2915420Y-21783984D01*
X2915420Y-21783984D02*
X2934467Y-21793508D01*
X2934467Y-21793508D02*
X2943991Y-21803031D01*
X2943991Y-21803031D02*
X2953515Y-21822079D01*
X2953515Y-21822079D02*
X2963039Y-21860174D01*
X2963039Y-21860174D02*
X2963039Y-21907793D01*
X2963039Y-21907793D02*
X2953515Y-21945889D01*
X2953515Y-21945889D02*
X2943991Y-21964936D01*
X2943991Y-21964936D02*
X2934467Y-21974460D01*
X2934467Y-21974460D02*
X2915420Y-21983984D01*
X2915420Y-21983984D02*
X2896372Y-21983984D01*
X2896372Y-21983984D02*
X2877324Y-21974460D01*
X2877324Y-21974460D02*
X2867801Y-21964936D01*
X2867801Y-21964936D02*
X2858277Y-21945889D01*
X2858277Y-21945889D02*
X2848753Y-21907793D01*
X2848753Y-21907793D02*
X2848753Y-21860174D01*
X2848753Y-21860174D02*
X2858277Y-21822079D01*
X2858277Y-21822079D02*
X2867801Y-21803031D01*
X2867801Y-21803031D02*
X2877324Y-21793508D01*
X2877324Y-21793508D02*
X2896372Y-21783984D01*
X3048753Y-21964936D02*
X3058277Y-21974460D01*
X3058277Y-21974460D02*
X3048753Y-21983984D01*
X3048753Y-21983984D02*
X3039229Y-21974460D01*
X3039229Y-21974460D02*
X3048753Y-21964936D01*
X3048753Y-21964936D02*
X3048753Y-21983984D01*
X3229705Y-21783984D02*
X3191610Y-21783984D01*
X3191610Y-21783984D02*
X3172562Y-21793508D01*
X3172562Y-21793508D02*
X3163039Y-21803031D01*
X3163039Y-21803031D02*
X3143991Y-21831603D01*
X3143991Y-21831603D02*
X3134467Y-21869698D01*
X3134467Y-21869698D02*
X3134467Y-21945889D01*
X3134467Y-21945889D02*
X3143991Y-21964936D01*
X3143991Y-21964936D02*
X3153515Y-21974460D01*
X3153515Y-21974460D02*
X3172562Y-21983984D01*
X3172562Y-21983984D02*
X3210658Y-21983984D01*
X3210658Y-21983984D02*
X3229705Y-21974460D01*
X3229705Y-21974460D02*
X3239229Y-21964936D01*
X3239229Y-21964936D02*
X3248753Y-21945889D01*
X3248753Y-21945889D02*
X3248753Y-21898270D01*
X3248753Y-21898270D02*
X3239229Y-21879222D01*
X3239229Y-21879222D02*
X3229705Y-21869698D01*
X3229705Y-21869698D02*
X3210658Y-21860174D01*
X3210658Y-21860174D02*
X3172562Y-21860174D01*
X3172562Y-21860174D02*
X3153515Y-21869698D01*
X3153515Y-21869698D02*
X3143991Y-21879222D01*
X3143991Y-21879222D02*
X3134467Y-21898270D01*
X3372562Y-21783984D02*
X3391610Y-21783984D01*
X3391610Y-21783984D02*
X3410658Y-21793508D01*
X3410658Y-21793508D02*
X3420182Y-21803031D01*
X3420182Y-21803031D02*
X3429705Y-21822079D01*
X3429705Y-21822079D02*
X3439229Y-21860174D01*
X3439229Y-21860174D02*
X3439229Y-21907793D01*
X3439229Y-21907793D02*
X3429705Y-21945889D01*
X3429705Y-21945889D02*
X3420182Y-21964936D01*
X3420182Y-21964936D02*
X3410658Y-21974460D01*
X3410658Y-21974460D02*
X3391610Y-21983984D01*
X3391610Y-21983984D02*
X3372562Y-21983984D01*
X3372562Y-21983984D02*
X3353515Y-21974460D01*
X3353515Y-21974460D02*
X3343991Y-21964936D01*
X3343991Y-21964936D02*
X3334467Y-21945889D01*
X3334467Y-21945889D02*
X3324943Y-21907793D01*
X3324943Y-21907793D02*
X3324943Y-21860174D01*
X3324943Y-21860174D02*
X3334467Y-21822079D01*
X3334467Y-21822079D02*
X3343991Y-21803031D01*
X3343991Y-21803031D02*
X3353515Y-21793508D01*
X3353515Y-21793508D02*
X3372562Y-21783984D01*
X3563039Y-21783984D02*
X3582086Y-21783984D01*
X3582086Y-21783984D02*
X3601134Y-21793508D01*
X3601134Y-21793508D02*
X3610658Y-21803031D01*
X3610658Y-21803031D02*
X3620182Y-21822079D01*
X3620182Y-21822079D02*
X3629705Y-21860174D01*
X3629705Y-21860174D02*
X3629705Y-21907793D01*
X3629705Y-21907793D02*
X3620182Y-21945889D01*
X3620182Y-21945889D02*
X3610658Y-21964936D01*
X3610658Y-21964936D02*
X3601134Y-21974460D01*
X3601134Y-21974460D02*
X3582086Y-21983984D01*
X3582086Y-21983984D02*
X3563039Y-21983984D01*
X3563039Y-21983984D02*
X3543991Y-21974460D01*
X3543991Y-21974460D02*
X3534467Y-21964936D01*
X3534467Y-21964936D02*
X3524943Y-21945889D01*
X3524943Y-21945889D02*
X3515420Y-21907793D01*
X3515420Y-21907793D02*
X3515420Y-21860174D01*
X3515420Y-21860174D02*
X3524943Y-21822079D01*
X3524943Y-21822079D02*
X3534467Y-21803031D01*
X3534467Y-21803031D02*
X3543991Y-21793508D01*
X3543991Y-21793508D02*
X3563039Y-21783984D01*
X3715420Y-21983984D02*
X3715420Y-21850650D01*
X3715420Y-21869698D02*
X3724943Y-21860174D01*
X3724943Y-21860174D02*
X3743991Y-21850650D01*
X3743991Y-21850650D02*
X3772563Y-21850650D01*
X3772563Y-21850650D02*
X3791610Y-21860174D01*
X3791610Y-21860174D02*
X3801134Y-21879222D01*
X3801134Y-21879222D02*
X3801134Y-21983984D01*
X3801134Y-21879222D02*
X3810658Y-21860174D01*
X3810658Y-21860174D02*
X3829705Y-21850650D01*
X3829705Y-21850650D02*
X3858277Y-21850650D01*
X3858277Y-21850650D02*
X3877324Y-21860174D01*
X3877324Y-21860174D02*
X3886848Y-21879222D01*
X3886848Y-21879222D02*
X3886848Y-21983984D01*
X3982086Y-21983984D02*
X3982086Y-21850650D01*
X3982086Y-21869698D02*
X3991610Y-21860174D01*
X3991610Y-21860174D02*
X4010658Y-21850650D01*
X4010658Y-21850650D02*
X4039229Y-21850650D01*
X4039229Y-21850650D02*
X4058277Y-21860174D01*
X4058277Y-21860174D02*
X4067801Y-21879222D01*
X4067801Y-21879222D02*
X4067801Y-21983984D01*
X4067801Y-21879222D02*
X4077324Y-21860174D01*
X4077324Y-21860174D02*
X4096372Y-21850650D01*
X4096372Y-21850650D02*
X4124943Y-21850650D01*
X4124943Y-21850650D02*
X4143991Y-21860174D01*
X4143991Y-21860174D02*
X4153515Y-21879222D01*
X4153515Y-21879222D02*
X4153515Y-21983984D01*
X4543991Y-21774460D02*
X4372563Y-22031603D01*
X4801134Y-21783984D02*
X4820182Y-21783984D01*
X4820182Y-21783984D02*
X4839229Y-21793508D01*
X4839229Y-21793508D02*
X4848753Y-21803031D01*
X4848753Y-21803031D02*
X4858277Y-21822079D01*
X4858277Y-21822079D02*
X4867801Y-21860174D01*
X4867801Y-21860174D02*
X4867801Y-21907793D01*
X4867801Y-21907793D02*
X4858277Y-21945889D01*
X4858277Y-21945889D02*
X4848753Y-21964936D01*
X4848753Y-21964936D02*
X4839229Y-21974460D01*
X4839229Y-21974460D02*
X4820182Y-21983984D01*
X4820182Y-21983984D02*
X4801134Y-21983984D01*
X4801134Y-21983984D02*
X4782087Y-21974460D01*
X4782087Y-21974460D02*
X4772563Y-21964936D01*
X4772563Y-21964936D02*
X4763039Y-21945889D01*
X4763039Y-21945889D02*
X4753515Y-21907793D01*
X4753515Y-21907793D02*
X4753515Y-21860174D01*
X4753515Y-21860174D02*
X4763039Y-21822079D01*
X4763039Y-21822079D02*
X4772563Y-21803031D01*
X4772563Y-21803031D02*
X4782087Y-21793508D01*
X4782087Y-21793508D02*
X4801134Y-21783984D01*
X4953515Y-21964936D02*
X4963039Y-21974460D01*
X4963039Y-21974460D02*
X4953515Y-21983984D01*
X4953515Y-21983984D02*
X4943991Y-21974460D01*
X4943991Y-21974460D02*
X4953515Y-21964936D01*
X4953515Y-21964936D02*
X4953515Y-21983984D01*
X5086848Y-21783984D02*
X5105896Y-21783984D01*
X5105896Y-21783984D02*
X5124944Y-21793508D01*
X5124944Y-21793508D02*
X5134468Y-21803031D01*
X5134468Y-21803031D02*
X5143991Y-21822079D01*
X5143991Y-21822079D02*
X5153515Y-21860174D01*
X5153515Y-21860174D02*
X5153515Y-21907793D01*
X5153515Y-21907793D02*
X5143991Y-21945889D01*
X5143991Y-21945889D02*
X5134468Y-21964936D01*
X5134468Y-21964936D02*
X5124944Y-21974460D01*
X5124944Y-21974460D02*
X5105896Y-21983984D01*
X5105896Y-21983984D02*
X5086848Y-21983984D01*
X5086848Y-21983984D02*
X5067801Y-21974460D01*
X5067801Y-21974460D02*
X5058277Y-21964936D01*
X5058277Y-21964936D02*
X5048753Y-21945889D01*
X5048753Y-21945889D02*
X5039229Y-21907793D01*
X5039229Y-21907793D02*
X5039229Y-21860174D01*
X5039229Y-21860174D02*
X5048753Y-21822079D01*
X5048753Y-21822079D02*
X5058277Y-21803031D01*
X5058277Y-21803031D02*
X5067801Y-21793508D01*
X5067801Y-21793508D02*
X5086848Y-21783984D01*
X5229706Y-21803031D02*
X5239229Y-21793508D01*
X5239229Y-21793508D02*
X5258277Y-21783984D01*
X5258277Y-21783984D02*
X5305896Y-21783984D01*
X5305896Y-21783984D02*
X5324944Y-21793508D01*
X5324944Y-21793508D02*
X5334468Y-21803031D01*
X5334468Y-21803031D02*
X5343991Y-21822079D01*
X5343991Y-21822079D02*
X5343991Y-21841127D01*
X5343991Y-21841127D02*
X5334468Y-21869698D01*
X5334468Y-21869698D02*
X5220182Y-21983984D01*
X5220182Y-21983984D02*
X5343991Y-21983984D01*
X5410658Y-21783984D02*
X5534468Y-21783984D01*
X5534468Y-21783984D02*
X5467801Y-21860174D01*
X5467801Y-21860174D02*
X5496372Y-21860174D01*
X5496372Y-21860174D02*
X5515420Y-21869698D01*
X5515420Y-21869698D02*
X5524944Y-21879222D01*
X5524944Y-21879222D02*
X5534468Y-21898270D01*
X5534468Y-21898270D02*
X5534468Y-21945889D01*
X5534468Y-21945889D02*
X5524944Y-21964936D01*
X5524944Y-21964936D02*
X5515420Y-21974460D01*
X5515420Y-21974460D02*
X5496372Y-21983984D01*
X5496372Y-21983984D02*
X5439229Y-21983984D01*
X5439229Y-21983984D02*
X5420182Y-21974460D01*
X5420182Y-21974460D02*
X5410658Y-21964936D01*
X5705896Y-21783984D02*
X5667801Y-21783984D01*
X5667801Y-21783984D02*
X5648753Y-21793508D01*
X5648753Y-21793508D02*
X5639229Y-21803031D01*
X5639229Y-21803031D02*
X5620182Y-21831603D01*
X5620182Y-21831603D02*
X5610658Y-21869698D01*
X5610658Y-21869698D02*
X5610658Y-21945889D01*
X5610658Y-21945889D02*
X5620182Y-21964936D01*
X5620182Y-21964936D02*
X5629706Y-21974460D01*
X5629706Y-21974460D02*
X5648753Y-21983984D01*
X5648753Y-21983984D02*
X5686848Y-21983984D01*
X5686848Y-21983984D02*
X5705896Y-21974460D01*
X5705896Y-21974460D02*
X5715420Y-21964936D01*
X5715420Y-21964936D02*
X5724944Y-21945889D01*
X5724944Y-21945889D02*
X5724944Y-21898270D01*
X5724944Y-21898270D02*
X5715420Y-21879222D01*
X5715420Y-21879222D02*
X5705896Y-21869698D01*
X5705896Y-21869698D02*
X5686848Y-21860174D01*
X5686848Y-21860174D02*
X5648753Y-21860174D01*
X5648753Y-21860174D02*
X5629706Y-21869698D01*
X5629706Y-21869698D02*
X5620182Y-21879222D01*
X5620182Y-21879222D02*
X5610658Y-21898270D01*
X5801134Y-21783984D02*
X5801134Y-21822079D01*
X5877325Y-21783984D02*
X5877325Y-21822079D01*
X6172563Y-22060174D02*
X6163039Y-22050650D01*
X6163039Y-22050650D02*
X6143991Y-22022079D01*
X6143991Y-22022079D02*
X6134468Y-22003031D01*
X6134468Y-22003031D02*
X6124944Y-21974460D01*
X6124944Y-21974460D02*
X6115420Y-21926841D01*
X6115420Y-21926841D02*
X6115420Y-21888746D01*
X6115420Y-21888746D02*
X6124944Y-21841127D01*
X6124944Y-21841127D02*
X6134468Y-21812555D01*
X6134468Y-21812555D02*
X6143991Y-21793508D01*
X6143991Y-21793508D02*
X6163039Y-21764936D01*
X6163039Y-21764936D02*
X6172563Y-21755412D01*
X6334468Y-21850650D02*
X6334468Y-21983984D01*
X6286848Y-21774460D02*
X6239229Y-21917317D01*
X6239229Y-21917317D02*
X6363039Y-21917317D01*
X6591610Y-21983984D02*
X6591610Y-21783984D01*
X6677325Y-21983984D02*
X6677325Y-21879222D01*
X6677325Y-21879222D02*
X6667801Y-21860174D01*
X6667801Y-21860174D02*
X6648753Y-21850650D01*
X6648753Y-21850650D02*
X6620182Y-21850650D01*
X6620182Y-21850650D02*
X6601134Y-21860174D01*
X6601134Y-21860174D02*
X6591610Y-21869698D01*
X6801134Y-21983984D02*
X6782087Y-21974460D01*
X6782087Y-21974460D02*
X6772563Y-21964936D01*
X6772563Y-21964936D02*
X6763039Y-21945889D01*
X6763039Y-21945889D02*
X6763039Y-21888746D01*
X6763039Y-21888746D02*
X6772563Y-21869698D01*
X6772563Y-21869698D02*
X6782087Y-21860174D01*
X6782087Y-21860174D02*
X6801134Y-21850650D01*
X6801134Y-21850650D02*
X6829706Y-21850650D01*
X6829706Y-21850650D02*
X6848753Y-21860174D01*
X6848753Y-21860174D02*
X6858277Y-21869698D01*
X6858277Y-21869698D02*
X6867801Y-21888746D01*
X6867801Y-21888746D02*
X6867801Y-21945889D01*
X6867801Y-21945889D02*
X6858277Y-21964936D01*
X6858277Y-21964936D02*
X6848753Y-21974460D01*
X6848753Y-21974460D02*
X6829706Y-21983984D01*
X6829706Y-21983984D02*
X6801134Y-21983984D01*
X6982087Y-21983984D02*
X6963039Y-21974460D01*
X6963039Y-21974460D02*
X6953515Y-21955412D01*
X6953515Y-21955412D02*
X6953515Y-21783984D01*
X7134468Y-21974460D02*
X7115420Y-21983984D01*
X7115420Y-21983984D02*
X7077325Y-21983984D01*
X7077325Y-21983984D02*
X7058277Y-21974460D01*
X7058277Y-21974460D02*
X7048753Y-21955412D01*
X7048753Y-21955412D02*
X7048753Y-21879222D01*
X7048753Y-21879222D02*
X7058277Y-21860174D01*
X7058277Y-21860174D02*
X7077325Y-21850650D01*
X7077325Y-21850650D02*
X7115420Y-21850650D01*
X7115420Y-21850650D02*
X7134468Y-21860174D01*
X7134468Y-21860174D02*
X7143991Y-21879222D01*
X7143991Y-21879222D02*
X7143991Y-21898270D01*
X7143991Y-21898270D02*
X7048753Y-21917317D01*
X7220182Y-21974460D02*
X7239230Y-21983984D01*
X7239230Y-21983984D02*
X7277325Y-21983984D01*
X7277325Y-21983984D02*
X7296372Y-21974460D01*
X7296372Y-21974460D02*
X7305896Y-21955412D01*
X7305896Y-21955412D02*
X7305896Y-21945889D01*
X7305896Y-21945889D02*
X7296372Y-21926841D01*
X7296372Y-21926841D02*
X7277325Y-21917317D01*
X7277325Y-21917317D02*
X7248753Y-21917317D01*
X7248753Y-21917317D02*
X7229706Y-21907793D01*
X7229706Y-21907793D02*
X7220182Y-21888746D01*
X7220182Y-21888746D02*
X7220182Y-21879222D01*
X7220182Y-21879222D02*
X7229706Y-21860174D01*
X7229706Y-21860174D02*
X7248753Y-21850650D01*
X7248753Y-21850650D02*
X7277325Y-21850650D01*
X7277325Y-21850650D02*
X7296372Y-21860174D01*
X7372563Y-22060174D02*
X7382087Y-22050650D01*
X7382087Y-22050650D02*
X7401134Y-22022079D01*
X7401134Y-22022079D02*
X7410658Y-22003031D01*
X7410658Y-22003031D02*
X7420182Y-21974460D01*
X7420182Y-21974460D02*
X7429706Y-21926841D01*
X7429706Y-21926841D02*
X7429706Y-21888746D01*
X7429706Y-21888746D02*
X7420182Y-21841127D01*
X7420182Y-21841127D02*
X7410658Y-21812555D01*
X7410658Y-21812555D02*
X7401134Y-21793508D01*
X7401134Y-21793508D02*
X7382087Y-21764936D01*
X7382087Y-21764936D02*
X7372563Y-21755412D01*
D12*
X2597500Y-22156500D02*
G75*
G02*
X2517500Y-22156500I-40000J0D01*
G01*
X2517500Y-22156500D02*
G75*
G02*
X2597500Y-22156500I40000J0D01*
G01*
D11*
X2896372Y-22047984D02*
X2915420Y-22047984D01*
X2915420Y-22047984D02*
X2934467Y-22057508D01*
X2934467Y-22057508D02*
X2943991Y-22067031D01*
X2943991Y-22067031D02*
X2953515Y-22086079D01*
X2953515Y-22086079D02*
X2963039Y-22124174D01*
X2963039Y-22124174D02*
X2963039Y-22171793D01*
X2963039Y-22171793D02*
X2953515Y-22209889D01*
X2953515Y-22209889D02*
X2943991Y-22228936D01*
X2943991Y-22228936D02*
X2934467Y-22238460D01*
X2934467Y-22238460D02*
X2915420Y-22247984D01*
X2915420Y-22247984D02*
X2896372Y-22247984D01*
X2896372Y-22247984D02*
X2877324Y-22238460D01*
X2877324Y-22238460D02*
X2867801Y-22228936D01*
X2867801Y-22228936D02*
X2858277Y-22209889D01*
X2858277Y-22209889D02*
X2848753Y-22171793D01*
X2848753Y-22171793D02*
X2848753Y-22124174D01*
X2848753Y-22124174D02*
X2858277Y-22086079D01*
X2858277Y-22086079D02*
X2867801Y-22067031D01*
X2867801Y-22067031D02*
X2877324Y-22057508D01*
X2877324Y-22057508D02*
X2896372Y-22047984D01*
X3048753Y-22228936D02*
X3058277Y-22238460D01*
X3058277Y-22238460D02*
X3048753Y-22247984D01*
X3048753Y-22247984D02*
X3039229Y-22238460D01*
X3039229Y-22238460D02*
X3048753Y-22228936D01*
X3048753Y-22228936D02*
X3048753Y-22247984D01*
X3172562Y-22133698D02*
X3153515Y-22124174D01*
X3153515Y-22124174D02*
X3143991Y-22114650D01*
X3143991Y-22114650D02*
X3134467Y-22095603D01*
X3134467Y-22095603D02*
X3134467Y-22086079D01*
X3134467Y-22086079D02*
X3143991Y-22067031D01*
X3143991Y-22067031D02*
X3153515Y-22057508D01*
X3153515Y-22057508D02*
X3172562Y-22047984D01*
X3172562Y-22047984D02*
X3210658Y-22047984D01*
X3210658Y-22047984D02*
X3229705Y-22057508D01*
X3229705Y-22057508D02*
X3239229Y-22067031D01*
X3239229Y-22067031D02*
X3248753Y-22086079D01*
X3248753Y-22086079D02*
X3248753Y-22095603D01*
X3248753Y-22095603D02*
X3239229Y-22114650D01*
X3239229Y-22114650D02*
X3229705Y-22124174D01*
X3229705Y-22124174D02*
X3210658Y-22133698D01*
X3210658Y-22133698D02*
X3172562Y-22133698D01*
X3172562Y-22133698D02*
X3153515Y-22143222D01*
X3153515Y-22143222D02*
X3143991Y-22152746D01*
X3143991Y-22152746D02*
X3134467Y-22171793D01*
X3134467Y-22171793D02*
X3134467Y-22209889D01*
X3134467Y-22209889D02*
X3143991Y-22228936D01*
X3143991Y-22228936D02*
X3153515Y-22238460D01*
X3153515Y-22238460D02*
X3172562Y-22247984D01*
X3172562Y-22247984D02*
X3210658Y-22247984D01*
X3210658Y-22247984D02*
X3229705Y-22238460D01*
X3229705Y-22238460D02*
X3239229Y-22228936D01*
X3239229Y-22228936D02*
X3248753Y-22209889D01*
X3248753Y-22209889D02*
X3248753Y-22171793D01*
X3248753Y-22171793D02*
X3239229Y-22152746D01*
X3239229Y-22152746D02*
X3229705Y-22143222D01*
X3229705Y-22143222D02*
X3210658Y-22133698D01*
X3372562Y-22047984D02*
X3391610Y-22047984D01*
X3391610Y-22047984D02*
X3410658Y-22057508D01*
X3410658Y-22057508D02*
X3420182Y-22067031D01*
X3420182Y-22067031D02*
X3429705Y-22086079D01*
X3429705Y-22086079D02*
X3439229Y-22124174D01*
X3439229Y-22124174D02*
X3439229Y-22171793D01*
X3439229Y-22171793D02*
X3429705Y-22209889D01*
X3429705Y-22209889D02*
X3420182Y-22228936D01*
X3420182Y-22228936D02*
X3410658Y-22238460D01*
X3410658Y-22238460D02*
X3391610Y-22247984D01*
X3391610Y-22247984D02*
X3372562Y-22247984D01*
X3372562Y-22247984D02*
X3353515Y-22238460D01*
X3353515Y-22238460D02*
X3343991Y-22228936D01*
X3343991Y-22228936D02*
X3334467Y-22209889D01*
X3334467Y-22209889D02*
X3324943Y-22171793D01*
X3324943Y-22171793D02*
X3324943Y-22124174D01*
X3324943Y-22124174D02*
X3334467Y-22086079D01*
X3334467Y-22086079D02*
X3343991Y-22067031D01*
X3343991Y-22067031D02*
X3353515Y-22057508D01*
X3353515Y-22057508D02*
X3372562Y-22047984D01*
X3563039Y-22047984D02*
X3582086Y-22047984D01*
X3582086Y-22047984D02*
X3601134Y-22057508D01*
X3601134Y-22057508D02*
X3610658Y-22067031D01*
X3610658Y-22067031D02*
X3620182Y-22086079D01*
X3620182Y-22086079D02*
X3629705Y-22124174D01*
X3629705Y-22124174D02*
X3629705Y-22171793D01*
X3629705Y-22171793D02*
X3620182Y-22209889D01*
X3620182Y-22209889D02*
X3610658Y-22228936D01*
X3610658Y-22228936D02*
X3601134Y-22238460D01*
X3601134Y-22238460D02*
X3582086Y-22247984D01*
X3582086Y-22247984D02*
X3563039Y-22247984D01*
X3563039Y-22247984D02*
X3543991Y-22238460D01*
X3543991Y-22238460D02*
X3534467Y-22228936D01*
X3534467Y-22228936D02*
X3524943Y-22209889D01*
X3524943Y-22209889D02*
X3515420Y-22171793D01*
X3515420Y-22171793D02*
X3515420Y-22124174D01*
X3515420Y-22124174D02*
X3524943Y-22086079D01*
X3524943Y-22086079D02*
X3534467Y-22067031D01*
X3534467Y-22067031D02*
X3543991Y-22057508D01*
X3543991Y-22057508D02*
X3563039Y-22047984D01*
X3715420Y-22247984D02*
X3715420Y-22114650D01*
X3715420Y-22133698D02*
X3724943Y-22124174D01*
X3724943Y-22124174D02*
X3743991Y-22114650D01*
X3743991Y-22114650D02*
X3772563Y-22114650D01*
X3772563Y-22114650D02*
X3791610Y-22124174D01*
X3791610Y-22124174D02*
X3801134Y-22143222D01*
X3801134Y-22143222D02*
X3801134Y-22247984D01*
X3801134Y-22143222D02*
X3810658Y-22124174D01*
X3810658Y-22124174D02*
X3829705Y-22114650D01*
X3829705Y-22114650D02*
X3858277Y-22114650D01*
X3858277Y-22114650D02*
X3877324Y-22124174D01*
X3877324Y-22124174D02*
X3886848Y-22143222D01*
X3886848Y-22143222D02*
X3886848Y-22247984D01*
X3982086Y-22247984D02*
X3982086Y-22114650D01*
X3982086Y-22133698D02*
X3991610Y-22124174D01*
X3991610Y-22124174D02*
X4010658Y-22114650D01*
X4010658Y-22114650D02*
X4039229Y-22114650D01*
X4039229Y-22114650D02*
X4058277Y-22124174D01*
X4058277Y-22124174D02*
X4067801Y-22143222D01*
X4067801Y-22143222D02*
X4067801Y-22247984D01*
X4067801Y-22143222D02*
X4077324Y-22124174D01*
X4077324Y-22124174D02*
X4096372Y-22114650D01*
X4096372Y-22114650D02*
X4124943Y-22114650D01*
X4124943Y-22114650D02*
X4143991Y-22124174D01*
X4143991Y-22124174D02*
X4153515Y-22143222D01*
X4153515Y-22143222D02*
X4153515Y-22247984D01*
X4543991Y-22038460D02*
X4372563Y-22295603D01*
X4801134Y-22047984D02*
X4820182Y-22047984D01*
X4820182Y-22047984D02*
X4839229Y-22057508D01*
X4839229Y-22057508D02*
X4848753Y-22067031D01*
X4848753Y-22067031D02*
X4858277Y-22086079D01*
X4858277Y-22086079D02*
X4867801Y-22124174D01*
X4867801Y-22124174D02*
X4867801Y-22171793D01*
X4867801Y-22171793D02*
X4858277Y-22209889D01*
X4858277Y-22209889D02*
X4848753Y-22228936D01*
X4848753Y-22228936D02*
X4839229Y-22238460D01*
X4839229Y-22238460D02*
X4820182Y-22247984D01*
X4820182Y-22247984D02*
X4801134Y-22247984D01*
X4801134Y-22247984D02*
X4782087Y-22238460D01*
X4782087Y-22238460D02*
X4772563Y-22228936D01*
X4772563Y-22228936D02*
X4763039Y-22209889D01*
X4763039Y-22209889D02*
X4753515Y-22171793D01*
X4753515Y-22171793D02*
X4753515Y-22124174D01*
X4753515Y-22124174D02*
X4763039Y-22086079D01*
X4763039Y-22086079D02*
X4772563Y-22067031D01*
X4772563Y-22067031D02*
X4782087Y-22057508D01*
X4782087Y-22057508D02*
X4801134Y-22047984D01*
X4953515Y-22228936D02*
X4963039Y-22238460D01*
X4963039Y-22238460D02*
X4953515Y-22247984D01*
X4953515Y-22247984D02*
X4943991Y-22238460D01*
X4943991Y-22238460D02*
X4953515Y-22228936D01*
X4953515Y-22228936D02*
X4953515Y-22247984D01*
X5086848Y-22047984D02*
X5105896Y-22047984D01*
X5105896Y-22047984D02*
X5124944Y-22057508D01*
X5124944Y-22057508D02*
X5134468Y-22067031D01*
X5134468Y-22067031D02*
X5143991Y-22086079D01*
X5143991Y-22086079D02*
X5153515Y-22124174D01*
X5153515Y-22124174D02*
X5153515Y-22171793D01*
X5153515Y-22171793D02*
X5143991Y-22209889D01*
X5143991Y-22209889D02*
X5134468Y-22228936D01*
X5134468Y-22228936D02*
X5124944Y-22238460D01*
X5124944Y-22238460D02*
X5105896Y-22247984D01*
X5105896Y-22247984D02*
X5086848Y-22247984D01*
X5086848Y-22247984D02*
X5067801Y-22238460D01*
X5067801Y-22238460D02*
X5058277Y-22228936D01*
X5058277Y-22228936D02*
X5048753Y-22209889D01*
X5048753Y-22209889D02*
X5039229Y-22171793D01*
X5039229Y-22171793D02*
X5039229Y-22124174D01*
X5039229Y-22124174D02*
X5048753Y-22086079D01*
X5048753Y-22086079D02*
X5058277Y-22067031D01*
X5058277Y-22067031D02*
X5067801Y-22057508D01*
X5067801Y-22057508D02*
X5086848Y-22047984D01*
X5220182Y-22047984D02*
X5343991Y-22047984D01*
X5343991Y-22047984D02*
X5277325Y-22124174D01*
X5277325Y-22124174D02*
X5305896Y-22124174D01*
X5305896Y-22124174D02*
X5324944Y-22133698D01*
X5324944Y-22133698D02*
X5334468Y-22143222D01*
X5334468Y-22143222D02*
X5343991Y-22162270D01*
X5343991Y-22162270D02*
X5343991Y-22209889D01*
X5343991Y-22209889D02*
X5334468Y-22228936D01*
X5334468Y-22228936D02*
X5324944Y-22238460D01*
X5324944Y-22238460D02*
X5305896Y-22247984D01*
X5305896Y-22247984D02*
X5248753Y-22247984D01*
X5248753Y-22247984D02*
X5229706Y-22238460D01*
X5229706Y-22238460D02*
X5220182Y-22228936D01*
X5534468Y-22247984D02*
X5420182Y-22247984D01*
X5477325Y-22247984D02*
X5477325Y-22047984D01*
X5477325Y-22047984D02*
X5458277Y-22076555D01*
X5458277Y-22076555D02*
X5439229Y-22095603D01*
X5439229Y-22095603D02*
X5420182Y-22105127D01*
X5715420Y-22047984D02*
X5620182Y-22047984D01*
X5620182Y-22047984D02*
X5610658Y-22143222D01*
X5610658Y-22143222D02*
X5620182Y-22133698D01*
X5620182Y-22133698D02*
X5639229Y-22124174D01*
X5639229Y-22124174D02*
X5686848Y-22124174D01*
X5686848Y-22124174D02*
X5705896Y-22133698D01*
X5705896Y-22133698D02*
X5715420Y-22143222D01*
X5715420Y-22143222D02*
X5724944Y-22162270D01*
X5724944Y-22162270D02*
X5724944Y-22209889D01*
X5724944Y-22209889D02*
X5715420Y-22228936D01*
X5715420Y-22228936D02*
X5705896Y-22238460D01*
X5705896Y-22238460D02*
X5686848Y-22247984D01*
X5686848Y-22247984D02*
X5639229Y-22247984D01*
X5639229Y-22247984D02*
X5620182Y-22238460D01*
X5620182Y-22238460D02*
X5610658Y-22228936D01*
X5801134Y-22047984D02*
X5801134Y-22086079D01*
X5877325Y-22047984D02*
X5877325Y-22086079D01*
X6172563Y-22324174D02*
X6163039Y-22314650D01*
X6163039Y-22314650D02*
X6143991Y-22286079D01*
X6143991Y-22286079D02*
X6134468Y-22267031D01*
X6134468Y-22267031D02*
X6124944Y-22238460D01*
X6124944Y-22238460D02*
X6115420Y-22190841D01*
X6115420Y-22190841D02*
X6115420Y-22152746D01*
X6115420Y-22152746D02*
X6124944Y-22105127D01*
X6124944Y-22105127D02*
X6134468Y-22076555D01*
X6134468Y-22076555D02*
X6143991Y-22057508D01*
X6143991Y-22057508D02*
X6163039Y-22028936D01*
X6163039Y-22028936D02*
X6172563Y-22019412D01*
X6277325Y-22133698D02*
X6258277Y-22124174D01*
X6258277Y-22124174D02*
X6248753Y-22114650D01*
X6248753Y-22114650D02*
X6239229Y-22095603D01*
X6239229Y-22095603D02*
X6239229Y-22086079D01*
X6239229Y-22086079D02*
X6248753Y-22067031D01*
X6248753Y-22067031D02*
X6258277Y-22057508D01*
X6258277Y-22057508D02*
X6277325Y-22047984D01*
X6277325Y-22047984D02*
X6315420Y-22047984D01*
X6315420Y-22047984D02*
X6334468Y-22057508D01*
X6334468Y-22057508D02*
X6343991Y-22067031D01*
X6343991Y-22067031D02*
X6353515Y-22086079D01*
X6353515Y-22086079D02*
X6353515Y-22095603D01*
X6353515Y-22095603D02*
X6343991Y-22114650D01*
X6343991Y-22114650D02*
X6334468Y-22124174D01*
X6334468Y-22124174D02*
X6315420Y-22133698D01*
X6315420Y-22133698D02*
X6277325Y-22133698D01*
X6277325Y-22133698D02*
X6258277Y-22143222D01*
X6258277Y-22143222D02*
X6248753Y-22152746D01*
X6248753Y-22152746D02*
X6239229Y-22171793D01*
X6239229Y-22171793D02*
X6239229Y-22209889D01*
X6239229Y-22209889D02*
X6248753Y-22228936D01*
X6248753Y-22228936D02*
X6258277Y-22238460D01*
X6258277Y-22238460D02*
X6277325Y-22247984D01*
X6277325Y-22247984D02*
X6315420Y-22247984D01*
X6315420Y-22247984D02*
X6334468Y-22238460D01*
X6334468Y-22238460D02*
X6343991Y-22228936D01*
X6343991Y-22228936D02*
X6353515Y-22209889D01*
X6353515Y-22209889D02*
X6353515Y-22171793D01*
X6353515Y-22171793D02*
X6343991Y-22152746D01*
X6343991Y-22152746D02*
X6334468Y-22143222D01*
X6334468Y-22143222D02*
X6315420Y-22133698D01*
X6524944Y-22047984D02*
X6486848Y-22047984D01*
X6486848Y-22047984D02*
X6467801Y-22057508D01*
X6467801Y-22057508D02*
X6458277Y-22067031D01*
X6458277Y-22067031D02*
X6439229Y-22095603D01*
X6439229Y-22095603D02*
X6429706Y-22133698D01*
X6429706Y-22133698D02*
X6429706Y-22209889D01*
X6429706Y-22209889D02*
X6439229Y-22228936D01*
X6439229Y-22228936D02*
X6448753Y-22238460D01*
X6448753Y-22238460D02*
X6467801Y-22247984D01*
X6467801Y-22247984D02*
X6505896Y-22247984D01*
X6505896Y-22247984D02*
X6524944Y-22238460D01*
X6524944Y-22238460D02*
X6534468Y-22228936D01*
X6534468Y-22228936D02*
X6543991Y-22209889D01*
X6543991Y-22209889D02*
X6543991Y-22162270D01*
X6543991Y-22162270D02*
X6534468Y-22143222D01*
X6534468Y-22143222D02*
X6524944Y-22133698D01*
X6524944Y-22133698D02*
X6505896Y-22124174D01*
X6505896Y-22124174D02*
X6467801Y-22124174D01*
X6467801Y-22124174D02*
X6448753Y-22133698D01*
X6448753Y-22133698D02*
X6439229Y-22143222D01*
X6439229Y-22143222D02*
X6429706Y-22162270D01*
X6782087Y-22247984D02*
X6782087Y-22047984D01*
X6867801Y-22247984D02*
X6867801Y-22143222D01*
X6867801Y-22143222D02*
X6858277Y-22124174D01*
X6858277Y-22124174D02*
X6839230Y-22114650D01*
X6839230Y-22114650D02*
X6810658Y-22114650D01*
X6810658Y-22114650D02*
X6791610Y-22124174D01*
X6791610Y-22124174D02*
X6782087Y-22133698D01*
X6991610Y-22247984D02*
X6972563Y-22238460D01*
X6972563Y-22238460D02*
X6963039Y-22228936D01*
X6963039Y-22228936D02*
X6953515Y-22209889D01*
X6953515Y-22209889D02*
X6953515Y-22152746D01*
X6953515Y-22152746D02*
X6963039Y-22133698D01*
X6963039Y-22133698D02*
X6972563Y-22124174D01*
X6972563Y-22124174D02*
X6991610Y-22114650D01*
X6991610Y-22114650D02*
X7020182Y-22114650D01*
X7020182Y-22114650D02*
X7039230Y-22124174D01*
X7039230Y-22124174D02*
X7048753Y-22133698D01*
X7048753Y-22133698D02*
X7058277Y-22152746D01*
X7058277Y-22152746D02*
X7058277Y-22209889D01*
X7058277Y-22209889D02*
X7048753Y-22228936D01*
X7048753Y-22228936D02*
X7039230Y-22238460D01*
X7039230Y-22238460D02*
X7020182Y-22247984D01*
X7020182Y-22247984D02*
X6991610Y-22247984D01*
X7172563Y-22247984D02*
X7153515Y-22238460D01*
X7153515Y-22238460D02*
X7143991Y-22219412D01*
X7143991Y-22219412D02*
X7143991Y-22047984D01*
X7324944Y-22238460D02*
X7305896Y-22247984D01*
X7305896Y-22247984D02*
X7267801Y-22247984D01*
X7267801Y-22247984D02*
X7248753Y-22238460D01*
X7248753Y-22238460D02*
X7239230Y-22219412D01*
X7239230Y-22219412D02*
X7239230Y-22143222D01*
X7239230Y-22143222D02*
X7248753Y-22124174D01*
X7248753Y-22124174D02*
X7267801Y-22114650D01*
X7267801Y-22114650D02*
X7305896Y-22114650D01*
X7305896Y-22114650D02*
X7324944Y-22124174D01*
X7324944Y-22124174D02*
X7334468Y-22143222D01*
X7334468Y-22143222D02*
X7334468Y-22162270D01*
X7334468Y-22162270D02*
X7239230Y-22181317D01*
X7410658Y-22238460D02*
X7429706Y-22247984D01*
X7429706Y-22247984D02*
X7467801Y-22247984D01*
X7467801Y-22247984D02*
X7486849Y-22238460D01*
X7486849Y-22238460D02*
X7496372Y-22219412D01*
X7496372Y-22219412D02*
X7496372Y-22209889D01*
X7496372Y-22209889D02*
X7486849Y-22190841D01*
X7486849Y-22190841D02*
X7467801Y-22181317D01*
X7467801Y-22181317D02*
X7439230Y-22181317D01*
X7439230Y-22181317D02*
X7420182Y-22171793D01*
X7420182Y-22171793D02*
X7410658Y-22152746D01*
X7410658Y-22152746D02*
X7410658Y-22143222D01*
X7410658Y-22143222D02*
X7420182Y-22124174D01*
X7420182Y-22124174D02*
X7439230Y-22114650D01*
X7439230Y-22114650D02*
X7467801Y-22114650D01*
X7467801Y-22114650D02*
X7486849Y-22124174D01*
X7563039Y-22324174D02*
X7572563Y-22314650D01*
X7572563Y-22314650D02*
X7591611Y-22286079D01*
X7591611Y-22286079D02*
X7601134Y-22267031D01*
X7601134Y-22267031D02*
X7610658Y-22238460D01*
X7610658Y-22238460D02*
X7620182Y-22190841D01*
X7620182Y-22190841D02*
X7620182Y-22152746D01*
X7620182Y-22152746D02*
X7610658Y-22105127D01*
X7610658Y-22105127D02*
X7601134Y-22076555D01*
X7601134Y-22076555D02*
X7591611Y-22057508D01*
X7591611Y-22057508D02*
X7572563Y-22028936D01*
X7572563Y-22028936D02*
X7563039Y-22019412D01*
D12*
X2547500Y-22370500D02*
X2547500Y-22470500D01*
X2497500Y-22420500D02*
X2597500Y-22420500D01*
D11*
X2963039Y-22511984D02*
X2848753Y-22511984D01*
X2905896Y-22511984D02*
X2905896Y-22311984D01*
X2905896Y-22311984D02*
X2886848Y-22340555D01*
X2886848Y-22340555D02*
X2867801Y-22359603D01*
X2867801Y-22359603D02*
X2848753Y-22369127D01*
X3048753Y-22492936D02*
X3058277Y-22502460D01*
X3058277Y-22502460D02*
X3048753Y-22511984D01*
X3048753Y-22511984D02*
X3039229Y-22502460D01*
X3039229Y-22502460D02*
X3048753Y-22492936D01*
X3048753Y-22492936D02*
X3048753Y-22511984D01*
X3182086Y-22311984D02*
X3201134Y-22311984D01*
X3201134Y-22311984D02*
X3220182Y-22321508D01*
X3220182Y-22321508D02*
X3229705Y-22331031D01*
X3229705Y-22331031D02*
X3239229Y-22350079D01*
X3239229Y-22350079D02*
X3248753Y-22388174D01*
X3248753Y-22388174D02*
X3248753Y-22435793D01*
X3248753Y-22435793D02*
X3239229Y-22473888D01*
X3239229Y-22473888D02*
X3229705Y-22492936D01*
X3229705Y-22492936D02*
X3220182Y-22502460D01*
X3220182Y-22502460D02*
X3201134Y-22511984D01*
X3201134Y-22511984D02*
X3182086Y-22511984D01*
X3182086Y-22511984D02*
X3163039Y-22502460D01*
X3163039Y-22502460D02*
X3153515Y-22492936D01*
X3153515Y-22492936D02*
X3143991Y-22473888D01*
X3143991Y-22473888D02*
X3134467Y-22435793D01*
X3134467Y-22435793D02*
X3134467Y-22388174D01*
X3134467Y-22388174D02*
X3143991Y-22350079D01*
X3143991Y-22350079D02*
X3153515Y-22331031D01*
X3153515Y-22331031D02*
X3163039Y-22321508D01*
X3163039Y-22321508D02*
X3182086Y-22311984D01*
X3372562Y-22311984D02*
X3391610Y-22311984D01*
X3391610Y-22311984D02*
X3410658Y-22321508D01*
X3410658Y-22321508D02*
X3420182Y-22331031D01*
X3420182Y-22331031D02*
X3429705Y-22350079D01*
X3429705Y-22350079D02*
X3439229Y-22388174D01*
X3439229Y-22388174D02*
X3439229Y-22435793D01*
X3439229Y-22435793D02*
X3429705Y-22473888D01*
X3429705Y-22473888D02*
X3420182Y-22492936D01*
X3420182Y-22492936D02*
X3410658Y-22502460D01*
X3410658Y-22502460D02*
X3391610Y-22511984D01*
X3391610Y-22511984D02*
X3372562Y-22511984D01*
X3372562Y-22511984D02*
X3353515Y-22502460D01*
X3353515Y-22502460D02*
X3343991Y-22492936D01*
X3343991Y-22492936D02*
X3334467Y-22473888D01*
X3334467Y-22473888D02*
X3324943Y-22435793D01*
X3324943Y-22435793D02*
X3324943Y-22388174D01*
X3324943Y-22388174D02*
X3334467Y-22350079D01*
X3334467Y-22350079D02*
X3343991Y-22331031D01*
X3343991Y-22331031D02*
X3353515Y-22321508D01*
X3353515Y-22321508D02*
X3372562Y-22311984D01*
X3563039Y-22311984D02*
X3582086Y-22311984D01*
X3582086Y-22311984D02*
X3601134Y-22321508D01*
X3601134Y-22321508D02*
X3610658Y-22331031D01*
X3610658Y-22331031D02*
X3620182Y-22350079D01*
X3620182Y-22350079D02*
X3629705Y-22388174D01*
X3629705Y-22388174D02*
X3629705Y-22435793D01*
X3629705Y-22435793D02*
X3620182Y-22473888D01*
X3620182Y-22473888D02*
X3610658Y-22492936D01*
X3610658Y-22492936D02*
X3601134Y-22502460D01*
X3601134Y-22502460D02*
X3582086Y-22511984D01*
X3582086Y-22511984D02*
X3563039Y-22511984D01*
X3563039Y-22511984D02*
X3543991Y-22502460D01*
X3543991Y-22502460D02*
X3534467Y-22492936D01*
X3534467Y-22492936D02*
X3524943Y-22473888D01*
X3524943Y-22473888D02*
X3515420Y-22435793D01*
X3515420Y-22435793D02*
X3515420Y-22388174D01*
X3515420Y-22388174D02*
X3524943Y-22350079D01*
X3524943Y-22350079D02*
X3534467Y-22331031D01*
X3534467Y-22331031D02*
X3543991Y-22321508D01*
X3543991Y-22321508D02*
X3563039Y-22311984D01*
X3715420Y-22511984D02*
X3715420Y-22378650D01*
X3715420Y-22397698D02*
X3724943Y-22388174D01*
X3724943Y-22388174D02*
X3743991Y-22378650D01*
X3743991Y-22378650D02*
X3772563Y-22378650D01*
X3772563Y-22378650D02*
X3791610Y-22388174D01*
X3791610Y-22388174D02*
X3801134Y-22407222D01*
X3801134Y-22407222D02*
X3801134Y-22511984D01*
X3801134Y-22407222D02*
X3810658Y-22388174D01*
X3810658Y-22388174D02*
X3829705Y-22378650D01*
X3829705Y-22378650D02*
X3858277Y-22378650D01*
X3858277Y-22378650D02*
X3877324Y-22388174D01*
X3877324Y-22388174D02*
X3886848Y-22407222D01*
X3886848Y-22407222D02*
X3886848Y-22511984D01*
X3982086Y-22511984D02*
X3982086Y-22378650D01*
X3982086Y-22397698D02*
X3991610Y-22388174D01*
X3991610Y-22388174D02*
X4010658Y-22378650D01*
X4010658Y-22378650D02*
X4039229Y-22378650D01*
X4039229Y-22378650D02*
X4058277Y-22388174D01*
X4058277Y-22388174D02*
X4067801Y-22407222D01*
X4067801Y-22407222D02*
X4067801Y-22511984D01*
X4067801Y-22407222D02*
X4077324Y-22388174D01*
X4077324Y-22388174D02*
X4096372Y-22378650D01*
X4096372Y-22378650D02*
X4124943Y-22378650D01*
X4124943Y-22378650D02*
X4143991Y-22388174D01*
X4143991Y-22388174D02*
X4153515Y-22407222D01*
X4153515Y-22407222D02*
X4153515Y-22511984D01*
X4543991Y-22302460D02*
X4372563Y-22559603D01*
X4801134Y-22311984D02*
X4820182Y-22311984D01*
X4820182Y-22311984D02*
X4839229Y-22321508D01*
X4839229Y-22321508D02*
X4848753Y-22331031D01*
X4848753Y-22331031D02*
X4858277Y-22350079D01*
X4858277Y-22350079D02*
X4867801Y-22388174D01*
X4867801Y-22388174D02*
X4867801Y-22435793D01*
X4867801Y-22435793D02*
X4858277Y-22473888D01*
X4858277Y-22473888D02*
X4848753Y-22492936D01*
X4848753Y-22492936D02*
X4839229Y-22502460D01*
X4839229Y-22502460D02*
X4820182Y-22511984D01*
X4820182Y-22511984D02*
X4801134Y-22511984D01*
X4801134Y-22511984D02*
X4782087Y-22502460D01*
X4782087Y-22502460D02*
X4772563Y-22492936D01*
X4772563Y-22492936D02*
X4763039Y-22473888D01*
X4763039Y-22473888D02*
X4753515Y-22435793D01*
X4753515Y-22435793D02*
X4753515Y-22388174D01*
X4753515Y-22388174D02*
X4763039Y-22350079D01*
X4763039Y-22350079D02*
X4772563Y-22331031D01*
X4772563Y-22331031D02*
X4782087Y-22321508D01*
X4782087Y-22321508D02*
X4801134Y-22311984D01*
X4953515Y-22492936D02*
X4963039Y-22502460D01*
X4963039Y-22502460D02*
X4953515Y-22511984D01*
X4953515Y-22511984D02*
X4943991Y-22502460D01*
X4943991Y-22502460D02*
X4953515Y-22492936D01*
X4953515Y-22492936D02*
X4953515Y-22511984D01*
X5086848Y-22311984D02*
X5105896Y-22311984D01*
X5105896Y-22311984D02*
X5124944Y-22321508D01*
X5124944Y-22321508D02*
X5134468Y-22331031D01*
X5134468Y-22331031D02*
X5143991Y-22350079D01*
X5143991Y-22350079D02*
X5153515Y-22388174D01*
X5153515Y-22388174D02*
X5153515Y-22435793D01*
X5153515Y-22435793D02*
X5143991Y-22473888D01*
X5143991Y-22473888D02*
X5134468Y-22492936D01*
X5134468Y-22492936D02*
X5124944Y-22502460D01*
X5124944Y-22502460D02*
X5105896Y-22511984D01*
X5105896Y-22511984D02*
X5086848Y-22511984D01*
X5086848Y-22511984D02*
X5067801Y-22502460D01*
X5067801Y-22502460D02*
X5058277Y-22492936D01*
X5058277Y-22492936D02*
X5048753Y-22473888D01*
X5048753Y-22473888D02*
X5039229Y-22435793D01*
X5039229Y-22435793D02*
X5039229Y-22388174D01*
X5039229Y-22388174D02*
X5048753Y-22350079D01*
X5048753Y-22350079D02*
X5058277Y-22331031D01*
X5058277Y-22331031D02*
X5067801Y-22321508D01*
X5067801Y-22321508D02*
X5086848Y-22311984D01*
X5220182Y-22311984D02*
X5343991Y-22311984D01*
X5343991Y-22311984D02*
X5277325Y-22388174D01*
X5277325Y-22388174D02*
X5305896Y-22388174D01*
X5305896Y-22388174D02*
X5324944Y-22397698D01*
X5324944Y-22397698D02*
X5334468Y-22407222D01*
X5334468Y-22407222D02*
X5343991Y-22426269D01*
X5343991Y-22426269D02*
X5343991Y-22473888D01*
X5343991Y-22473888D02*
X5334468Y-22492936D01*
X5334468Y-22492936D02*
X5324944Y-22502460D01*
X5324944Y-22502460D02*
X5305896Y-22511984D01*
X5305896Y-22511984D02*
X5248753Y-22511984D01*
X5248753Y-22511984D02*
X5229706Y-22502460D01*
X5229706Y-22502460D02*
X5220182Y-22492936D01*
X5439229Y-22511984D02*
X5477325Y-22511984D01*
X5477325Y-22511984D02*
X5496372Y-22502460D01*
X5496372Y-22502460D02*
X5505896Y-22492936D01*
X5505896Y-22492936D02*
X5524944Y-22464365D01*
X5524944Y-22464365D02*
X5534468Y-22426269D01*
X5534468Y-22426269D02*
X5534468Y-22350079D01*
X5534468Y-22350079D02*
X5524944Y-22331031D01*
X5524944Y-22331031D02*
X5515420Y-22321508D01*
X5515420Y-22321508D02*
X5496372Y-22311984D01*
X5496372Y-22311984D02*
X5458277Y-22311984D01*
X5458277Y-22311984D02*
X5439229Y-22321508D01*
X5439229Y-22321508D02*
X5429706Y-22331031D01*
X5429706Y-22331031D02*
X5420182Y-22350079D01*
X5420182Y-22350079D02*
X5420182Y-22397698D01*
X5420182Y-22397698D02*
X5429706Y-22416746D01*
X5429706Y-22416746D02*
X5439229Y-22426269D01*
X5439229Y-22426269D02*
X5458277Y-22435793D01*
X5458277Y-22435793D02*
X5496372Y-22435793D01*
X5496372Y-22435793D02*
X5515420Y-22426269D01*
X5515420Y-22426269D02*
X5524944Y-22416746D01*
X5524944Y-22416746D02*
X5534468Y-22397698D01*
X5705896Y-22378650D02*
X5705896Y-22511984D01*
X5658277Y-22302460D02*
X5610658Y-22445317D01*
X5610658Y-22445317D02*
X5734467Y-22445317D01*
X5801134Y-22311984D02*
X5801134Y-22350079D01*
X5877325Y-22311984D02*
X5877325Y-22350079D01*
X6172563Y-22588174D02*
X6163039Y-22578650D01*
X6163039Y-22578650D02*
X6143991Y-22550079D01*
X6143991Y-22550079D02*
X6134468Y-22531031D01*
X6134468Y-22531031D02*
X6124944Y-22502460D01*
X6124944Y-22502460D02*
X6115420Y-22454841D01*
X6115420Y-22454841D02*
X6115420Y-22416746D01*
X6115420Y-22416746D02*
X6124944Y-22369127D01*
X6124944Y-22369127D02*
X6134468Y-22340555D01*
X6134468Y-22340555D02*
X6143991Y-22321508D01*
X6143991Y-22321508D02*
X6163039Y-22292936D01*
X6163039Y-22292936D02*
X6172563Y-22283412D01*
X6353515Y-22511984D02*
X6239229Y-22511984D01*
X6296372Y-22511984D02*
X6296372Y-22311984D01*
X6296372Y-22311984D02*
X6277325Y-22340555D01*
X6277325Y-22340555D02*
X6258277Y-22359603D01*
X6258277Y-22359603D02*
X6239229Y-22369127D01*
X6543991Y-22511984D02*
X6429706Y-22511984D01*
X6486848Y-22511984D02*
X6486848Y-22311984D01*
X6486848Y-22311984D02*
X6467801Y-22340555D01*
X6467801Y-22340555D02*
X6448753Y-22359603D01*
X6448753Y-22359603D02*
X6429706Y-22369127D01*
X6782087Y-22511984D02*
X6782087Y-22311984D01*
X6867801Y-22511984D02*
X6867801Y-22407222D01*
X6867801Y-22407222D02*
X6858277Y-22388174D01*
X6858277Y-22388174D02*
X6839230Y-22378650D01*
X6839230Y-22378650D02*
X6810658Y-22378650D01*
X6810658Y-22378650D02*
X6791610Y-22388174D01*
X6791610Y-22388174D02*
X6782087Y-22397698D01*
X6991610Y-22511984D02*
X6972563Y-22502460D01*
X6972563Y-22502460D02*
X6963039Y-22492936D01*
X6963039Y-22492936D02*
X6953515Y-22473888D01*
X6953515Y-22473888D02*
X6953515Y-22416746D01*
X6953515Y-22416746D02*
X6963039Y-22397698D01*
X6963039Y-22397698D02*
X6972563Y-22388174D01*
X6972563Y-22388174D02*
X6991610Y-22378650D01*
X6991610Y-22378650D02*
X7020182Y-22378650D01*
X7020182Y-22378650D02*
X7039230Y-22388174D01*
X7039230Y-22388174D02*
X7048753Y-22397698D01*
X7048753Y-22397698D02*
X7058277Y-22416746D01*
X7058277Y-22416746D02*
X7058277Y-22473888D01*
X7058277Y-22473888D02*
X7048753Y-22492936D01*
X7048753Y-22492936D02*
X7039230Y-22502460D01*
X7039230Y-22502460D02*
X7020182Y-22511984D01*
X7020182Y-22511984D02*
X6991610Y-22511984D01*
X7172563Y-22511984D02*
X7153515Y-22502460D01*
X7153515Y-22502460D02*
X7143991Y-22483412D01*
X7143991Y-22483412D02*
X7143991Y-22311984D01*
X7324944Y-22502460D02*
X7305896Y-22511984D01*
X7305896Y-22511984D02*
X7267801Y-22511984D01*
X7267801Y-22511984D02*
X7248753Y-22502460D01*
X7248753Y-22502460D02*
X7239230Y-22483412D01*
X7239230Y-22483412D02*
X7239230Y-22407222D01*
X7239230Y-22407222D02*
X7248753Y-22388174D01*
X7248753Y-22388174D02*
X7267801Y-22378650D01*
X7267801Y-22378650D02*
X7305896Y-22378650D01*
X7305896Y-22378650D02*
X7324944Y-22388174D01*
X7324944Y-22388174D02*
X7334468Y-22407222D01*
X7334468Y-22407222D02*
X7334468Y-22426269D01*
X7334468Y-22426269D02*
X7239230Y-22445317D01*
X7410658Y-22502460D02*
X7429706Y-22511984D01*
X7429706Y-22511984D02*
X7467801Y-22511984D01*
X7467801Y-22511984D02*
X7486849Y-22502460D01*
X7486849Y-22502460D02*
X7496372Y-22483412D01*
X7496372Y-22483412D02*
X7496372Y-22473888D01*
X7496372Y-22473888D02*
X7486849Y-22454841D01*
X7486849Y-22454841D02*
X7467801Y-22445317D01*
X7467801Y-22445317D02*
X7439230Y-22445317D01*
X7439230Y-22445317D02*
X7420182Y-22435793D01*
X7420182Y-22435793D02*
X7410658Y-22416746D01*
X7410658Y-22416746D02*
X7410658Y-22407222D01*
X7410658Y-22407222D02*
X7420182Y-22388174D01*
X7420182Y-22388174D02*
X7439230Y-22378650D01*
X7439230Y-22378650D02*
X7467801Y-22378650D01*
X7467801Y-22378650D02*
X7486849Y-22388174D01*
X7734468Y-22435793D02*
X7886849Y-22435793D01*
X7810658Y-22511984D02*
X7810658Y-22359603D01*
X8220182Y-22378650D02*
X8220182Y-22511984D01*
X8172563Y-22302460D02*
X8124944Y-22445317D01*
X8124944Y-22445317D02*
X8248753Y-22445317D01*
X8353515Y-22397698D02*
X8334468Y-22388174D01*
X8334468Y-22388174D02*
X8324944Y-22378650D01*
X8324944Y-22378650D02*
X8315420Y-22359603D01*
X8315420Y-22359603D02*
X8315420Y-22350079D01*
X8315420Y-22350079D02*
X8324944Y-22331031D01*
X8324944Y-22331031D02*
X8334468Y-22321508D01*
X8334468Y-22321508D02*
X8353515Y-22311984D01*
X8353515Y-22311984D02*
X8391611Y-22311984D01*
X8391611Y-22311984D02*
X8410658Y-22321508D01*
X8410658Y-22321508D02*
X8420182Y-22331031D01*
X8420182Y-22331031D02*
X8429706Y-22350079D01*
X8429706Y-22350079D02*
X8429706Y-22359603D01*
X8429706Y-22359603D02*
X8420182Y-22378650D01*
X8420182Y-22378650D02*
X8410658Y-22388174D01*
X8410658Y-22388174D02*
X8391611Y-22397698D01*
X8391611Y-22397698D02*
X8353515Y-22397698D01*
X8353515Y-22397698D02*
X8334468Y-22407222D01*
X8334468Y-22407222D02*
X8324944Y-22416746D01*
X8324944Y-22416746D02*
X8315420Y-22435793D01*
X8315420Y-22435793D02*
X8315420Y-22473888D01*
X8315420Y-22473888D02*
X8324944Y-22492936D01*
X8324944Y-22492936D02*
X8334468Y-22502460D01*
X8334468Y-22502460D02*
X8353515Y-22511984D01*
X8353515Y-22511984D02*
X8391611Y-22511984D01*
X8391611Y-22511984D02*
X8410658Y-22502460D01*
X8410658Y-22502460D02*
X8420182Y-22492936D01*
X8420182Y-22492936D02*
X8429706Y-22473888D01*
X8429706Y-22473888D02*
X8429706Y-22435793D01*
X8429706Y-22435793D02*
X8420182Y-22416746D01*
X8420182Y-22416746D02*
X8410658Y-22407222D01*
X8410658Y-22407222D02*
X8391611Y-22397698D01*
X8658277Y-22502460D02*
X8677325Y-22511984D01*
X8677325Y-22511984D02*
X8715420Y-22511984D01*
X8715420Y-22511984D02*
X8734468Y-22502460D01*
X8734468Y-22502460D02*
X8743992Y-22483412D01*
X8743992Y-22483412D02*
X8743992Y-22473888D01*
X8743992Y-22473888D02*
X8734468Y-22454841D01*
X8734468Y-22454841D02*
X8715420Y-22445317D01*
X8715420Y-22445317D02*
X8686849Y-22445317D01*
X8686849Y-22445317D02*
X8667801Y-22435793D01*
X8667801Y-22435793D02*
X8658277Y-22416746D01*
X8658277Y-22416746D02*
X8658277Y-22407222D01*
X8658277Y-22407222D02*
X8667801Y-22388174D01*
X8667801Y-22388174D02*
X8686849Y-22378650D01*
X8686849Y-22378650D02*
X8715420Y-22378650D01*
X8715420Y-22378650D02*
X8734468Y-22388174D01*
X8858277Y-22511984D02*
X8839230Y-22502460D01*
X8839230Y-22502460D02*
X8829706Y-22483412D01*
X8829706Y-22483412D02*
X8829706Y-22311984D01*
X8963039Y-22511984D02*
X8943992Y-22502460D01*
X8943992Y-22502460D02*
X8934468Y-22492936D01*
X8934468Y-22492936D02*
X8924944Y-22473888D01*
X8924944Y-22473888D02*
X8924944Y-22416746D01*
X8924944Y-22416746D02*
X8934468Y-22397698D01*
X8934468Y-22397698D02*
X8943992Y-22388174D01*
X8943992Y-22388174D02*
X8963039Y-22378650D01*
X8963039Y-22378650D02*
X8991611Y-22378650D01*
X8991611Y-22378650D02*
X9010658Y-22388174D01*
X9010658Y-22388174D02*
X9020182Y-22397698D01*
X9020182Y-22397698D02*
X9029706Y-22416746D01*
X9029706Y-22416746D02*
X9029706Y-22473888D01*
X9029706Y-22473888D02*
X9020182Y-22492936D01*
X9020182Y-22492936D02*
X9010658Y-22502460D01*
X9010658Y-22502460D02*
X8991611Y-22511984D01*
X8991611Y-22511984D02*
X8963039Y-22511984D01*
X9086849Y-22378650D02*
X9163039Y-22378650D01*
X9115420Y-22311984D02*
X9115420Y-22483412D01*
X9115420Y-22483412D02*
X9124944Y-22502460D01*
X9124944Y-22502460D02*
X9143992Y-22511984D01*
X9143992Y-22511984D02*
X9163039Y-22511984D01*
X9220182Y-22502460D02*
X9239230Y-22511984D01*
X9239230Y-22511984D02*
X9277325Y-22511984D01*
X9277325Y-22511984D02*
X9296373Y-22502460D01*
X9296373Y-22502460D02*
X9305897Y-22483412D01*
X9305897Y-22483412D02*
X9305897Y-22473888D01*
X9305897Y-22473888D02*
X9296373Y-22454841D01*
X9296373Y-22454841D02*
X9277325Y-22445317D01*
X9277325Y-22445317D02*
X9248754Y-22445317D01*
X9248754Y-22445317D02*
X9229706Y-22435793D01*
X9229706Y-22435793D02*
X9220182Y-22416746D01*
X9220182Y-22416746D02*
X9220182Y-22407222D01*
X9220182Y-22407222D02*
X9229706Y-22388174D01*
X9229706Y-22388174D02*
X9248754Y-22378650D01*
X9248754Y-22378650D02*
X9277325Y-22378650D01*
X9277325Y-22378650D02*
X9296373Y-22388174D01*
X9372563Y-22588174D02*
X9382087Y-22578650D01*
X9382087Y-22578650D02*
X9401135Y-22550079D01*
X9401135Y-22550079D02*
X9410658Y-22531031D01*
X9410658Y-22531031D02*
X9420182Y-22502460D01*
X9420182Y-22502460D02*
X9429706Y-22454841D01*
X9429706Y-22454841D02*
X9429706Y-22416746D01*
X9429706Y-22416746D02*
X9420182Y-22369127D01*
X9420182Y-22369127D02*
X9410658Y-22340555D01*
X9410658Y-22340555D02*
X9401135Y-22321508D01*
X9401135Y-22321508D02*
X9382087Y-22292936D01*
X9382087Y-22292936D02*
X9372563Y-22283412D01*
M02*
