M48
; DRILL file {KiCad 8.0.3} date 2024-06-29T17:49:57+0200
; FORMAT={-:-/ absolute / metric / decimal}
; #@! TF.CreationDate,2024-06-29T17:49:57+02:00
; #@! TF.GenerationSoftware,Kicad,Pcbnew,8.0.3
; #@! TF.FileFunction,Plated,1,2,PTH
FMAT,2
METRIC
; #@! TA.AperFunction,Plated,PTH,ComponentDrill
T1C0.600
; #@! TA.AperFunction,Plated,PTH,ComponentDrill
T2C0.800
; #@! TA.AperFunction,Plated,PTH,ComponentDrill
T3C1.000
%
G90
G05
T1
X31.0Y-110.027
X31.0Y-112.027
X31.0Y-138.5
X31.0Y-140.5
T2
X29.5Y-45.19
X29.5Y-52.81
X29.5Y-61.69
X29.5Y-69.31
X29.5Y-78.19
X29.5Y-85.81
X29.5Y-94.69
X29.5Y-102.31
X29.5Y-147.69
X29.5Y-155.31
X29.5Y-164.19
X29.5Y-171.81
X29.5Y-180.69
X29.5Y-188.31
X29.5Y-197.19
X29.5Y-204.81
X39.38Y-117.3
X39.38Y-119.84
X39.38Y-122.38
X39.38Y-124.92
X39.38Y-127.46
X39.38Y-130.0
X39.38Y-132.54
X40.7Y-114.4
X40.7Y-135.45
X45.7Y-114.4
X45.7Y-135.45
X47.0Y-117.3
X47.0Y-119.84
X47.0Y-122.38
X47.0Y-124.92
X47.0Y-127.46
X47.0Y-130.0
X47.0Y-132.54
X52.18Y-117.3
X52.18Y-119.84
X52.18Y-122.38
X52.18Y-124.92
X52.18Y-127.46
X52.18Y-130.0
X52.18Y-132.54
X53.5Y-114.4
X53.5Y-135.45
X58.5Y-114.4
X58.5Y-135.45
X59.8Y-117.3
X59.8Y-119.84
X59.8Y-122.38
X59.8Y-124.92
X59.8Y-127.46
X59.8Y-130.0
X59.8Y-132.54
X64.65Y-117.3
X64.65Y-119.84
X64.65Y-122.38
X64.65Y-124.92
X64.65Y-127.46
X64.65Y-130.0
X64.65Y-132.54
X66.0Y-114.4
X66.0Y-135.45
X70.5Y-45.19
X70.5Y-52.81
X70.5Y-61.69
X70.5Y-69.31
X70.5Y-78.19
X70.5Y-85.81
X70.5Y-94.69
X70.5Y-102.31
X70.5Y-147.69
X70.5Y-155.31
X70.5Y-164.19
X70.5Y-171.81
X70.5Y-180.69
X70.5Y-188.31
X70.5Y-197.19
X70.5Y-204.81
X71.0Y-114.4
X71.0Y-135.45
X72.27Y-117.3
X72.27Y-119.84
X72.27Y-122.38
X72.27Y-124.92
X72.27Y-127.46
X72.27Y-130.0
X72.27Y-132.54
T3
X29.023Y-105.523
X29.96Y-120.0
X29.96Y-122.54
X29.96Y-125.08
X29.96Y-127.62
X29.96Y-130.16
X32.5Y-120.0
X32.5Y-122.54
X32.5Y-125.08
X32.5Y-127.62
X32.5Y-130.16
T3
X35.934Y-43.873G85X34.873Y-44.934
G05
X35.934Y-60.373G85X34.873Y-61.434
G05
X35.934Y-93.373G85X34.873Y-94.434
G05
X35.934Y-146.373G85X34.873Y-147.434
G05
X35.934Y-179.373G85X34.873Y-180.434
G05
X35.934Y-195.873G85X34.873Y-196.934
G05
X35.947Y-76.873G85X34.886Y-77.934
G05
X35.947Y-162.873G85X34.886Y-163.934
G05
X41.75Y-42.5G85X43.25Y-42.5
G05
X41.75Y-59.0G85X43.25Y-59.0
G05
X41.75Y-92.0G85X43.25Y-92.0
G05
X41.75Y-145.0G85X43.25Y-145.0
G05
X41.75Y-178.0G85X43.25Y-178.0
G05
X41.75Y-194.5G85X43.25Y-194.5
G05
X41.762Y-75.5G85X43.262Y-75.5
G05
X41.762Y-161.5G85X43.262Y-161.5
G05
X46.5Y-47.75G85X46.5Y-49.25
G05
X46.5Y-64.25G85X46.5Y-65.75
G05
X46.5Y-97.25G85X46.5Y-98.75
G05
X46.5Y-150.25G85X46.5Y-151.75
G05
X46.5Y-183.25G85X46.5Y-184.75
G05
X46.5Y-199.75G85X46.5Y-201.25
G05
X46.512Y-80.75G85X46.512Y-82.25
G05
X46.512Y-166.75G85X46.512Y-168.25
G05
X55.934Y-43.873G85X54.873Y-44.934
G05
X55.934Y-60.373G85X54.873Y-61.434
G05
X55.934Y-76.873G85X54.873Y-77.934
G05
X55.934Y-93.373G85X54.873Y-94.434
G05
X55.934Y-146.373G85X54.873Y-147.434
G05
X55.934Y-162.873G85X54.873Y-163.934
G05
X55.934Y-179.373G85X54.873Y-180.434
G05
X55.934Y-195.873G85X54.873Y-196.934
G05
X61.75Y-42.5G85X63.25Y-42.5
G05
X61.75Y-59.0G85X63.25Y-59.0
G05
X61.75Y-75.5G85X63.25Y-75.5
G05
X61.75Y-92.0G85X63.25Y-92.0
G05
X61.75Y-145.0G85X63.25Y-145.0
G05
X61.75Y-161.5G85X63.25Y-161.5
G05
X61.75Y-178.0G85X63.25Y-178.0
G05
X61.75Y-194.5G85X63.25Y-194.5
G05
X66.5Y-47.75G85X66.5Y-49.25
G05
X66.5Y-64.25G85X66.5Y-65.75
G05
X66.5Y-80.75G85X66.5Y-82.25
G05
X66.5Y-97.25G85X66.5Y-98.75
G05
X66.5Y-150.25G85X66.5Y-151.75
G05
X66.5Y-166.75G85X66.5Y-168.25
G05
X66.5Y-183.25G85X66.5Y-184.75
G05
X66.5Y-199.75G85X66.5Y-201.25
G05
M30
