%TF.GenerationSoftware,KiCad,Pcbnew,8.0.3*%
%TF.CreationDate,2024-06-29T17:49:58+02:00*%
%TF.ProjectId,DMH_Buffered_Mult_PCB,444d485f-4275-4666-9665-7265645f4d75,1*%
%TF.SameCoordinates,Original*%
%TF.FileFunction,Drillmap*%
%TF.FilePolarity,Positive*%
%FSLAX45Y45*%
G04 Gerber Fmt 4.5, Leading zero omitted, Abs format (unit mm)*
G04 Created by KiCad (PCBNEW 8.0.3) date 2024-06-29 17:49:58*
%MOMM*%
%LPD*%
G01*
G04 APERTURE LIST*
%ADD10C,0.050000*%
%ADD11C,0.200000*%
G04 APERTURE END LIST*
D10*
X2600000Y-3750000D02*
X7400000Y-3750000D01*
X7400000Y-21250000D01*
X2600000Y-21250000D01*
X2600000Y-3750000D01*
D11*
X2858277Y-21563984D02*
X2858277Y-21363984D01*
X2858277Y-21363984D02*
X2905896Y-21363984D01*
X2905896Y-21363984D02*
X2934467Y-21373508D01*
X2934467Y-21373508D02*
X2953515Y-21392555D01*
X2953515Y-21392555D02*
X2963039Y-21411603D01*
X2963039Y-21411603D02*
X2972562Y-21449698D01*
X2972562Y-21449698D02*
X2972562Y-21478270D01*
X2972562Y-21478270D02*
X2963039Y-21516365D01*
X2963039Y-21516365D02*
X2953515Y-21535412D01*
X2953515Y-21535412D02*
X2934467Y-21554460D01*
X2934467Y-21554460D02*
X2905896Y-21563984D01*
X2905896Y-21563984D02*
X2858277Y-21563984D01*
X3058277Y-21563984D02*
X3058277Y-21430650D01*
X3058277Y-21468746D02*
X3067801Y-21449698D01*
X3067801Y-21449698D02*
X3077324Y-21440174D01*
X3077324Y-21440174D02*
X3096372Y-21430650D01*
X3096372Y-21430650D02*
X3115420Y-21430650D01*
X3182086Y-21563984D02*
X3182086Y-21430650D01*
X3182086Y-21363984D02*
X3172562Y-21373508D01*
X3172562Y-21373508D02*
X3182086Y-21383031D01*
X3182086Y-21383031D02*
X3191610Y-21373508D01*
X3191610Y-21373508D02*
X3182086Y-21363984D01*
X3182086Y-21363984D02*
X3182086Y-21383031D01*
X3305896Y-21563984D02*
X3286848Y-21554460D01*
X3286848Y-21554460D02*
X3277324Y-21535412D01*
X3277324Y-21535412D02*
X3277324Y-21363984D01*
X3410658Y-21563984D02*
X3391610Y-21554460D01*
X3391610Y-21554460D02*
X3382086Y-21535412D01*
X3382086Y-21535412D02*
X3382086Y-21363984D01*
X3639229Y-21563984D02*
X3639229Y-21363984D01*
X3639229Y-21363984D02*
X3705896Y-21506841D01*
X3705896Y-21506841D02*
X3772562Y-21363984D01*
X3772562Y-21363984D02*
X3772562Y-21563984D01*
X3953515Y-21563984D02*
X3953515Y-21459222D01*
X3953515Y-21459222D02*
X3943991Y-21440174D01*
X3943991Y-21440174D02*
X3924943Y-21430650D01*
X3924943Y-21430650D02*
X3886848Y-21430650D01*
X3886848Y-21430650D02*
X3867801Y-21440174D01*
X3953515Y-21554460D02*
X3934467Y-21563984D01*
X3934467Y-21563984D02*
X3886848Y-21563984D01*
X3886848Y-21563984D02*
X3867801Y-21554460D01*
X3867801Y-21554460D02*
X3858277Y-21535412D01*
X3858277Y-21535412D02*
X3858277Y-21516365D01*
X3858277Y-21516365D02*
X3867801Y-21497317D01*
X3867801Y-21497317D02*
X3886848Y-21487793D01*
X3886848Y-21487793D02*
X3934467Y-21487793D01*
X3934467Y-21487793D02*
X3953515Y-21478270D01*
X4048753Y-21430650D02*
X4048753Y-21630650D01*
X4048753Y-21440174D02*
X4067801Y-21430650D01*
X4067801Y-21430650D02*
X4105896Y-21430650D01*
X4105896Y-21430650D02*
X4124943Y-21440174D01*
X4124943Y-21440174D02*
X4134467Y-21449698D01*
X4134467Y-21449698D02*
X4143991Y-21468746D01*
X4143991Y-21468746D02*
X4143991Y-21525889D01*
X4143991Y-21525889D02*
X4134467Y-21544936D01*
X4134467Y-21544936D02*
X4124943Y-21554460D01*
X4124943Y-21554460D02*
X4105896Y-21563984D01*
X4105896Y-21563984D02*
X4067801Y-21563984D01*
X4067801Y-21563984D02*
X4048753Y-21554460D01*
X4229705Y-21544936D02*
X4239229Y-21554460D01*
X4239229Y-21554460D02*
X4229705Y-21563984D01*
X4229705Y-21563984D02*
X4220182Y-21554460D01*
X4220182Y-21554460D02*
X4229705Y-21544936D01*
X4229705Y-21544936D02*
X4229705Y-21563984D01*
X4229705Y-21440174D02*
X4239229Y-21449698D01*
X4239229Y-21449698D02*
X4229705Y-21459222D01*
X4229705Y-21459222D02*
X4220182Y-21449698D01*
X4220182Y-21449698D02*
X4229705Y-21440174D01*
X4229705Y-21440174D02*
X4229705Y-21459222D01*
M02*
