G04 #@! TF.GenerationSoftware,KiCad,Pcbnew,8.0.3*
G04 #@! TF.CreationDate,2024-06-29T17:49:17+02:00*
G04 #@! TF.ProjectId,DMH_Buffered_Mult_PCB,444d485f-4275-4666-9665-7265645f4d75,1*
G04 #@! TF.SameCoordinates,Original*
G04 #@! TF.FileFunction,Legend,Bot*
G04 #@! TF.FilePolarity,Positive*
%FSLAX46Y46*%
G04 Gerber Fmt 4.6, Leading zero omitted, Abs format (unit mm)*
G04 Created by KiCad (PCBNEW 8.0.3) date 2024-06-29 17:49:17*
%MOMM*%
%LPD*%
G01*
G04 APERTURE LIST*
G04 Aperture macros list*
%AMRoundRect*
0 Rectangle with rounded corners*
0 $1 Rounding radius*
0 $2 $3 $4 $5 $6 $7 $8 $9 X,Y pos of 4 corners*
0 Add a 4 corners polygon primitive as box body*
4,1,4,$2,$3,$4,$5,$6,$7,$8,$9,$2,$3,0*
0 Add four circle primitives for the rounded corners*
1,1,$1+$1,$2,$3*
1,1,$1+$1,$4,$5*
1,1,$1+$1,$6,$7*
1,1,$1+$1,$8,$9*
0 Add four rect primitives between the rounded corners*
20,1,$1+$1,$2,$3,$4,$5,0*
20,1,$1+$1,$4,$5,$6,$7,0*
20,1,$1+$1,$6,$7,$8,$9,0*
20,1,$1+$1,$8,$9,$2,$3,0*%
%AMHorizOval*
0 Thick line with rounded ends*
0 $1 width*
0 $2 $3 position (X,Y) of the first rounded end (center of the circle)*
0 $4 $5 position (X,Y) of the second rounded end (center of the circle)*
0 Add line between two ends*
20,1,$1,$2,$3,$4,$5,0*
0 Add two circle primitives to create the rounded ends*
1,1,$1,$2,$3*
1,1,$1,$4,$5*%
G04 Aperture macros list end*
%ADD10C,0.150000*%
%ADD11C,0.120000*%
%ADD12HorizOval,1.712000X-0.533159X-0.533159X0.533159X0.533159X0*%
%ADD13O,1.712000X3.220000*%
%ADD14O,3.220000X1.712000*%
%ADD15R,1.700000X1.700000*%
%ADD16C,1.600000*%
%ADD17O,1.600000X1.600000*%
%ADD18RoundRect,0.250000X0.600000X0.600000X-0.600000X0.600000X-0.600000X-0.600000X0.600000X-0.600000X0*%
%ADD19C,1.700000*%
%ADD20R,1.600000X1.600000*%
%ADD21R,1.200000X1.200000*%
%ADD22C,1.200000*%
G04 APERTURE END LIST*
D10*
X61738097Y-210431009D02*
X61595240Y-210478628D01*
X61595240Y-210478628D02*
X61547621Y-210526247D01*
X61547621Y-210526247D02*
X61500002Y-210621485D01*
X61500002Y-210621485D02*
X61500002Y-210764342D01*
X61500002Y-210764342D02*
X61547621Y-210859580D01*
X61547621Y-210859580D02*
X61595240Y-210907200D01*
X61595240Y-210907200D02*
X61690478Y-210954819D01*
X61690478Y-210954819D02*
X62071430Y-210954819D01*
X62071430Y-210954819D02*
X62071430Y-209954819D01*
X62071430Y-209954819D02*
X61738097Y-209954819D01*
X61738097Y-209954819D02*
X61642859Y-210002438D01*
X61642859Y-210002438D02*
X61595240Y-210050057D01*
X61595240Y-210050057D02*
X61547621Y-210145295D01*
X61547621Y-210145295D02*
X61547621Y-210240533D01*
X61547621Y-210240533D02*
X61595240Y-210335771D01*
X61595240Y-210335771D02*
X61642859Y-210383390D01*
X61642859Y-210383390D02*
X61738097Y-210431009D01*
X61738097Y-210431009D02*
X62071430Y-210431009D01*
X60642859Y-210288152D02*
X60642859Y-210954819D01*
X61071430Y-210288152D02*
X61071430Y-210811961D01*
X61071430Y-210811961D02*
X61023811Y-210907200D01*
X61023811Y-210907200D02*
X60928573Y-210954819D01*
X60928573Y-210954819D02*
X60785716Y-210954819D01*
X60785716Y-210954819D02*
X60690478Y-210907200D01*
X60690478Y-210907200D02*
X60642859Y-210859580D01*
X60309525Y-210288152D02*
X59928573Y-210288152D01*
X60166668Y-210954819D02*
X60166668Y-210097676D01*
X60166668Y-210097676D02*
X60119049Y-210002438D01*
X60119049Y-210002438D02*
X60023811Y-209954819D01*
X60023811Y-209954819D02*
X59928573Y-209954819D01*
X59738096Y-210288152D02*
X59357144Y-210288152D01*
X59595239Y-210954819D02*
X59595239Y-210097676D01*
X59595239Y-210097676D02*
X59547620Y-210002438D01*
X59547620Y-210002438D02*
X59452382Y-209954819D01*
X59452382Y-209954819D02*
X59357144Y-209954819D01*
X58642858Y-210907200D02*
X58738096Y-210954819D01*
X58738096Y-210954819D02*
X58928572Y-210954819D01*
X58928572Y-210954819D02*
X59023810Y-210907200D01*
X59023810Y-210907200D02*
X59071429Y-210811961D01*
X59071429Y-210811961D02*
X59071429Y-210431009D01*
X59071429Y-210431009D02*
X59023810Y-210335771D01*
X59023810Y-210335771D02*
X58928572Y-210288152D01*
X58928572Y-210288152D02*
X58738096Y-210288152D01*
X58738096Y-210288152D02*
X58642858Y-210335771D01*
X58642858Y-210335771D02*
X58595239Y-210431009D01*
X58595239Y-210431009D02*
X58595239Y-210526247D01*
X58595239Y-210526247D02*
X59071429Y-210621485D01*
X58166667Y-210954819D02*
X58166667Y-210288152D01*
X58166667Y-210478628D02*
X58119048Y-210383390D01*
X58119048Y-210383390D02*
X58071429Y-210335771D01*
X58071429Y-210335771D02*
X57976191Y-210288152D01*
X57976191Y-210288152D02*
X57880953Y-210288152D01*
X57166667Y-210907200D02*
X57261905Y-210954819D01*
X57261905Y-210954819D02*
X57452381Y-210954819D01*
X57452381Y-210954819D02*
X57547619Y-210907200D01*
X57547619Y-210907200D02*
X57595238Y-210811961D01*
X57595238Y-210811961D02*
X57595238Y-210431009D01*
X57595238Y-210431009D02*
X57547619Y-210335771D01*
X57547619Y-210335771D02*
X57452381Y-210288152D01*
X57452381Y-210288152D02*
X57261905Y-210288152D01*
X57261905Y-210288152D02*
X57166667Y-210335771D01*
X57166667Y-210335771D02*
X57119048Y-210431009D01*
X57119048Y-210431009D02*
X57119048Y-210526247D01*
X57119048Y-210526247D02*
X57595238Y-210621485D01*
X56261905Y-210954819D02*
X56261905Y-209954819D01*
X56261905Y-210907200D02*
X56357143Y-210954819D01*
X56357143Y-210954819D02*
X56547619Y-210954819D01*
X56547619Y-210954819D02*
X56642857Y-210907200D01*
X56642857Y-210907200D02*
X56690476Y-210859580D01*
X56690476Y-210859580D02*
X56738095Y-210764342D01*
X56738095Y-210764342D02*
X56738095Y-210478628D01*
X56738095Y-210478628D02*
X56690476Y-210383390D01*
X56690476Y-210383390D02*
X56642857Y-210335771D01*
X56642857Y-210335771D02*
X56547619Y-210288152D01*
X56547619Y-210288152D02*
X56357143Y-210288152D01*
X56357143Y-210288152D02*
X56261905Y-210335771D01*
X55023809Y-210954819D02*
X55023809Y-209954819D01*
X55023809Y-209954819D02*
X54690476Y-210669104D01*
X54690476Y-210669104D02*
X54357143Y-209954819D01*
X54357143Y-209954819D02*
X54357143Y-210954819D01*
X53452381Y-210288152D02*
X53452381Y-210954819D01*
X53880952Y-210288152D02*
X53880952Y-210811961D01*
X53880952Y-210811961D02*
X53833333Y-210907200D01*
X53833333Y-210907200D02*
X53738095Y-210954819D01*
X53738095Y-210954819D02*
X53595238Y-210954819D01*
X53595238Y-210954819D02*
X53500000Y-210907200D01*
X53500000Y-210907200D02*
X53452381Y-210859580D01*
X52833333Y-210954819D02*
X52928571Y-210907200D01*
X52928571Y-210907200D02*
X52976190Y-210811961D01*
X52976190Y-210811961D02*
X52976190Y-209954819D01*
X52595237Y-210288152D02*
X52214285Y-210288152D01*
X52452380Y-209954819D02*
X52452380Y-210811961D01*
X52452380Y-210811961D02*
X52404761Y-210907200D01*
X52404761Y-210907200D02*
X52309523Y-210954819D01*
X52309523Y-210954819D02*
X52214285Y-210954819D01*
X51119046Y-210954819D02*
X51119046Y-209954819D01*
X51119046Y-209954819D02*
X50785713Y-210669104D01*
X50785713Y-210669104D02*
X50452380Y-209954819D01*
X50452380Y-209954819D02*
X50452380Y-210954819D01*
X49976189Y-210954819D02*
X49976189Y-209954819D01*
X49880951Y-210573866D02*
X49595237Y-210954819D01*
X49595237Y-210288152D02*
X49976189Y-210669104D01*
X48642856Y-210954819D02*
X49214284Y-210954819D01*
X48928570Y-210954819D02*
X48928570Y-209954819D01*
X48928570Y-209954819D02*
X49023808Y-210097676D01*
X49023808Y-210097676D02*
X49119046Y-210192914D01*
X49119046Y-210192914D02*
X49214284Y-210240533D01*
X47452379Y-210573866D02*
X46690475Y-210573866D01*
X45166665Y-209954819D02*
X45166665Y-210669104D01*
X45166665Y-210669104D02*
X45214284Y-210811961D01*
X45214284Y-210811961D02*
X45309522Y-210907200D01*
X45309522Y-210907200D02*
X45452379Y-210954819D01*
X45452379Y-210954819D02*
X45547617Y-210954819D01*
X44261903Y-210288152D02*
X44261903Y-210954819D01*
X44690474Y-210288152D02*
X44690474Y-210811961D01*
X44690474Y-210811961D02*
X44642855Y-210907200D01*
X44642855Y-210907200D02*
X44547617Y-210954819D01*
X44547617Y-210954819D02*
X44404760Y-210954819D01*
X44404760Y-210954819D02*
X44309522Y-210907200D01*
X44309522Y-210907200D02*
X44261903Y-210859580D01*
X43785712Y-210288152D02*
X43785712Y-210954819D01*
X43785712Y-210383390D02*
X43738093Y-210335771D01*
X43738093Y-210335771D02*
X43642855Y-210288152D01*
X43642855Y-210288152D02*
X43499998Y-210288152D01*
X43499998Y-210288152D02*
X43404760Y-210335771D01*
X43404760Y-210335771D02*
X43357141Y-210431009D01*
X43357141Y-210431009D02*
X43357141Y-210954819D01*
X42499998Y-210907200D02*
X42595236Y-210954819D01*
X42595236Y-210954819D02*
X42785712Y-210954819D01*
X42785712Y-210954819D02*
X42880950Y-210907200D01*
X42880950Y-210907200D02*
X42928569Y-210811961D01*
X42928569Y-210811961D02*
X42928569Y-210431009D01*
X42928569Y-210431009D02*
X42880950Y-210335771D01*
X42880950Y-210335771D02*
X42785712Y-210288152D01*
X42785712Y-210288152D02*
X42595236Y-210288152D01*
X42595236Y-210288152D02*
X42499998Y-210335771D01*
X42499998Y-210335771D02*
X42452379Y-210431009D01*
X42452379Y-210431009D02*
X42452379Y-210526247D01*
X42452379Y-210526247D02*
X42928569Y-210621485D01*
X41309521Y-210050057D02*
X41261902Y-210002438D01*
X41261902Y-210002438D02*
X41166664Y-209954819D01*
X41166664Y-209954819D02*
X40928569Y-209954819D01*
X40928569Y-209954819D02*
X40833331Y-210002438D01*
X40833331Y-210002438D02*
X40785712Y-210050057D01*
X40785712Y-210050057D02*
X40738093Y-210145295D01*
X40738093Y-210145295D02*
X40738093Y-210240533D01*
X40738093Y-210240533D02*
X40785712Y-210383390D01*
X40785712Y-210383390D02*
X41357140Y-210954819D01*
X41357140Y-210954819D02*
X40738093Y-210954819D01*
X40119045Y-209954819D02*
X40023807Y-209954819D01*
X40023807Y-209954819D02*
X39928569Y-210002438D01*
X39928569Y-210002438D02*
X39880950Y-210050057D01*
X39880950Y-210050057D02*
X39833331Y-210145295D01*
X39833331Y-210145295D02*
X39785712Y-210335771D01*
X39785712Y-210335771D02*
X39785712Y-210573866D01*
X39785712Y-210573866D02*
X39833331Y-210764342D01*
X39833331Y-210764342D02*
X39880950Y-210859580D01*
X39880950Y-210859580D02*
X39928569Y-210907200D01*
X39928569Y-210907200D02*
X40023807Y-210954819D01*
X40023807Y-210954819D02*
X40119045Y-210954819D01*
X40119045Y-210954819D02*
X40214283Y-210907200D01*
X40214283Y-210907200D02*
X40261902Y-210859580D01*
X40261902Y-210859580D02*
X40309521Y-210764342D01*
X40309521Y-210764342D02*
X40357140Y-210573866D01*
X40357140Y-210573866D02*
X40357140Y-210335771D01*
X40357140Y-210335771D02*
X40309521Y-210145295D01*
X40309521Y-210145295D02*
X40261902Y-210050057D01*
X40261902Y-210050057D02*
X40214283Y-210002438D01*
X40214283Y-210002438D02*
X40119045Y-209954819D01*
X39404759Y-210050057D02*
X39357140Y-210002438D01*
X39357140Y-210002438D02*
X39261902Y-209954819D01*
X39261902Y-209954819D02*
X39023807Y-209954819D01*
X39023807Y-209954819D02*
X38928569Y-210002438D01*
X38928569Y-210002438D02*
X38880950Y-210050057D01*
X38880950Y-210050057D02*
X38833331Y-210145295D01*
X38833331Y-210145295D02*
X38833331Y-210240533D01*
X38833331Y-210240533D02*
X38880950Y-210383390D01*
X38880950Y-210383390D02*
X39452378Y-210954819D01*
X39452378Y-210954819D02*
X38833331Y-210954819D01*
X37976188Y-210288152D02*
X37976188Y-210954819D01*
X38214283Y-209907200D02*
X38452378Y-210621485D01*
X38452378Y-210621485D02*
X37833331Y-210621485D01*
X27584819Y-167357142D02*
X27108628Y-167023809D01*
X27584819Y-166785714D02*
X26584819Y-166785714D01*
X26584819Y-166785714D02*
X26584819Y-167166666D01*
X26584819Y-167166666D02*
X26632438Y-167261904D01*
X26632438Y-167261904D02*
X26680057Y-167309523D01*
X26680057Y-167309523D02*
X26775295Y-167357142D01*
X26775295Y-167357142D02*
X26918152Y-167357142D01*
X26918152Y-167357142D02*
X27013390Y-167309523D01*
X27013390Y-167309523D02*
X27061009Y-167261904D01*
X27061009Y-167261904D02*
X27108628Y-167166666D01*
X27108628Y-167166666D02*
X27108628Y-166785714D01*
X27584819Y-168309523D02*
X27584819Y-167738095D01*
X27584819Y-168023809D02*
X26584819Y-168023809D01*
X26584819Y-168023809D02*
X26727676Y-167928571D01*
X26727676Y-167928571D02*
X26822914Y-167833333D01*
X26822914Y-167833333D02*
X26870533Y-167738095D01*
X26584819Y-168928571D02*
X26584819Y-169023809D01*
X26584819Y-169023809D02*
X26632438Y-169119047D01*
X26632438Y-169119047D02*
X26680057Y-169166666D01*
X26680057Y-169166666D02*
X26775295Y-169214285D01*
X26775295Y-169214285D02*
X26965771Y-169261904D01*
X26965771Y-169261904D02*
X27203866Y-169261904D01*
X27203866Y-169261904D02*
X27394342Y-169214285D01*
X27394342Y-169214285D02*
X27489580Y-169166666D01*
X27489580Y-169166666D02*
X27537200Y-169119047D01*
X27537200Y-169119047D02*
X27584819Y-169023809D01*
X27584819Y-169023809D02*
X27584819Y-168928571D01*
X27584819Y-168928571D02*
X27537200Y-168833333D01*
X27537200Y-168833333D02*
X27489580Y-168785714D01*
X27489580Y-168785714D02*
X27394342Y-168738095D01*
X27394342Y-168738095D02*
X27203866Y-168690476D01*
X27203866Y-168690476D02*
X26965771Y-168690476D01*
X26965771Y-168690476D02*
X26775295Y-168738095D01*
X26775295Y-168738095D02*
X26680057Y-168785714D01*
X26680057Y-168785714D02*
X26632438Y-168833333D01*
X26632438Y-168833333D02*
X26584819Y-168928571D01*
X27584819Y-65333333D02*
X27108628Y-65000000D01*
X27584819Y-64761905D02*
X26584819Y-64761905D01*
X26584819Y-64761905D02*
X26584819Y-65142857D01*
X26584819Y-65142857D02*
X26632438Y-65238095D01*
X26632438Y-65238095D02*
X26680057Y-65285714D01*
X26680057Y-65285714D02*
X26775295Y-65333333D01*
X26775295Y-65333333D02*
X26918152Y-65333333D01*
X26918152Y-65333333D02*
X27013390Y-65285714D01*
X27013390Y-65285714D02*
X27061009Y-65238095D01*
X27061009Y-65238095D02*
X27108628Y-65142857D01*
X27108628Y-65142857D02*
X27108628Y-64761905D01*
X26680057Y-65714286D02*
X26632438Y-65761905D01*
X26632438Y-65761905D02*
X26584819Y-65857143D01*
X26584819Y-65857143D02*
X26584819Y-66095238D01*
X26584819Y-66095238D02*
X26632438Y-66190476D01*
X26632438Y-66190476D02*
X26680057Y-66238095D01*
X26680057Y-66238095D02*
X26775295Y-66285714D01*
X26775295Y-66285714D02*
X26870533Y-66285714D01*
X26870533Y-66285714D02*
X27013390Y-66238095D01*
X27013390Y-66238095D02*
X27584819Y-65666667D01*
X27584819Y-65666667D02*
X27584819Y-66285714D01*
X56166666Y-135809580D02*
X56214285Y-135857200D01*
X56214285Y-135857200D02*
X56357142Y-135904819D01*
X56357142Y-135904819D02*
X56452380Y-135904819D01*
X56452380Y-135904819D02*
X56595237Y-135857200D01*
X56595237Y-135857200D02*
X56690475Y-135761961D01*
X56690475Y-135761961D02*
X56738094Y-135666723D01*
X56738094Y-135666723D02*
X56785713Y-135476247D01*
X56785713Y-135476247D02*
X56785713Y-135333390D01*
X56785713Y-135333390D02*
X56738094Y-135142914D01*
X56738094Y-135142914D02*
X56690475Y-135047676D01*
X56690475Y-135047676D02*
X56595237Y-134952438D01*
X56595237Y-134952438D02*
X56452380Y-134904819D01*
X56452380Y-134904819D02*
X56357142Y-134904819D01*
X56357142Y-134904819D02*
X56214285Y-134952438D01*
X56214285Y-134952438D02*
X56166666Y-135000057D01*
X55261904Y-134904819D02*
X55738094Y-134904819D01*
X55738094Y-134904819D02*
X55785713Y-135381009D01*
X55785713Y-135381009D02*
X55738094Y-135333390D01*
X55738094Y-135333390D02*
X55642856Y-135285771D01*
X55642856Y-135285771D02*
X55404761Y-135285771D01*
X55404761Y-135285771D02*
X55309523Y-135333390D01*
X55309523Y-135333390D02*
X55261904Y-135381009D01*
X55261904Y-135381009D02*
X55214285Y-135476247D01*
X55214285Y-135476247D02*
X55214285Y-135714342D01*
X55214285Y-135714342D02*
X55261904Y-135809580D01*
X55261904Y-135809580D02*
X55309523Y-135857200D01*
X55309523Y-135857200D02*
X55404761Y-135904819D01*
X55404761Y-135904819D02*
X55642856Y-135904819D01*
X55642856Y-135904819D02*
X55738094Y-135857200D01*
X55738094Y-135857200D02*
X55785713Y-135809580D01*
X57547619Y-137904819D02*
X58119047Y-137904819D01*
X57833333Y-137904819D02*
X57833333Y-136904819D01*
X57833333Y-136904819D02*
X57928571Y-137047676D01*
X57928571Y-137047676D02*
X58023809Y-137142914D01*
X58023809Y-137142914D02*
X58119047Y-137190533D01*
X56928571Y-136904819D02*
X56833333Y-136904819D01*
X56833333Y-136904819D02*
X56738095Y-136952438D01*
X56738095Y-136952438D02*
X56690476Y-137000057D01*
X56690476Y-137000057D02*
X56642857Y-137095295D01*
X56642857Y-137095295D02*
X56595238Y-137285771D01*
X56595238Y-137285771D02*
X56595238Y-137523866D01*
X56595238Y-137523866D02*
X56642857Y-137714342D01*
X56642857Y-137714342D02*
X56690476Y-137809580D01*
X56690476Y-137809580D02*
X56738095Y-137857200D01*
X56738095Y-137857200D02*
X56833333Y-137904819D01*
X56833333Y-137904819D02*
X56928571Y-137904819D01*
X56928571Y-137904819D02*
X57023809Y-137857200D01*
X57023809Y-137857200D02*
X57071428Y-137809580D01*
X57071428Y-137809580D02*
X57119047Y-137714342D01*
X57119047Y-137714342D02*
X57166666Y-137523866D01*
X57166666Y-137523866D02*
X57166666Y-137285771D01*
X57166666Y-137285771D02*
X57119047Y-137095295D01*
X57119047Y-137095295D02*
X57071428Y-137000057D01*
X57071428Y-137000057D02*
X57023809Y-136952438D01*
X57023809Y-136952438D02*
X56928571Y-136904819D01*
X55976190Y-136904819D02*
X55880952Y-136904819D01*
X55880952Y-136904819D02*
X55785714Y-136952438D01*
X55785714Y-136952438D02*
X55738095Y-137000057D01*
X55738095Y-137000057D02*
X55690476Y-137095295D01*
X55690476Y-137095295D02*
X55642857Y-137285771D01*
X55642857Y-137285771D02*
X55642857Y-137523866D01*
X55642857Y-137523866D02*
X55690476Y-137714342D01*
X55690476Y-137714342D02*
X55738095Y-137809580D01*
X55738095Y-137809580D02*
X55785714Y-137857200D01*
X55785714Y-137857200D02*
X55880952Y-137904819D01*
X55880952Y-137904819D02*
X55976190Y-137904819D01*
X55976190Y-137904819D02*
X56071428Y-137857200D01*
X56071428Y-137857200D02*
X56119047Y-137809580D01*
X56119047Y-137809580D02*
X56166666Y-137714342D01*
X56166666Y-137714342D02*
X56214285Y-137523866D01*
X56214285Y-137523866D02*
X56214285Y-137285771D01*
X56214285Y-137285771D02*
X56166666Y-137095295D01*
X56166666Y-137095295D02*
X56119047Y-137000057D01*
X56119047Y-137000057D02*
X56071428Y-136952438D01*
X56071428Y-136952438D02*
X55976190Y-136904819D01*
X55214285Y-137238152D02*
X55214285Y-137904819D01*
X55214285Y-137333390D02*
X55166666Y-137285771D01*
X55166666Y-137285771D02*
X55071428Y-137238152D01*
X55071428Y-137238152D02*
X54928571Y-137238152D01*
X54928571Y-137238152D02*
X54833333Y-137285771D01*
X54833333Y-137285771D02*
X54785714Y-137381009D01*
X54785714Y-137381009D02*
X54785714Y-137904819D01*
X53976190Y-137381009D02*
X54309523Y-137381009D01*
X54309523Y-137904819D02*
X54309523Y-136904819D01*
X54309523Y-136904819D02*
X53833333Y-136904819D01*
X32515714Y-117034819D02*
X32515714Y-117749104D01*
X32515714Y-117749104D02*
X32563333Y-117891961D01*
X32563333Y-117891961D02*
X32658571Y-117987200D01*
X32658571Y-117987200D02*
X32801428Y-118034819D01*
X32801428Y-118034819D02*
X32896666Y-118034819D01*
X31515714Y-118034819D02*
X32087142Y-118034819D01*
X31801428Y-118034819D02*
X31801428Y-117034819D01*
X31801428Y-117034819D02*
X31896666Y-117177676D01*
X31896666Y-117177676D02*
X31991904Y-117272914D01*
X31991904Y-117272914D02*
X32087142Y-117320533D01*
X30896666Y-117034819D02*
X30801428Y-117034819D01*
X30801428Y-117034819D02*
X30706190Y-117082438D01*
X30706190Y-117082438D02*
X30658571Y-117130057D01*
X30658571Y-117130057D02*
X30610952Y-117225295D01*
X30610952Y-117225295D02*
X30563333Y-117415771D01*
X30563333Y-117415771D02*
X30563333Y-117653866D01*
X30563333Y-117653866D02*
X30610952Y-117844342D01*
X30610952Y-117844342D02*
X30658571Y-117939580D01*
X30658571Y-117939580D02*
X30706190Y-117987200D01*
X30706190Y-117987200D02*
X30801428Y-118034819D01*
X30801428Y-118034819D02*
X30896666Y-118034819D01*
X30896666Y-118034819D02*
X30991904Y-117987200D01*
X30991904Y-117987200D02*
X31039523Y-117939580D01*
X31039523Y-117939580D02*
X31087142Y-117844342D01*
X31087142Y-117844342D02*
X31134761Y-117653866D01*
X31134761Y-117653866D02*
X31134761Y-117415771D01*
X31134761Y-117415771D02*
X31087142Y-117225295D01*
X31087142Y-117225295D02*
X31039523Y-117130057D01*
X31039523Y-117130057D02*
X30991904Y-117082438D01*
X30991904Y-117082438D02*
X30896666Y-117034819D01*
X29944285Y-117034819D02*
X29849047Y-117034819D01*
X29849047Y-117034819D02*
X29753809Y-117082438D01*
X29753809Y-117082438D02*
X29706190Y-117130057D01*
X29706190Y-117130057D02*
X29658571Y-117225295D01*
X29658571Y-117225295D02*
X29610952Y-117415771D01*
X29610952Y-117415771D02*
X29610952Y-117653866D01*
X29610952Y-117653866D02*
X29658571Y-117844342D01*
X29658571Y-117844342D02*
X29706190Y-117939580D01*
X29706190Y-117939580D02*
X29753809Y-117987200D01*
X29753809Y-117987200D02*
X29849047Y-118034819D01*
X29849047Y-118034819D02*
X29944285Y-118034819D01*
X29944285Y-118034819D02*
X30039523Y-117987200D01*
X30039523Y-117987200D02*
X30087142Y-117939580D01*
X30087142Y-117939580D02*
X30134761Y-117844342D01*
X30134761Y-117844342D02*
X30182380Y-117653866D01*
X30182380Y-117653866D02*
X30182380Y-117415771D01*
X30182380Y-117415771D02*
X30134761Y-117225295D01*
X30134761Y-117225295D02*
X30087142Y-117130057D01*
X30087142Y-117130057D02*
X30039523Y-117082438D01*
X30039523Y-117082438D02*
X29944285Y-117034819D01*
X73324819Y-150857142D02*
X72848628Y-150523809D01*
X73324819Y-150285714D02*
X72324819Y-150285714D01*
X72324819Y-150285714D02*
X72324819Y-150666666D01*
X72324819Y-150666666D02*
X72372438Y-150761904D01*
X72372438Y-150761904D02*
X72420057Y-150809523D01*
X72420057Y-150809523D02*
X72515295Y-150857142D01*
X72515295Y-150857142D02*
X72658152Y-150857142D01*
X72658152Y-150857142D02*
X72753390Y-150809523D01*
X72753390Y-150809523D02*
X72801009Y-150761904D01*
X72801009Y-150761904D02*
X72848628Y-150666666D01*
X72848628Y-150666666D02*
X72848628Y-150285714D01*
X73324819Y-151809523D02*
X73324819Y-151238095D01*
X73324819Y-151523809D02*
X72324819Y-151523809D01*
X72324819Y-151523809D02*
X72467676Y-151428571D01*
X72467676Y-151428571D02*
X72562914Y-151333333D01*
X72562914Y-151333333D02*
X72610533Y-151238095D01*
X72324819Y-152142857D02*
X72324819Y-152761904D01*
X72324819Y-152761904D02*
X72705771Y-152428571D01*
X72705771Y-152428571D02*
X72705771Y-152571428D01*
X72705771Y-152571428D02*
X72753390Y-152666666D01*
X72753390Y-152666666D02*
X72801009Y-152714285D01*
X72801009Y-152714285D02*
X72896247Y-152761904D01*
X72896247Y-152761904D02*
X73134342Y-152761904D01*
X73134342Y-152761904D02*
X73229580Y-152714285D01*
X73229580Y-152714285D02*
X73277200Y-152666666D01*
X73277200Y-152666666D02*
X73324819Y-152571428D01*
X73324819Y-152571428D02*
X73324819Y-152285714D01*
X73324819Y-152285714D02*
X73277200Y-152190476D01*
X73277200Y-152190476D02*
X73229580Y-152142857D01*
X73324819Y-81833333D02*
X72848628Y-81500000D01*
X73324819Y-81261905D02*
X72324819Y-81261905D01*
X72324819Y-81261905D02*
X72324819Y-81642857D01*
X72324819Y-81642857D02*
X72372438Y-81738095D01*
X72372438Y-81738095D02*
X72420057Y-81785714D01*
X72420057Y-81785714D02*
X72515295Y-81833333D01*
X72515295Y-81833333D02*
X72658152Y-81833333D01*
X72658152Y-81833333D02*
X72753390Y-81785714D01*
X72753390Y-81785714D02*
X72801009Y-81738095D01*
X72801009Y-81738095D02*
X72848628Y-81642857D01*
X72848628Y-81642857D02*
X72848628Y-81261905D01*
X72324819Y-82166667D02*
X72324819Y-82833333D01*
X72324819Y-82833333D02*
X73324819Y-82404762D01*
X73324819Y-167357142D02*
X72848628Y-167023809D01*
X73324819Y-166785714D02*
X72324819Y-166785714D01*
X72324819Y-166785714D02*
X72324819Y-167166666D01*
X72324819Y-167166666D02*
X72372438Y-167261904D01*
X72372438Y-167261904D02*
X72420057Y-167309523D01*
X72420057Y-167309523D02*
X72515295Y-167357142D01*
X72515295Y-167357142D02*
X72658152Y-167357142D01*
X72658152Y-167357142D02*
X72753390Y-167309523D01*
X72753390Y-167309523D02*
X72801009Y-167261904D01*
X72801009Y-167261904D02*
X72848628Y-167166666D01*
X72848628Y-167166666D02*
X72848628Y-166785714D01*
X73324819Y-168309523D02*
X73324819Y-167738095D01*
X73324819Y-168023809D02*
X72324819Y-168023809D01*
X72324819Y-168023809D02*
X72467676Y-167928571D01*
X72467676Y-167928571D02*
X72562914Y-167833333D01*
X72562914Y-167833333D02*
X72610533Y-167738095D01*
X72658152Y-169166666D02*
X73324819Y-169166666D01*
X72277200Y-168928571D02*
X72991485Y-168690476D01*
X72991485Y-168690476D02*
X72991485Y-169309523D01*
X56811904Y-122379819D02*
X56811904Y-123189342D01*
X56811904Y-123189342D02*
X56764285Y-123284580D01*
X56764285Y-123284580D02*
X56716666Y-123332200D01*
X56716666Y-123332200D02*
X56621428Y-123379819D01*
X56621428Y-123379819D02*
X56430952Y-123379819D01*
X56430952Y-123379819D02*
X56335714Y-123332200D01*
X56335714Y-123332200D02*
X56288095Y-123284580D01*
X56288095Y-123284580D02*
X56240476Y-123189342D01*
X56240476Y-123189342D02*
X56240476Y-122379819D01*
X55811904Y-122475057D02*
X55764285Y-122427438D01*
X55764285Y-122427438D02*
X55669047Y-122379819D01*
X55669047Y-122379819D02*
X55430952Y-122379819D01*
X55430952Y-122379819D02*
X55335714Y-122427438D01*
X55335714Y-122427438D02*
X55288095Y-122475057D01*
X55288095Y-122475057D02*
X55240476Y-122570295D01*
X55240476Y-122570295D02*
X55240476Y-122665533D01*
X55240476Y-122665533D02*
X55288095Y-122808390D01*
X55288095Y-122808390D02*
X55859523Y-123379819D01*
X55859523Y-123379819D02*
X55240476Y-123379819D01*
X58069047Y-126479819D02*
X57497619Y-126479819D01*
X57783333Y-127479819D02*
X57783333Y-126479819D01*
X56688095Y-127479819D02*
X57164285Y-127479819D01*
X57164285Y-127479819D02*
X57164285Y-126479819D01*
X56164285Y-126479819D02*
X56069047Y-126479819D01*
X56069047Y-126479819D02*
X55973809Y-126527438D01*
X55973809Y-126527438D02*
X55926190Y-126575057D01*
X55926190Y-126575057D02*
X55878571Y-126670295D01*
X55878571Y-126670295D02*
X55830952Y-126860771D01*
X55830952Y-126860771D02*
X55830952Y-127098866D01*
X55830952Y-127098866D02*
X55878571Y-127289342D01*
X55878571Y-127289342D02*
X55926190Y-127384580D01*
X55926190Y-127384580D02*
X55973809Y-127432200D01*
X55973809Y-127432200D02*
X56069047Y-127479819D01*
X56069047Y-127479819D02*
X56164285Y-127479819D01*
X56164285Y-127479819D02*
X56259523Y-127432200D01*
X56259523Y-127432200D02*
X56307142Y-127384580D01*
X56307142Y-127384580D02*
X56354761Y-127289342D01*
X56354761Y-127289342D02*
X56402380Y-127098866D01*
X56402380Y-127098866D02*
X56402380Y-126860771D01*
X56402380Y-126860771D02*
X56354761Y-126670295D01*
X56354761Y-126670295D02*
X56307142Y-126575057D01*
X56307142Y-126575057D02*
X56259523Y-126527438D01*
X56259523Y-126527438D02*
X56164285Y-126479819D01*
X55497618Y-126479819D02*
X54830952Y-126479819D01*
X54830952Y-126479819D02*
X55259523Y-127479819D01*
X54021428Y-126813152D02*
X54021428Y-127479819D01*
X54259523Y-126432200D02*
X54497618Y-127146485D01*
X54497618Y-127146485D02*
X53878571Y-127146485D01*
X27584819Y-98333333D02*
X27108628Y-98000000D01*
X27584819Y-97761905D02*
X26584819Y-97761905D01*
X26584819Y-97761905D02*
X26584819Y-98142857D01*
X26584819Y-98142857D02*
X26632438Y-98238095D01*
X26632438Y-98238095D02*
X26680057Y-98285714D01*
X26680057Y-98285714D02*
X26775295Y-98333333D01*
X26775295Y-98333333D02*
X26918152Y-98333333D01*
X26918152Y-98333333D02*
X27013390Y-98285714D01*
X27013390Y-98285714D02*
X27061009Y-98238095D01*
X27061009Y-98238095D02*
X27108628Y-98142857D01*
X27108628Y-98142857D02*
X27108628Y-97761905D01*
X26918152Y-99190476D02*
X27584819Y-99190476D01*
X26537200Y-98952381D02*
X27251485Y-98714286D01*
X27251485Y-98714286D02*
X27251485Y-99333333D01*
X27584819Y-200357142D02*
X27108628Y-200023809D01*
X27584819Y-199785714D02*
X26584819Y-199785714D01*
X26584819Y-199785714D02*
X26584819Y-200166666D01*
X26584819Y-200166666D02*
X26632438Y-200261904D01*
X26632438Y-200261904D02*
X26680057Y-200309523D01*
X26680057Y-200309523D02*
X26775295Y-200357142D01*
X26775295Y-200357142D02*
X26918152Y-200357142D01*
X26918152Y-200357142D02*
X27013390Y-200309523D01*
X27013390Y-200309523D02*
X27061009Y-200261904D01*
X27061009Y-200261904D02*
X27108628Y-200166666D01*
X27108628Y-200166666D02*
X27108628Y-199785714D01*
X27584819Y-201309523D02*
X27584819Y-200738095D01*
X27584819Y-201023809D02*
X26584819Y-201023809D01*
X26584819Y-201023809D02*
X26727676Y-200928571D01*
X26727676Y-200928571D02*
X26822914Y-200833333D01*
X26822914Y-200833333D02*
X26870533Y-200738095D01*
X26680057Y-201690476D02*
X26632438Y-201738095D01*
X26632438Y-201738095D02*
X26584819Y-201833333D01*
X26584819Y-201833333D02*
X26584819Y-202071428D01*
X26584819Y-202071428D02*
X26632438Y-202166666D01*
X26632438Y-202166666D02*
X26680057Y-202214285D01*
X26680057Y-202214285D02*
X26775295Y-202261904D01*
X26775295Y-202261904D02*
X26870533Y-202261904D01*
X26870533Y-202261904D02*
X27013390Y-202214285D01*
X27013390Y-202214285D02*
X27584819Y-201642857D01*
X27584819Y-201642857D02*
X27584819Y-202261904D01*
X27584819Y-48833333D02*
X27108628Y-48500000D01*
X27584819Y-48261905D02*
X26584819Y-48261905D01*
X26584819Y-48261905D02*
X26584819Y-48642857D01*
X26584819Y-48642857D02*
X26632438Y-48738095D01*
X26632438Y-48738095D02*
X26680057Y-48785714D01*
X26680057Y-48785714D02*
X26775295Y-48833333D01*
X26775295Y-48833333D02*
X26918152Y-48833333D01*
X26918152Y-48833333D02*
X27013390Y-48785714D01*
X27013390Y-48785714D02*
X27061009Y-48738095D01*
X27061009Y-48738095D02*
X27108628Y-48642857D01*
X27108628Y-48642857D02*
X27108628Y-48261905D01*
X27584819Y-49785714D02*
X27584819Y-49214286D01*
X27584819Y-49500000D02*
X26584819Y-49500000D01*
X26584819Y-49500000D02*
X26727676Y-49404762D01*
X26727676Y-49404762D02*
X26822914Y-49309524D01*
X26822914Y-49309524D02*
X26870533Y-49214286D01*
X43366666Y-114759580D02*
X43414285Y-114807200D01*
X43414285Y-114807200D02*
X43557142Y-114854819D01*
X43557142Y-114854819D02*
X43652380Y-114854819D01*
X43652380Y-114854819D02*
X43795237Y-114807200D01*
X43795237Y-114807200D02*
X43890475Y-114711961D01*
X43890475Y-114711961D02*
X43938094Y-114616723D01*
X43938094Y-114616723D02*
X43985713Y-114426247D01*
X43985713Y-114426247D02*
X43985713Y-114283390D01*
X43985713Y-114283390D02*
X43938094Y-114092914D01*
X43938094Y-114092914D02*
X43890475Y-113997676D01*
X43890475Y-113997676D02*
X43795237Y-113902438D01*
X43795237Y-113902438D02*
X43652380Y-113854819D01*
X43652380Y-113854819D02*
X43557142Y-113854819D01*
X43557142Y-113854819D02*
X43414285Y-113902438D01*
X43414285Y-113902438D02*
X43366666Y-113950057D01*
X42509523Y-114188152D02*
X42509523Y-114854819D01*
X42747618Y-113807200D02*
X42985713Y-114521485D01*
X42985713Y-114521485D02*
X42366666Y-114521485D01*
X44747619Y-112854819D02*
X45319047Y-112854819D01*
X45033333Y-112854819D02*
X45033333Y-111854819D01*
X45033333Y-111854819D02*
X45128571Y-111997676D01*
X45128571Y-111997676D02*
X45223809Y-112092914D01*
X45223809Y-112092914D02*
X45319047Y-112140533D01*
X44128571Y-111854819D02*
X44033333Y-111854819D01*
X44033333Y-111854819D02*
X43938095Y-111902438D01*
X43938095Y-111902438D02*
X43890476Y-111950057D01*
X43890476Y-111950057D02*
X43842857Y-112045295D01*
X43842857Y-112045295D02*
X43795238Y-112235771D01*
X43795238Y-112235771D02*
X43795238Y-112473866D01*
X43795238Y-112473866D02*
X43842857Y-112664342D01*
X43842857Y-112664342D02*
X43890476Y-112759580D01*
X43890476Y-112759580D02*
X43938095Y-112807200D01*
X43938095Y-112807200D02*
X44033333Y-112854819D01*
X44033333Y-112854819D02*
X44128571Y-112854819D01*
X44128571Y-112854819D02*
X44223809Y-112807200D01*
X44223809Y-112807200D02*
X44271428Y-112759580D01*
X44271428Y-112759580D02*
X44319047Y-112664342D01*
X44319047Y-112664342D02*
X44366666Y-112473866D01*
X44366666Y-112473866D02*
X44366666Y-112235771D01*
X44366666Y-112235771D02*
X44319047Y-112045295D01*
X44319047Y-112045295D02*
X44271428Y-111950057D01*
X44271428Y-111950057D02*
X44223809Y-111902438D01*
X44223809Y-111902438D02*
X44128571Y-111854819D01*
X43176190Y-111854819D02*
X43080952Y-111854819D01*
X43080952Y-111854819D02*
X42985714Y-111902438D01*
X42985714Y-111902438D02*
X42938095Y-111950057D01*
X42938095Y-111950057D02*
X42890476Y-112045295D01*
X42890476Y-112045295D02*
X42842857Y-112235771D01*
X42842857Y-112235771D02*
X42842857Y-112473866D01*
X42842857Y-112473866D02*
X42890476Y-112664342D01*
X42890476Y-112664342D02*
X42938095Y-112759580D01*
X42938095Y-112759580D02*
X42985714Y-112807200D01*
X42985714Y-112807200D02*
X43080952Y-112854819D01*
X43080952Y-112854819D02*
X43176190Y-112854819D01*
X43176190Y-112854819D02*
X43271428Y-112807200D01*
X43271428Y-112807200D02*
X43319047Y-112759580D01*
X43319047Y-112759580D02*
X43366666Y-112664342D01*
X43366666Y-112664342D02*
X43414285Y-112473866D01*
X43414285Y-112473866D02*
X43414285Y-112235771D01*
X43414285Y-112235771D02*
X43366666Y-112045295D01*
X43366666Y-112045295D02*
X43319047Y-111950057D01*
X43319047Y-111950057D02*
X43271428Y-111902438D01*
X43271428Y-111902438D02*
X43176190Y-111854819D01*
X42414285Y-112188152D02*
X42414285Y-112854819D01*
X42414285Y-112283390D02*
X42366666Y-112235771D01*
X42366666Y-112235771D02*
X42271428Y-112188152D01*
X42271428Y-112188152D02*
X42128571Y-112188152D01*
X42128571Y-112188152D02*
X42033333Y-112235771D01*
X42033333Y-112235771D02*
X41985714Y-112331009D01*
X41985714Y-112331009D02*
X41985714Y-112854819D01*
X41176190Y-112331009D02*
X41509523Y-112331009D01*
X41509523Y-112854819D02*
X41509523Y-111854819D01*
X41509523Y-111854819D02*
X41033333Y-111854819D01*
X73324819Y-48833333D02*
X72848628Y-48500000D01*
X73324819Y-48261905D02*
X72324819Y-48261905D01*
X72324819Y-48261905D02*
X72324819Y-48642857D01*
X72324819Y-48642857D02*
X72372438Y-48738095D01*
X72372438Y-48738095D02*
X72420057Y-48785714D01*
X72420057Y-48785714D02*
X72515295Y-48833333D01*
X72515295Y-48833333D02*
X72658152Y-48833333D01*
X72658152Y-48833333D02*
X72753390Y-48785714D01*
X72753390Y-48785714D02*
X72801009Y-48738095D01*
X72801009Y-48738095D02*
X72848628Y-48642857D01*
X72848628Y-48642857D02*
X72848628Y-48261905D01*
X72324819Y-49738095D02*
X72324819Y-49261905D01*
X72324819Y-49261905D02*
X72801009Y-49214286D01*
X72801009Y-49214286D02*
X72753390Y-49261905D01*
X72753390Y-49261905D02*
X72705771Y-49357143D01*
X72705771Y-49357143D02*
X72705771Y-49595238D01*
X72705771Y-49595238D02*
X72753390Y-49690476D01*
X72753390Y-49690476D02*
X72801009Y-49738095D01*
X72801009Y-49738095D02*
X72896247Y-49785714D01*
X72896247Y-49785714D02*
X73134342Y-49785714D01*
X73134342Y-49785714D02*
X73229580Y-49738095D01*
X73229580Y-49738095D02*
X73277200Y-49690476D01*
X73277200Y-49690476D02*
X73324819Y-49595238D01*
X73324819Y-49595238D02*
X73324819Y-49357143D01*
X73324819Y-49357143D02*
X73277200Y-49261905D01*
X73277200Y-49261905D02*
X73229580Y-49214286D01*
X27584819Y-151333333D02*
X27108628Y-151000000D01*
X27584819Y-150761905D02*
X26584819Y-150761905D01*
X26584819Y-150761905D02*
X26584819Y-151142857D01*
X26584819Y-151142857D02*
X26632438Y-151238095D01*
X26632438Y-151238095D02*
X26680057Y-151285714D01*
X26680057Y-151285714D02*
X26775295Y-151333333D01*
X26775295Y-151333333D02*
X26918152Y-151333333D01*
X26918152Y-151333333D02*
X27013390Y-151285714D01*
X27013390Y-151285714D02*
X27061009Y-151238095D01*
X27061009Y-151238095D02*
X27108628Y-151142857D01*
X27108628Y-151142857D02*
X27108628Y-150761905D01*
X27584819Y-151809524D02*
X27584819Y-152000000D01*
X27584819Y-152000000D02*
X27537200Y-152095238D01*
X27537200Y-152095238D02*
X27489580Y-152142857D01*
X27489580Y-152142857D02*
X27346723Y-152238095D01*
X27346723Y-152238095D02*
X27156247Y-152285714D01*
X27156247Y-152285714D02*
X26775295Y-152285714D01*
X26775295Y-152285714D02*
X26680057Y-152238095D01*
X26680057Y-152238095D02*
X26632438Y-152190476D01*
X26632438Y-152190476D02*
X26584819Y-152095238D01*
X26584819Y-152095238D02*
X26584819Y-151904762D01*
X26584819Y-151904762D02*
X26632438Y-151809524D01*
X26632438Y-151809524D02*
X26680057Y-151761905D01*
X26680057Y-151761905D02*
X26775295Y-151714286D01*
X26775295Y-151714286D02*
X27013390Y-151714286D01*
X27013390Y-151714286D02*
X27108628Y-151761905D01*
X27108628Y-151761905D02*
X27156247Y-151809524D01*
X27156247Y-151809524D02*
X27203866Y-151904762D01*
X27203866Y-151904762D02*
X27203866Y-152095238D01*
X27203866Y-152095238D02*
X27156247Y-152190476D01*
X27156247Y-152190476D02*
X27108628Y-152238095D01*
X27108628Y-152238095D02*
X27013390Y-152285714D01*
X73324819Y-65333333D02*
X72848628Y-65000000D01*
X73324819Y-64761905D02*
X72324819Y-64761905D01*
X72324819Y-64761905D02*
X72324819Y-65142857D01*
X72324819Y-65142857D02*
X72372438Y-65238095D01*
X72372438Y-65238095D02*
X72420057Y-65285714D01*
X72420057Y-65285714D02*
X72515295Y-65333333D01*
X72515295Y-65333333D02*
X72658152Y-65333333D01*
X72658152Y-65333333D02*
X72753390Y-65285714D01*
X72753390Y-65285714D02*
X72801009Y-65238095D01*
X72801009Y-65238095D02*
X72848628Y-65142857D01*
X72848628Y-65142857D02*
X72848628Y-64761905D01*
X72324819Y-66190476D02*
X72324819Y-66000000D01*
X72324819Y-66000000D02*
X72372438Y-65904762D01*
X72372438Y-65904762D02*
X72420057Y-65857143D01*
X72420057Y-65857143D02*
X72562914Y-65761905D01*
X72562914Y-65761905D02*
X72753390Y-65714286D01*
X72753390Y-65714286D02*
X73134342Y-65714286D01*
X73134342Y-65714286D02*
X73229580Y-65761905D01*
X73229580Y-65761905D02*
X73277200Y-65809524D01*
X73277200Y-65809524D02*
X73324819Y-65904762D01*
X73324819Y-65904762D02*
X73324819Y-66095238D01*
X73324819Y-66095238D02*
X73277200Y-66190476D01*
X73277200Y-66190476D02*
X73229580Y-66238095D01*
X73229580Y-66238095D02*
X73134342Y-66285714D01*
X73134342Y-66285714D02*
X72896247Y-66285714D01*
X72896247Y-66285714D02*
X72801009Y-66238095D01*
X72801009Y-66238095D02*
X72753390Y-66190476D01*
X72753390Y-66190476D02*
X72705771Y-66095238D01*
X72705771Y-66095238D02*
X72705771Y-65904762D01*
X72705771Y-65904762D02*
X72753390Y-65809524D01*
X72753390Y-65809524D02*
X72801009Y-65761905D01*
X72801009Y-65761905D02*
X72896247Y-65714286D01*
X68666666Y-114759580D02*
X68714285Y-114807200D01*
X68714285Y-114807200D02*
X68857142Y-114854819D01*
X68857142Y-114854819D02*
X68952380Y-114854819D01*
X68952380Y-114854819D02*
X69095237Y-114807200D01*
X69095237Y-114807200D02*
X69190475Y-114711961D01*
X69190475Y-114711961D02*
X69238094Y-114616723D01*
X69238094Y-114616723D02*
X69285713Y-114426247D01*
X69285713Y-114426247D02*
X69285713Y-114283390D01*
X69285713Y-114283390D02*
X69238094Y-114092914D01*
X69238094Y-114092914D02*
X69190475Y-113997676D01*
X69190475Y-113997676D02*
X69095237Y-113902438D01*
X69095237Y-113902438D02*
X68952380Y-113854819D01*
X68952380Y-113854819D02*
X68857142Y-113854819D01*
X68857142Y-113854819D02*
X68714285Y-113902438D01*
X68714285Y-113902438D02*
X68666666Y-113950057D01*
X68095237Y-114283390D02*
X68190475Y-114235771D01*
X68190475Y-114235771D02*
X68238094Y-114188152D01*
X68238094Y-114188152D02*
X68285713Y-114092914D01*
X68285713Y-114092914D02*
X68285713Y-114045295D01*
X68285713Y-114045295D02*
X68238094Y-113950057D01*
X68238094Y-113950057D02*
X68190475Y-113902438D01*
X68190475Y-113902438D02*
X68095237Y-113854819D01*
X68095237Y-113854819D02*
X67904761Y-113854819D01*
X67904761Y-113854819D02*
X67809523Y-113902438D01*
X67809523Y-113902438D02*
X67761904Y-113950057D01*
X67761904Y-113950057D02*
X67714285Y-114045295D01*
X67714285Y-114045295D02*
X67714285Y-114092914D01*
X67714285Y-114092914D02*
X67761904Y-114188152D01*
X67761904Y-114188152D02*
X67809523Y-114235771D01*
X67809523Y-114235771D02*
X67904761Y-114283390D01*
X67904761Y-114283390D02*
X68095237Y-114283390D01*
X68095237Y-114283390D02*
X68190475Y-114331009D01*
X68190475Y-114331009D02*
X68238094Y-114378628D01*
X68238094Y-114378628D02*
X68285713Y-114473866D01*
X68285713Y-114473866D02*
X68285713Y-114664342D01*
X68285713Y-114664342D02*
X68238094Y-114759580D01*
X68238094Y-114759580D02*
X68190475Y-114807200D01*
X68190475Y-114807200D02*
X68095237Y-114854819D01*
X68095237Y-114854819D02*
X67904761Y-114854819D01*
X67904761Y-114854819D02*
X67809523Y-114807200D01*
X67809523Y-114807200D02*
X67761904Y-114759580D01*
X67761904Y-114759580D02*
X67714285Y-114664342D01*
X67714285Y-114664342D02*
X67714285Y-114473866D01*
X67714285Y-114473866D02*
X67761904Y-114378628D01*
X67761904Y-114378628D02*
X67809523Y-114331009D01*
X67809523Y-114331009D02*
X67904761Y-114283390D01*
X70047619Y-112854819D02*
X70619047Y-112854819D01*
X70333333Y-112854819D02*
X70333333Y-111854819D01*
X70333333Y-111854819D02*
X70428571Y-111997676D01*
X70428571Y-111997676D02*
X70523809Y-112092914D01*
X70523809Y-112092914D02*
X70619047Y-112140533D01*
X69428571Y-111854819D02*
X69333333Y-111854819D01*
X69333333Y-111854819D02*
X69238095Y-111902438D01*
X69238095Y-111902438D02*
X69190476Y-111950057D01*
X69190476Y-111950057D02*
X69142857Y-112045295D01*
X69142857Y-112045295D02*
X69095238Y-112235771D01*
X69095238Y-112235771D02*
X69095238Y-112473866D01*
X69095238Y-112473866D02*
X69142857Y-112664342D01*
X69142857Y-112664342D02*
X69190476Y-112759580D01*
X69190476Y-112759580D02*
X69238095Y-112807200D01*
X69238095Y-112807200D02*
X69333333Y-112854819D01*
X69333333Y-112854819D02*
X69428571Y-112854819D01*
X69428571Y-112854819D02*
X69523809Y-112807200D01*
X69523809Y-112807200D02*
X69571428Y-112759580D01*
X69571428Y-112759580D02*
X69619047Y-112664342D01*
X69619047Y-112664342D02*
X69666666Y-112473866D01*
X69666666Y-112473866D02*
X69666666Y-112235771D01*
X69666666Y-112235771D02*
X69619047Y-112045295D01*
X69619047Y-112045295D02*
X69571428Y-111950057D01*
X69571428Y-111950057D02*
X69523809Y-111902438D01*
X69523809Y-111902438D02*
X69428571Y-111854819D01*
X68476190Y-111854819D02*
X68380952Y-111854819D01*
X68380952Y-111854819D02*
X68285714Y-111902438D01*
X68285714Y-111902438D02*
X68238095Y-111950057D01*
X68238095Y-111950057D02*
X68190476Y-112045295D01*
X68190476Y-112045295D02*
X68142857Y-112235771D01*
X68142857Y-112235771D02*
X68142857Y-112473866D01*
X68142857Y-112473866D02*
X68190476Y-112664342D01*
X68190476Y-112664342D02*
X68238095Y-112759580D01*
X68238095Y-112759580D02*
X68285714Y-112807200D01*
X68285714Y-112807200D02*
X68380952Y-112854819D01*
X68380952Y-112854819D02*
X68476190Y-112854819D01*
X68476190Y-112854819D02*
X68571428Y-112807200D01*
X68571428Y-112807200D02*
X68619047Y-112759580D01*
X68619047Y-112759580D02*
X68666666Y-112664342D01*
X68666666Y-112664342D02*
X68714285Y-112473866D01*
X68714285Y-112473866D02*
X68714285Y-112235771D01*
X68714285Y-112235771D02*
X68666666Y-112045295D01*
X68666666Y-112045295D02*
X68619047Y-111950057D01*
X68619047Y-111950057D02*
X68571428Y-111902438D01*
X68571428Y-111902438D02*
X68476190Y-111854819D01*
X67714285Y-112188152D02*
X67714285Y-112854819D01*
X67714285Y-112283390D02*
X67666666Y-112235771D01*
X67666666Y-112235771D02*
X67571428Y-112188152D01*
X67571428Y-112188152D02*
X67428571Y-112188152D01*
X67428571Y-112188152D02*
X67333333Y-112235771D01*
X67333333Y-112235771D02*
X67285714Y-112331009D01*
X67285714Y-112331009D02*
X67285714Y-112854819D01*
X66476190Y-112331009D02*
X66809523Y-112331009D01*
X66809523Y-112854819D02*
X66809523Y-111854819D01*
X66809523Y-111854819D02*
X66333333Y-111854819D01*
X56166666Y-114759580D02*
X56214285Y-114807200D01*
X56214285Y-114807200D02*
X56357142Y-114854819D01*
X56357142Y-114854819D02*
X56452380Y-114854819D01*
X56452380Y-114854819D02*
X56595237Y-114807200D01*
X56595237Y-114807200D02*
X56690475Y-114711961D01*
X56690475Y-114711961D02*
X56738094Y-114616723D01*
X56738094Y-114616723D02*
X56785713Y-114426247D01*
X56785713Y-114426247D02*
X56785713Y-114283390D01*
X56785713Y-114283390D02*
X56738094Y-114092914D01*
X56738094Y-114092914D02*
X56690475Y-113997676D01*
X56690475Y-113997676D02*
X56595237Y-113902438D01*
X56595237Y-113902438D02*
X56452380Y-113854819D01*
X56452380Y-113854819D02*
X56357142Y-113854819D01*
X56357142Y-113854819D02*
X56214285Y-113902438D01*
X56214285Y-113902438D02*
X56166666Y-113950057D01*
X55309523Y-113854819D02*
X55499999Y-113854819D01*
X55499999Y-113854819D02*
X55595237Y-113902438D01*
X55595237Y-113902438D02*
X55642856Y-113950057D01*
X55642856Y-113950057D02*
X55738094Y-114092914D01*
X55738094Y-114092914D02*
X55785713Y-114283390D01*
X55785713Y-114283390D02*
X55785713Y-114664342D01*
X55785713Y-114664342D02*
X55738094Y-114759580D01*
X55738094Y-114759580D02*
X55690475Y-114807200D01*
X55690475Y-114807200D02*
X55595237Y-114854819D01*
X55595237Y-114854819D02*
X55404761Y-114854819D01*
X55404761Y-114854819D02*
X55309523Y-114807200D01*
X55309523Y-114807200D02*
X55261904Y-114759580D01*
X55261904Y-114759580D02*
X55214285Y-114664342D01*
X55214285Y-114664342D02*
X55214285Y-114426247D01*
X55214285Y-114426247D02*
X55261904Y-114331009D01*
X55261904Y-114331009D02*
X55309523Y-114283390D01*
X55309523Y-114283390D02*
X55404761Y-114235771D01*
X55404761Y-114235771D02*
X55595237Y-114235771D01*
X55595237Y-114235771D02*
X55690475Y-114283390D01*
X55690475Y-114283390D02*
X55738094Y-114331009D01*
X55738094Y-114331009D02*
X55785713Y-114426247D01*
X57547619Y-112854819D02*
X58119047Y-112854819D01*
X57833333Y-112854819D02*
X57833333Y-111854819D01*
X57833333Y-111854819D02*
X57928571Y-111997676D01*
X57928571Y-111997676D02*
X58023809Y-112092914D01*
X58023809Y-112092914D02*
X58119047Y-112140533D01*
X56928571Y-111854819D02*
X56833333Y-111854819D01*
X56833333Y-111854819D02*
X56738095Y-111902438D01*
X56738095Y-111902438D02*
X56690476Y-111950057D01*
X56690476Y-111950057D02*
X56642857Y-112045295D01*
X56642857Y-112045295D02*
X56595238Y-112235771D01*
X56595238Y-112235771D02*
X56595238Y-112473866D01*
X56595238Y-112473866D02*
X56642857Y-112664342D01*
X56642857Y-112664342D02*
X56690476Y-112759580D01*
X56690476Y-112759580D02*
X56738095Y-112807200D01*
X56738095Y-112807200D02*
X56833333Y-112854819D01*
X56833333Y-112854819D02*
X56928571Y-112854819D01*
X56928571Y-112854819D02*
X57023809Y-112807200D01*
X57023809Y-112807200D02*
X57071428Y-112759580D01*
X57071428Y-112759580D02*
X57119047Y-112664342D01*
X57119047Y-112664342D02*
X57166666Y-112473866D01*
X57166666Y-112473866D02*
X57166666Y-112235771D01*
X57166666Y-112235771D02*
X57119047Y-112045295D01*
X57119047Y-112045295D02*
X57071428Y-111950057D01*
X57071428Y-111950057D02*
X57023809Y-111902438D01*
X57023809Y-111902438D02*
X56928571Y-111854819D01*
X55976190Y-111854819D02*
X55880952Y-111854819D01*
X55880952Y-111854819D02*
X55785714Y-111902438D01*
X55785714Y-111902438D02*
X55738095Y-111950057D01*
X55738095Y-111950057D02*
X55690476Y-112045295D01*
X55690476Y-112045295D02*
X55642857Y-112235771D01*
X55642857Y-112235771D02*
X55642857Y-112473866D01*
X55642857Y-112473866D02*
X55690476Y-112664342D01*
X55690476Y-112664342D02*
X55738095Y-112759580D01*
X55738095Y-112759580D02*
X55785714Y-112807200D01*
X55785714Y-112807200D02*
X55880952Y-112854819D01*
X55880952Y-112854819D02*
X55976190Y-112854819D01*
X55976190Y-112854819D02*
X56071428Y-112807200D01*
X56071428Y-112807200D02*
X56119047Y-112759580D01*
X56119047Y-112759580D02*
X56166666Y-112664342D01*
X56166666Y-112664342D02*
X56214285Y-112473866D01*
X56214285Y-112473866D02*
X56214285Y-112235771D01*
X56214285Y-112235771D02*
X56166666Y-112045295D01*
X56166666Y-112045295D02*
X56119047Y-111950057D01*
X56119047Y-111950057D02*
X56071428Y-111902438D01*
X56071428Y-111902438D02*
X55976190Y-111854819D01*
X55214285Y-112188152D02*
X55214285Y-112854819D01*
X55214285Y-112283390D02*
X55166666Y-112235771D01*
X55166666Y-112235771D02*
X55071428Y-112188152D01*
X55071428Y-112188152D02*
X54928571Y-112188152D01*
X54928571Y-112188152D02*
X54833333Y-112235771D01*
X54833333Y-112235771D02*
X54785714Y-112331009D01*
X54785714Y-112331009D02*
X54785714Y-112854819D01*
X53976190Y-112331009D02*
X54309523Y-112331009D01*
X54309523Y-112854819D02*
X54309523Y-111854819D01*
X54309523Y-111854819D02*
X53833333Y-111854819D01*
X69221904Y-122479819D02*
X69221904Y-123289342D01*
X69221904Y-123289342D02*
X69174285Y-123384580D01*
X69174285Y-123384580D02*
X69126666Y-123432200D01*
X69126666Y-123432200D02*
X69031428Y-123479819D01*
X69031428Y-123479819D02*
X68840952Y-123479819D01*
X68840952Y-123479819D02*
X68745714Y-123432200D01*
X68745714Y-123432200D02*
X68698095Y-123384580D01*
X68698095Y-123384580D02*
X68650476Y-123289342D01*
X68650476Y-123289342D02*
X68650476Y-122479819D01*
X68269523Y-122479819D02*
X67650476Y-122479819D01*
X67650476Y-122479819D02*
X67983809Y-122860771D01*
X67983809Y-122860771D02*
X67840952Y-122860771D01*
X67840952Y-122860771D02*
X67745714Y-122908390D01*
X67745714Y-122908390D02*
X67698095Y-122956009D01*
X67698095Y-122956009D02*
X67650476Y-123051247D01*
X67650476Y-123051247D02*
X67650476Y-123289342D01*
X67650476Y-123289342D02*
X67698095Y-123384580D01*
X67698095Y-123384580D02*
X67745714Y-123432200D01*
X67745714Y-123432200D02*
X67840952Y-123479819D01*
X67840952Y-123479819D02*
X68126666Y-123479819D01*
X68126666Y-123479819D02*
X68221904Y-123432200D01*
X68221904Y-123432200D02*
X68269523Y-123384580D01*
X70579047Y-126579819D02*
X70007619Y-126579819D01*
X70293333Y-127579819D02*
X70293333Y-126579819D01*
X69198095Y-127579819D02*
X69674285Y-127579819D01*
X69674285Y-127579819D02*
X69674285Y-126579819D01*
X68674285Y-126579819D02*
X68579047Y-126579819D01*
X68579047Y-126579819D02*
X68483809Y-126627438D01*
X68483809Y-126627438D02*
X68436190Y-126675057D01*
X68436190Y-126675057D02*
X68388571Y-126770295D01*
X68388571Y-126770295D02*
X68340952Y-126960771D01*
X68340952Y-126960771D02*
X68340952Y-127198866D01*
X68340952Y-127198866D02*
X68388571Y-127389342D01*
X68388571Y-127389342D02*
X68436190Y-127484580D01*
X68436190Y-127484580D02*
X68483809Y-127532200D01*
X68483809Y-127532200D02*
X68579047Y-127579819D01*
X68579047Y-127579819D02*
X68674285Y-127579819D01*
X68674285Y-127579819D02*
X68769523Y-127532200D01*
X68769523Y-127532200D02*
X68817142Y-127484580D01*
X68817142Y-127484580D02*
X68864761Y-127389342D01*
X68864761Y-127389342D02*
X68912380Y-127198866D01*
X68912380Y-127198866D02*
X68912380Y-126960771D01*
X68912380Y-126960771D02*
X68864761Y-126770295D01*
X68864761Y-126770295D02*
X68817142Y-126675057D01*
X68817142Y-126675057D02*
X68769523Y-126627438D01*
X68769523Y-126627438D02*
X68674285Y-126579819D01*
X68007618Y-126579819D02*
X67340952Y-126579819D01*
X67340952Y-126579819D02*
X67769523Y-127579819D01*
X66531428Y-126913152D02*
X66531428Y-127579819D01*
X66769523Y-126532200D02*
X67007618Y-127246485D01*
X67007618Y-127246485D02*
X66388571Y-127246485D01*
X27584819Y-81833333D02*
X27108628Y-81500000D01*
X27584819Y-81261905D02*
X26584819Y-81261905D01*
X26584819Y-81261905D02*
X26584819Y-81642857D01*
X26584819Y-81642857D02*
X26632438Y-81738095D01*
X26632438Y-81738095D02*
X26680057Y-81785714D01*
X26680057Y-81785714D02*
X26775295Y-81833333D01*
X26775295Y-81833333D02*
X26918152Y-81833333D01*
X26918152Y-81833333D02*
X27013390Y-81785714D01*
X27013390Y-81785714D02*
X27061009Y-81738095D01*
X27061009Y-81738095D02*
X27108628Y-81642857D01*
X27108628Y-81642857D02*
X27108628Y-81261905D01*
X26584819Y-82166667D02*
X26584819Y-82785714D01*
X26584819Y-82785714D02*
X26965771Y-82452381D01*
X26965771Y-82452381D02*
X26965771Y-82595238D01*
X26965771Y-82595238D02*
X27013390Y-82690476D01*
X27013390Y-82690476D02*
X27061009Y-82738095D01*
X27061009Y-82738095D02*
X27156247Y-82785714D01*
X27156247Y-82785714D02*
X27394342Y-82785714D01*
X27394342Y-82785714D02*
X27489580Y-82738095D01*
X27489580Y-82738095D02*
X27537200Y-82690476D01*
X27537200Y-82690476D02*
X27584819Y-82595238D01*
X27584819Y-82595238D02*
X27584819Y-82309524D01*
X27584819Y-82309524D02*
X27537200Y-82214286D01*
X27537200Y-82214286D02*
X27489580Y-82166667D01*
X27584819Y-183857142D02*
X27108628Y-183523809D01*
X27584819Y-183285714D02*
X26584819Y-183285714D01*
X26584819Y-183285714D02*
X26584819Y-183666666D01*
X26584819Y-183666666D02*
X26632438Y-183761904D01*
X26632438Y-183761904D02*
X26680057Y-183809523D01*
X26680057Y-183809523D02*
X26775295Y-183857142D01*
X26775295Y-183857142D02*
X26918152Y-183857142D01*
X26918152Y-183857142D02*
X27013390Y-183809523D01*
X27013390Y-183809523D02*
X27061009Y-183761904D01*
X27061009Y-183761904D02*
X27108628Y-183666666D01*
X27108628Y-183666666D02*
X27108628Y-183285714D01*
X27584819Y-184809523D02*
X27584819Y-184238095D01*
X27584819Y-184523809D02*
X26584819Y-184523809D01*
X26584819Y-184523809D02*
X26727676Y-184428571D01*
X26727676Y-184428571D02*
X26822914Y-184333333D01*
X26822914Y-184333333D02*
X26870533Y-184238095D01*
X27584819Y-185761904D02*
X27584819Y-185190476D01*
X27584819Y-185476190D02*
X26584819Y-185476190D01*
X26584819Y-185476190D02*
X26727676Y-185380952D01*
X26727676Y-185380952D02*
X26822914Y-185285714D01*
X26822914Y-185285714D02*
X26870533Y-185190476D01*
X73324819Y-200357142D02*
X72848628Y-200023809D01*
X73324819Y-199785714D02*
X72324819Y-199785714D01*
X72324819Y-199785714D02*
X72324819Y-200166666D01*
X72324819Y-200166666D02*
X72372438Y-200261904D01*
X72372438Y-200261904D02*
X72420057Y-200309523D01*
X72420057Y-200309523D02*
X72515295Y-200357142D01*
X72515295Y-200357142D02*
X72658152Y-200357142D01*
X72658152Y-200357142D02*
X72753390Y-200309523D01*
X72753390Y-200309523D02*
X72801009Y-200261904D01*
X72801009Y-200261904D02*
X72848628Y-200166666D01*
X72848628Y-200166666D02*
X72848628Y-199785714D01*
X73324819Y-201309523D02*
X73324819Y-200738095D01*
X73324819Y-201023809D02*
X72324819Y-201023809D01*
X72324819Y-201023809D02*
X72467676Y-200928571D01*
X72467676Y-200928571D02*
X72562914Y-200833333D01*
X72562914Y-200833333D02*
X72610533Y-200738095D01*
X72324819Y-202166666D02*
X72324819Y-201976190D01*
X72324819Y-201976190D02*
X72372438Y-201880952D01*
X72372438Y-201880952D02*
X72420057Y-201833333D01*
X72420057Y-201833333D02*
X72562914Y-201738095D01*
X72562914Y-201738095D02*
X72753390Y-201690476D01*
X72753390Y-201690476D02*
X73134342Y-201690476D01*
X73134342Y-201690476D02*
X73229580Y-201738095D01*
X73229580Y-201738095D02*
X73277200Y-201785714D01*
X73277200Y-201785714D02*
X73324819Y-201880952D01*
X73324819Y-201880952D02*
X73324819Y-202071428D01*
X73324819Y-202071428D02*
X73277200Y-202166666D01*
X73277200Y-202166666D02*
X73229580Y-202214285D01*
X73229580Y-202214285D02*
X73134342Y-202261904D01*
X73134342Y-202261904D02*
X72896247Y-202261904D01*
X72896247Y-202261904D02*
X72801009Y-202214285D01*
X72801009Y-202214285D02*
X72753390Y-202166666D01*
X72753390Y-202166666D02*
X72705771Y-202071428D01*
X72705771Y-202071428D02*
X72705771Y-201880952D01*
X72705771Y-201880952D02*
X72753390Y-201785714D01*
X72753390Y-201785714D02*
X72801009Y-201738095D01*
X72801009Y-201738095D02*
X72896247Y-201690476D01*
X28109580Y-110860734D02*
X28157200Y-110813115D01*
X28157200Y-110813115D02*
X28204819Y-110670258D01*
X28204819Y-110670258D02*
X28204819Y-110575020D01*
X28204819Y-110575020D02*
X28157200Y-110432163D01*
X28157200Y-110432163D02*
X28061961Y-110336925D01*
X28061961Y-110336925D02*
X27966723Y-110289306D01*
X27966723Y-110289306D02*
X27776247Y-110241687D01*
X27776247Y-110241687D02*
X27633390Y-110241687D01*
X27633390Y-110241687D02*
X27442914Y-110289306D01*
X27442914Y-110289306D02*
X27347676Y-110336925D01*
X27347676Y-110336925D02*
X27252438Y-110432163D01*
X27252438Y-110432163D02*
X27204819Y-110575020D01*
X27204819Y-110575020D02*
X27204819Y-110670258D01*
X27204819Y-110670258D02*
X27252438Y-110813115D01*
X27252438Y-110813115D02*
X27300057Y-110860734D01*
X27300057Y-111241687D02*
X27252438Y-111289306D01*
X27252438Y-111289306D02*
X27204819Y-111384544D01*
X27204819Y-111384544D02*
X27204819Y-111622639D01*
X27204819Y-111622639D02*
X27252438Y-111717877D01*
X27252438Y-111717877D02*
X27300057Y-111765496D01*
X27300057Y-111765496D02*
X27395295Y-111813115D01*
X27395295Y-111813115D02*
X27490533Y-111813115D01*
X27490533Y-111813115D02*
X27633390Y-111765496D01*
X27633390Y-111765496D02*
X28204819Y-111194068D01*
X28204819Y-111194068D02*
X28204819Y-111813115D01*
X34704819Y-109955972D02*
X34704819Y-109384544D01*
X34704819Y-109670258D02*
X33704819Y-109670258D01*
X33704819Y-109670258D02*
X33847676Y-109575020D01*
X33847676Y-109575020D02*
X33942914Y-109479782D01*
X33942914Y-109479782D02*
X33990533Y-109384544D01*
X33704819Y-110575020D02*
X33704819Y-110670258D01*
X33704819Y-110670258D02*
X33752438Y-110765496D01*
X33752438Y-110765496D02*
X33800057Y-110813115D01*
X33800057Y-110813115D02*
X33895295Y-110860734D01*
X33895295Y-110860734D02*
X34085771Y-110908353D01*
X34085771Y-110908353D02*
X34323866Y-110908353D01*
X34323866Y-110908353D02*
X34514342Y-110860734D01*
X34514342Y-110860734D02*
X34609580Y-110813115D01*
X34609580Y-110813115D02*
X34657200Y-110765496D01*
X34657200Y-110765496D02*
X34704819Y-110670258D01*
X34704819Y-110670258D02*
X34704819Y-110575020D01*
X34704819Y-110575020D02*
X34657200Y-110479782D01*
X34657200Y-110479782D02*
X34609580Y-110432163D01*
X34609580Y-110432163D02*
X34514342Y-110384544D01*
X34514342Y-110384544D02*
X34323866Y-110336925D01*
X34323866Y-110336925D02*
X34085771Y-110336925D01*
X34085771Y-110336925D02*
X33895295Y-110384544D01*
X33895295Y-110384544D02*
X33800057Y-110432163D01*
X33800057Y-110432163D02*
X33752438Y-110479782D01*
X33752438Y-110479782D02*
X33704819Y-110575020D01*
X34038152Y-111765496D02*
X34704819Y-111765496D01*
X34038152Y-111336925D02*
X34561961Y-111336925D01*
X34561961Y-111336925D02*
X34657200Y-111384544D01*
X34657200Y-111384544D02*
X34704819Y-111479782D01*
X34704819Y-111479782D02*
X34704819Y-111622639D01*
X34704819Y-111622639D02*
X34657200Y-111717877D01*
X34657200Y-111717877D02*
X34609580Y-111765496D01*
X34181009Y-112575020D02*
X34181009Y-112241687D01*
X34704819Y-112241687D02*
X33704819Y-112241687D01*
X33704819Y-112241687D02*
X33704819Y-112717877D01*
X73324819Y-98333333D02*
X72848628Y-98000000D01*
X73324819Y-97761905D02*
X72324819Y-97761905D01*
X72324819Y-97761905D02*
X72324819Y-98142857D01*
X72324819Y-98142857D02*
X72372438Y-98238095D01*
X72372438Y-98238095D02*
X72420057Y-98285714D01*
X72420057Y-98285714D02*
X72515295Y-98333333D01*
X72515295Y-98333333D02*
X72658152Y-98333333D01*
X72658152Y-98333333D02*
X72753390Y-98285714D01*
X72753390Y-98285714D02*
X72801009Y-98238095D01*
X72801009Y-98238095D02*
X72848628Y-98142857D01*
X72848628Y-98142857D02*
X72848628Y-97761905D01*
X72753390Y-98904762D02*
X72705771Y-98809524D01*
X72705771Y-98809524D02*
X72658152Y-98761905D01*
X72658152Y-98761905D02*
X72562914Y-98714286D01*
X72562914Y-98714286D02*
X72515295Y-98714286D01*
X72515295Y-98714286D02*
X72420057Y-98761905D01*
X72420057Y-98761905D02*
X72372438Y-98809524D01*
X72372438Y-98809524D02*
X72324819Y-98904762D01*
X72324819Y-98904762D02*
X72324819Y-99095238D01*
X72324819Y-99095238D02*
X72372438Y-99190476D01*
X72372438Y-99190476D02*
X72420057Y-99238095D01*
X72420057Y-99238095D02*
X72515295Y-99285714D01*
X72515295Y-99285714D02*
X72562914Y-99285714D01*
X72562914Y-99285714D02*
X72658152Y-99238095D01*
X72658152Y-99238095D02*
X72705771Y-99190476D01*
X72705771Y-99190476D02*
X72753390Y-99095238D01*
X72753390Y-99095238D02*
X72753390Y-98904762D01*
X72753390Y-98904762D02*
X72801009Y-98809524D01*
X72801009Y-98809524D02*
X72848628Y-98761905D01*
X72848628Y-98761905D02*
X72943866Y-98714286D01*
X72943866Y-98714286D02*
X73134342Y-98714286D01*
X73134342Y-98714286D02*
X73229580Y-98761905D01*
X73229580Y-98761905D02*
X73277200Y-98809524D01*
X73277200Y-98809524D02*
X73324819Y-98904762D01*
X73324819Y-98904762D02*
X73324819Y-99095238D01*
X73324819Y-99095238D02*
X73277200Y-99190476D01*
X73277200Y-99190476D02*
X73229580Y-99238095D01*
X73229580Y-99238095D02*
X73134342Y-99285714D01*
X73134342Y-99285714D02*
X72943866Y-99285714D01*
X72943866Y-99285714D02*
X72848628Y-99238095D01*
X72848628Y-99238095D02*
X72801009Y-99190476D01*
X72801009Y-99190476D02*
X72753390Y-99095238D01*
X28109580Y-139333333D02*
X28157200Y-139285714D01*
X28157200Y-139285714D02*
X28204819Y-139142857D01*
X28204819Y-139142857D02*
X28204819Y-139047619D01*
X28204819Y-139047619D02*
X28157200Y-138904762D01*
X28157200Y-138904762D02*
X28061961Y-138809524D01*
X28061961Y-138809524D02*
X27966723Y-138761905D01*
X27966723Y-138761905D02*
X27776247Y-138714286D01*
X27776247Y-138714286D02*
X27633390Y-138714286D01*
X27633390Y-138714286D02*
X27442914Y-138761905D01*
X27442914Y-138761905D02*
X27347676Y-138809524D01*
X27347676Y-138809524D02*
X27252438Y-138904762D01*
X27252438Y-138904762D02*
X27204819Y-139047619D01*
X27204819Y-139047619D02*
X27204819Y-139142857D01*
X27204819Y-139142857D02*
X27252438Y-139285714D01*
X27252438Y-139285714D02*
X27300057Y-139333333D01*
X28204819Y-140285714D02*
X28204819Y-139714286D01*
X28204819Y-140000000D02*
X27204819Y-140000000D01*
X27204819Y-140000000D02*
X27347676Y-139904762D01*
X27347676Y-139904762D02*
X27442914Y-139809524D01*
X27442914Y-139809524D02*
X27490533Y-139714286D01*
X34704819Y-138428571D02*
X34704819Y-137857143D01*
X34704819Y-138142857D02*
X33704819Y-138142857D01*
X33704819Y-138142857D02*
X33847676Y-138047619D01*
X33847676Y-138047619D02*
X33942914Y-137952381D01*
X33942914Y-137952381D02*
X33990533Y-137857143D01*
X33704819Y-139047619D02*
X33704819Y-139142857D01*
X33704819Y-139142857D02*
X33752438Y-139238095D01*
X33752438Y-139238095D02*
X33800057Y-139285714D01*
X33800057Y-139285714D02*
X33895295Y-139333333D01*
X33895295Y-139333333D02*
X34085771Y-139380952D01*
X34085771Y-139380952D02*
X34323866Y-139380952D01*
X34323866Y-139380952D02*
X34514342Y-139333333D01*
X34514342Y-139333333D02*
X34609580Y-139285714D01*
X34609580Y-139285714D02*
X34657200Y-139238095D01*
X34657200Y-139238095D02*
X34704819Y-139142857D01*
X34704819Y-139142857D02*
X34704819Y-139047619D01*
X34704819Y-139047619D02*
X34657200Y-138952381D01*
X34657200Y-138952381D02*
X34609580Y-138904762D01*
X34609580Y-138904762D02*
X34514342Y-138857143D01*
X34514342Y-138857143D02*
X34323866Y-138809524D01*
X34323866Y-138809524D02*
X34085771Y-138809524D01*
X34085771Y-138809524D02*
X33895295Y-138857143D01*
X33895295Y-138857143D02*
X33800057Y-138904762D01*
X33800057Y-138904762D02*
X33752438Y-138952381D01*
X33752438Y-138952381D02*
X33704819Y-139047619D01*
X34038152Y-140238095D02*
X34704819Y-140238095D01*
X34038152Y-139809524D02*
X34561961Y-139809524D01*
X34561961Y-139809524D02*
X34657200Y-139857143D01*
X34657200Y-139857143D02*
X34704819Y-139952381D01*
X34704819Y-139952381D02*
X34704819Y-140095238D01*
X34704819Y-140095238D02*
X34657200Y-140190476D01*
X34657200Y-140190476D02*
X34609580Y-140238095D01*
X34181009Y-141047619D02*
X34181009Y-140714286D01*
X34704819Y-140714286D02*
X33704819Y-140714286D01*
X33704819Y-140714286D02*
X33704819Y-141190476D01*
X73324819Y-183857142D02*
X72848628Y-183523809D01*
X73324819Y-183285714D02*
X72324819Y-183285714D01*
X72324819Y-183285714D02*
X72324819Y-183666666D01*
X72324819Y-183666666D02*
X72372438Y-183761904D01*
X72372438Y-183761904D02*
X72420057Y-183809523D01*
X72420057Y-183809523D02*
X72515295Y-183857142D01*
X72515295Y-183857142D02*
X72658152Y-183857142D01*
X72658152Y-183857142D02*
X72753390Y-183809523D01*
X72753390Y-183809523D02*
X72801009Y-183761904D01*
X72801009Y-183761904D02*
X72848628Y-183666666D01*
X72848628Y-183666666D02*
X72848628Y-183285714D01*
X73324819Y-184809523D02*
X73324819Y-184238095D01*
X73324819Y-184523809D02*
X72324819Y-184523809D01*
X72324819Y-184523809D02*
X72467676Y-184428571D01*
X72467676Y-184428571D02*
X72562914Y-184333333D01*
X72562914Y-184333333D02*
X72610533Y-184238095D01*
X72324819Y-185714285D02*
X72324819Y-185238095D01*
X72324819Y-185238095D02*
X72801009Y-185190476D01*
X72801009Y-185190476D02*
X72753390Y-185238095D01*
X72753390Y-185238095D02*
X72705771Y-185333333D01*
X72705771Y-185333333D02*
X72705771Y-185571428D01*
X72705771Y-185571428D02*
X72753390Y-185666666D01*
X72753390Y-185666666D02*
X72801009Y-185714285D01*
X72801009Y-185714285D02*
X72896247Y-185761904D01*
X72896247Y-185761904D02*
X73134342Y-185761904D01*
X73134342Y-185761904D02*
X73229580Y-185714285D01*
X73229580Y-185714285D02*
X73277200Y-185666666D01*
X73277200Y-185666666D02*
X73324819Y-185571428D01*
X73324819Y-185571428D02*
X73324819Y-185333333D01*
X73324819Y-185333333D02*
X73277200Y-185238095D01*
X73277200Y-185238095D02*
X73229580Y-185190476D01*
X43366666Y-135809580D02*
X43414285Y-135857200D01*
X43414285Y-135857200D02*
X43557142Y-135904819D01*
X43557142Y-135904819D02*
X43652380Y-135904819D01*
X43652380Y-135904819D02*
X43795237Y-135857200D01*
X43795237Y-135857200D02*
X43890475Y-135761961D01*
X43890475Y-135761961D02*
X43938094Y-135666723D01*
X43938094Y-135666723D02*
X43985713Y-135476247D01*
X43985713Y-135476247D02*
X43985713Y-135333390D01*
X43985713Y-135333390D02*
X43938094Y-135142914D01*
X43938094Y-135142914D02*
X43890475Y-135047676D01*
X43890475Y-135047676D02*
X43795237Y-134952438D01*
X43795237Y-134952438D02*
X43652380Y-134904819D01*
X43652380Y-134904819D02*
X43557142Y-134904819D01*
X43557142Y-134904819D02*
X43414285Y-134952438D01*
X43414285Y-134952438D02*
X43366666Y-135000057D01*
X43033332Y-134904819D02*
X42414285Y-134904819D01*
X42414285Y-134904819D02*
X42747618Y-135285771D01*
X42747618Y-135285771D02*
X42604761Y-135285771D01*
X42604761Y-135285771D02*
X42509523Y-135333390D01*
X42509523Y-135333390D02*
X42461904Y-135381009D01*
X42461904Y-135381009D02*
X42414285Y-135476247D01*
X42414285Y-135476247D02*
X42414285Y-135714342D01*
X42414285Y-135714342D02*
X42461904Y-135809580D01*
X42461904Y-135809580D02*
X42509523Y-135857200D01*
X42509523Y-135857200D02*
X42604761Y-135904819D01*
X42604761Y-135904819D02*
X42890475Y-135904819D01*
X42890475Y-135904819D02*
X42985713Y-135857200D01*
X42985713Y-135857200D02*
X43033332Y-135809580D01*
X44747619Y-137904819D02*
X45319047Y-137904819D01*
X45033333Y-137904819D02*
X45033333Y-136904819D01*
X45033333Y-136904819D02*
X45128571Y-137047676D01*
X45128571Y-137047676D02*
X45223809Y-137142914D01*
X45223809Y-137142914D02*
X45319047Y-137190533D01*
X44128571Y-136904819D02*
X44033333Y-136904819D01*
X44033333Y-136904819D02*
X43938095Y-136952438D01*
X43938095Y-136952438D02*
X43890476Y-137000057D01*
X43890476Y-137000057D02*
X43842857Y-137095295D01*
X43842857Y-137095295D02*
X43795238Y-137285771D01*
X43795238Y-137285771D02*
X43795238Y-137523866D01*
X43795238Y-137523866D02*
X43842857Y-137714342D01*
X43842857Y-137714342D02*
X43890476Y-137809580D01*
X43890476Y-137809580D02*
X43938095Y-137857200D01*
X43938095Y-137857200D02*
X44033333Y-137904819D01*
X44033333Y-137904819D02*
X44128571Y-137904819D01*
X44128571Y-137904819D02*
X44223809Y-137857200D01*
X44223809Y-137857200D02*
X44271428Y-137809580D01*
X44271428Y-137809580D02*
X44319047Y-137714342D01*
X44319047Y-137714342D02*
X44366666Y-137523866D01*
X44366666Y-137523866D02*
X44366666Y-137285771D01*
X44366666Y-137285771D02*
X44319047Y-137095295D01*
X44319047Y-137095295D02*
X44271428Y-137000057D01*
X44271428Y-137000057D02*
X44223809Y-136952438D01*
X44223809Y-136952438D02*
X44128571Y-136904819D01*
X43176190Y-136904819D02*
X43080952Y-136904819D01*
X43080952Y-136904819D02*
X42985714Y-136952438D01*
X42985714Y-136952438D02*
X42938095Y-137000057D01*
X42938095Y-137000057D02*
X42890476Y-137095295D01*
X42890476Y-137095295D02*
X42842857Y-137285771D01*
X42842857Y-137285771D02*
X42842857Y-137523866D01*
X42842857Y-137523866D02*
X42890476Y-137714342D01*
X42890476Y-137714342D02*
X42938095Y-137809580D01*
X42938095Y-137809580D02*
X42985714Y-137857200D01*
X42985714Y-137857200D02*
X43080952Y-137904819D01*
X43080952Y-137904819D02*
X43176190Y-137904819D01*
X43176190Y-137904819D02*
X43271428Y-137857200D01*
X43271428Y-137857200D02*
X43319047Y-137809580D01*
X43319047Y-137809580D02*
X43366666Y-137714342D01*
X43366666Y-137714342D02*
X43414285Y-137523866D01*
X43414285Y-137523866D02*
X43414285Y-137285771D01*
X43414285Y-137285771D02*
X43366666Y-137095295D01*
X43366666Y-137095295D02*
X43319047Y-137000057D01*
X43319047Y-137000057D02*
X43271428Y-136952438D01*
X43271428Y-136952438D02*
X43176190Y-136904819D01*
X42414285Y-137238152D02*
X42414285Y-137904819D01*
X42414285Y-137333390D02*
X42366666Y-137285771D01*
X42366666Y-137285771D02*
X42271428Y-137238152D01*
X42271428Y-137238152D02*
X42128571Y-137238152D01*
X42128571Y-137238152D02*
X42033333Y-137285771D01*
X42033333Y-137285771D02*
X41985714Y-137381009D01*
X41985714Y-137381009D02*
X41985714Y-137904819D01*
X41176190Y-137381009D02*
X41509523Y-137381009D01*
X41509523Y-137904819D02*
X41509523Y-136904819D01*
X41509523Y-136904819D02*
X41033333Y-136904819D01*
X68666666Y-135809580D02*
X68714285Y-135857200D01*
X68714285Y-135857200D02*
X68857142Y-135904819D01*
X68857142Y-135904819D02*
X68952380Y-135904819D01*
X68952380Y-135904819D02*
X69095237Y-135857200D01*
X69095237Y-135857200D02*
X69190475Y-135761961D01*
X69190475Y-135761961D02*
X69238094Y-135666723D01*
X69238094Y-135666723D02*
X69285713Y-135476247D01*
X69285713Y-135476247D02*
X69285713Y-135333390D01*
X69285713Y-135333390D02*
X69238094Y-135142914D01*
X69238094Y-135142914D02*
X69190475Y-135047676D01*
X69190475Y-135047676D02*
X69095237Y-134952438D01*
X69095237Y-134952438D02*
X68952380Y-134904819D01*
X68952380Y-134904819D02*
X68857142Y-134904819D01*
X68857142Y-134904819D02*
X68714285Y-134952438D01*
X68714285Y-134952438D02*
X68666666Y-135000057D01*
X68333332Y-134904819D02*
X67666666Y-134904819D01*
X67666666Y-134904819D02*
X68095237Y-135904819D01*
X70047619Y-137904819D02*
X70619047Y-137904819D01*
X70333333Y-137904819D02*
X70333333Y-136904819D01*
X70333333Y-136904819D02*
X70428571Y-137047676D01*
X70428571Y-137047676D02*
X70523809Y-137142914D01*
X70523809Y-137142914D02*
X70619047Y-137190533D01*
X69428571Y-136904819D02*
X69333333Y-136904819D01*
X69333333Y-136904819D02*
X69238095Y-136952438D01*
X69238095Y-136952438D02*
X69190476Y-137000057D01*
X69190476Y-137000057D02*
X69142857Y-137095295D01*
X69142857Y-137095295D02*
X69095238Y-137285771D01*
X69095238Y-137285771D02*
X69095238Y-137523866D01*
X69095238Y-137523866D02*
X69142857Y-137714342D01*
X69142857Y-137714342D02*
X69190476Y-137809580D01*
X69190476Y-137809580D02*
X69238095Y-137857200D01*
X69238095Y-137857200D02*
X69333333Y-137904819D01*
X69333333Y-137904819D02*
X69428571Y-137904819D01*
X69428571Y-137904819D02*
X69523809Y-137857200D01*
X69523809Y-137857200D02*
X69571428Y-137809580D01*
X69571428Y-137809580D02*
X69619047Y-137714342D01*
X69619047Y-137714342D02*
X69666666Y-137523866D01*
X69666666Y-137523866D02*
X69666666Y-137285771D01*
X69666666Y-137285771D02*
X69619047Y-137095295D01*
X69619047Y-137095295D02*
X69571428Y-137000057D01*
X69571428Y-137000057D02*
X69523809Y-136952438D01*
X69523809Y-136952438D02*
X69428571Y-136904819D01*
X68476190Y-136904819D02*
X68380952Y-136904819D01*
X68380952Y-136904819D02*
X68285714Y-136952438D01*
X68285714Y-136952438D02*
X68238095Y-137000057D01*
X68238095Y-137000057D02*
X68190476Y-137095295D01*
X68190476Y-137095295D02*
X68142857Y-137285771D01*
X68142857Y-137285771D02*
X68142857Y-137523866D01*
X68142857Y-137523866D02*
X68190476Y-137714342D01*
X68190476Y-137714342D02*
X68238095Y-137809580D01*
X68238095Y-137809580D02*
X68285714Y-137857200D01*
X68285714Y-137857200D02*
X68380952Y-137904819D01*
X68380952Y-137904819D02*
X68476190Y-137904819D01*
X68476190Y-137904819D02*
X68571428Y-137857200D01*
X68571428Y-137857200D02*
X68619047Y-137809580D01*
X68619047Y-137809580D02*
X68666666Y-137714342D01*
X68666666Y-137714342D02*
X68714285Y-137523866D01*
X68714285Y-137523866D02*
X68714285Y-137285771D01*
X68714285Y-137285771D02*
X68666666Y-137095295D01*
X68666666Y-137095295D02*
X68619047Y-137000057D01*
X68619047Y-137000057D02*
X68571428Y-136952438D01*
X68571428Y-136952438D02*
X68476190Y-136904819D01*
X67714285Y-137238152D02*
X67714285Y-137904819D01*
X67714285Y-137333390D02*
X67666666Y-137285771D01*
X67666666Y-137285771D02*
X67571428Y-137238152D01*
X67571428Y-137238152D02*
X67428571Y-137238152D01*
X67428571Y-137238152D02*
X67333333Y-137285771D01*
X67333333Y-137285771D02*
X67285714Y-137381009D01*
X67285714Y-137381009D02*
X67285714Y-137904819D01*
X66476190Y-137381009D02*
X66809523Y-137381009D01*
X66809523Y-137904819D02*
X66809523Y-136904819D01*
X66809523Y-136904819D02*
X66333333Y-136904819D01*
X43961904Y-122354819D02*
X43961904Y-123164342D01*
X43961904Y-123164342D02*
X43914285Y-123259580D01*
X43914285Y-123259580D02*
X43866666Y-123307200D01*
X43866666Y-123307200D02*
X43771428Y-123354819D01*
X43771428Y-123354819D02*
X43580952Y-123354819D01*
X43580952Y-123354819D02*
X43485714Y-123307200D01*
X43485714Y-123307200D02*
X43438095Y-123259580D01*
X43438095Y-123259580D02*
X43390476Y-123164342D01*
X43390476Y-123164342D02*
X43390476Y-122354819D01*
X42390476Y-123354819D02*
X42961904Y-123354819D01*
X42676190Y-123354819D02*
X42676190Y-122354819D01*
X42676190Y-122354819D02*
X42771428Y-122497676D01*
X42771428Y-122497676D02*
X42866666Y-122592914D01*
X42866666Y-122592914D02*
X42961904Y-122640533D01*
X45309047Y-126554819D02*
X44737619Y-126554819D01*
X45023333Y-127554819D02*
X45023333Y-126554819D01*
X43928095Y-127554819D02*
X44404285Y-127554819D01*
X44404285Y-127554819D02*
X44404285Y-126554819D01*
X43404285Y-126554819D02*
X43309047Y-126554819D01*
X43309047Y-126554819D02*
X43213809Y-126602438D01*
X43213809Y-126602438D02*
X43166190Y-126650057D01*
X43166190Y-126650057D02*
X43118571Y-126745295D01*
X43118571Y-126745295D02*
X43070952Y-126935771D01*
X43070952Y-126935771D02*
X43070952Y-127173866D01*
X43070952Y-127173866D02*
X43118571Y-127364342D01*
X43118571Y-127364342D02*
X43166190Y-127459580D01*
X43166190Y-127459580D02*
X43213809Y-127507200D01*
X43213809Y-127507200D02*
X43309047Y-127554819D01*
X43309047Y-127554819D02*
X43404285Y-127554819D01*
X43404285Y-127554819D02*
X43499523Y-127507200D01*
X43499523Y-127507200D02*
X43547142Y-127459580D01*
X43547142Y-127459580D02*
X43594761Y-127364342D01*
X43594761Y-127364342D02*
X43642380Y-127173866D01*
X43642380Y-127173866D02*
X43642380Y-126935771D01*
X43642380Y-126935771D02*
X43594761Y-126745295D01*
X43594761Y-126745295D02*
X43547142Y-126650057D01*
X43547142Y-126650057D02*
X43499523Y-126602438D01*
X43499523Y-126602438D02*
X43404285Y-126554819D01*
X42737618Y-126554819D02*
X42070952Y-126554819D01*
X42070952Y-126554819D02*
X42499523Y-127554819D01*
X41261428Y-126888152D02*
X41261428Y-127554819D01*
X41499523Y-126507200D02*
X41737618Y-127221485D01*
X41737618Y-127221485D02*
X41118571Y-127221485D01*
D11*
X28130000Y-164730000D02*
X28460000Y-164730000D01*
X28130000Y-171270000D02*
X28130000Y-164730000D01*
X28460000Y-171270000D02*
X28130000Y-171270000D01*
X30540000Y-171270000D02*
X30870000Y-171270000D01*
X30870000Y-164730000D02*
X30540000Y-164730000D01*
X30870000Y-171270000D02*
X30870000Y-164730000D01*
X28130000Y-62230000D02*
X28460000Y-62230000D01*
X28130000Y-68770000D02*
X28130000Y-62230000D01*
X28460000Y-68770000D02*
X28130000Y-68770000D01*
X30540000Y-68770000D02*
X30870000Y-68770000D01*
X30870000Y-62230000D02*
X30540000Y-62230000D01*
X30870000Y-68770000D02*
X30870000Y-62230000D01*
X53730000Y-134380000D02*
X58270000Y-134380000D01*
X53730000Y-134395000D02*
X53730000Y-134380000D01*
X53730000Y-136520000D02*
X53730000Y-136505000D01*
X53730000Y-136520000D02*
X58270000Y-136520000D01*
X58270000Y-134395000D02*
X58270000Y-134380000D01*
X58270000Y-136520000D02*
X58270000Y-136505000D01*
X26670000Y-114790000D02*
X35790000Y-114790000D01*
X26670000Y-135370000D02*
X26670000Y-114790000D01*
X27980000Y-116090000D02*
X34480000Y-116090000D01*
X27980000Y-134070000D02*
X27980000Y-116090000D01*
X34480000Y-116090000D02*
X34480000Y-123030000D01*
X34480000Y-123030000D02*
X35790000Y-123030000D01*
X34480000Y-127130000D02*
X34480000Y-127130000D01*
X34480000Y-127130000D02*
X34480000Y-134070000D01*
X34480000Y-134070000D02*
X27980000Y-134070000D01*
X35790000Y-114790000D02*
X35790000Y-135370000D01*
X35790000Y-127130000D02*
X34480000Y-127130000D01*
X35790000Y-135370000D02*
X26670000Y-135370000D01*
X36180000Y-120000000D02*
X37180000Y-120500000D01*
X37180000Y-119500000D02*
X36180000Y-120000000D01*
X37180000Y-120500000D02*
X37180000Y-119500000D01*
X69130000Y-148230000D02*
X69130000Y-154770000D01*
X69130000Y-154770000D02*
X69460000Y-154770000D01*
X69460000Y-148230000D02*
X69130000Y-148230000D01*
X71540000Y-148230000D02*
X71870000Y-148230000D01*
X71870000Y-148230000D02*
X71870000Y-154770000D01*
X71870000Y-154770000D02*
X71540000Y-154770000D01*
X69130000Y-78730000D02*
X69130000Y-85270000D01*
X69130000Y-85270000D02*
X69460000Y-85270000D01*
X69460000Y-78730000D02*
X69130000Y-78730000D01*
X71540000Y-78730000D02*
X71870000Y-78730000D01*
X71870000Y-78730000D02*
X71870000Y-85270000D01*
X71870000Y-85270000D02*
X71540000Y-85270000D01*
X69130000Y-164730000D02*
X69130000Y-171270000D01*
X69130000Y-171270000D02*
X69460000Y-171270000D01*
X69460000Y-164730000D02*
X69130000Y-164730000D01*
X71540000Y-164730000D02*
X71870000Y-164730000D01*
X71870000Y-164730000D02*
X71870000Y-171270000D01*
X71870000Y-171270000D02*
X71540000Y-171270000D01*
X50850000Y-115910000D02*
X50850000Y-133930000D01*
X50850000Y-133930000D02*
X61130000Y-133930000D01*
X53340000Y-115970000D02*
X53340000Y-133870000D01*
X53340000Y-133870000D02*
X58640000Y-133870000D01*
X54990000Y-115970000D02*
X53340000Y-115970000D01*
X58640000Y-115970000D02*
X56990000Y-115970000D01*
X58640000Y-133870000D02*
X58640000Y-115970000D01*
X61130000Y-115910000D02*
X50850000Y-115910000D01*
X61130000Y-133930000D02*
X61130000Y-115910000D01*
X56990000Y-115970000D02*
G75*
G02*
X54990000Y-115970000I-1000000J0D01*
G01*
X28130000Y-95230000D02*
X28460000Y-95230000D01*
X28130000Y-101770000D02*
X28130000Y-95230000D01*
X28460000Y-101770000D02*
X28130000Y-101770000D01*
X30540000Y-101770000D02*
X30870000Y-101770000D01*
X30870000Y-95230000D02*
X30540000Y-95230000D01*
X30870000Y-101770000D02*
X30870000Y-95230000D01*
X28130000Y-197730000D02*
X28460000Y-197730000D01*
X28130000Y-204270000D02*
X28130000Y-197730000D01*
X28460000Y-204270000D02*
X28130000Y-204270000D01*
X30540000Y-204270000D02*
X30870000Y-204270000D01*
X30870000Y-197730000D02*
X30540000Y-197730000D01*
X30870000Y-204270000D02*
X30870000Y-197730000D01*
X28130000Y-45730000D02*
X28460000Y-45730000D01*
X28130000Y-52270000D02*
X28130000Y-45730000D01*
X28460000Y-52270000D02*
X28130000Y-52270000D01*
X30540000Y-52270000D02*
X30870000Y-52270000D01*
X30870000Y-45730000D02*
X30540000Y-45730000D01*
X30870000Y-52270000D02*
X30870000Y-45730000D01*
X40930000Y-113330000D02*
X45470000Y-113330000D01*
X40930000Y-113345000D02*
X40930000Y-113330000D01*
X40930000Y-115470000D02*
X40930000Y-115455000D01*
X40930000Y-115470000D02*
X45470000Y-115470000D01*
X45470000Y-113345000D02*
X45470000Y-113330000D01*
X45470000Y-115470000D02*
X45470000Y-115455000D01*
X69130000Y-45730000D02*
X69130000Y-52270000D01*
X69130000Y-52270000D02*
X69460000Y-52270000D01*
X69460000Y-45730000D02*
X69130000Y-45730000D01*
X71540000Y-45730000D02*
X71870000Y-45730000D01*
X71870000Y-45730000D02*
X71870000Y-52270000D01*
X71870000Y-52270000D02*
X71540000Y-52270000D01*
X28130000Y-148230000D02*
X28460000Y-148230000D01*
X28130000Y-154770000D02*
X28130000Y-148230000D01*
X28460000Y-154770000D02*
X28130000Y-154770000D01*
X30540000Y-154770000D02*
X30870000Y-154770000D01*
X30870000Y-148230000D02*
X30540000Y-148230000D01*
X30870000Y-154770000D02*
X30870000Y-148230000D01*
X69130000Y-62230000D02*
X69130000Y-68770000D01*
X69130000Y-68770000D02*
X69460000Y-68770000D01*
X69460000Y-62230000D02*
X69130000Y-62230000D01*
X71540000Y-62230000D02*
X71870000Y-62230000D01*
X71870000Y-62230000D02*
X71870000Y-68770000D01*
X71870000Y-68770000D02*
X71540000Y-68770000D01*
X66230000Y-113330000D02*
X70770000Y-113330000D01*
X66230000Y-113345000D02*
X66230000Y-113330000D01*
X66230000Y-115470000D02*
X66230000Y-115455000D01*
X66230000Y-115470000D02*
X70770000Y-115470000D01*
X70770000Y-113345000D02*
X70770000Y-113330000D01*
X70770000Y-115470000D02*
X70770000Y-115455000D01*
X53730000Y-113330000D02*
X58270000Y-113330000D01*
X53730000Y-113345000D02*
X53730000Y-113330000D01*
X53730000Y-115470000D02*
X53730000Y-115455000D01*
X53730000Y-115470000D02*
X58270000Y-115470000D01*
X58270000Y-113345000D02*
X58270000Y-113330000D01*
X58270000Y-115470000D02*
X58270000Y-115455000D01*
X63320000Y-115910000D02*
X63320000Y-133930000D01*
X63320000Y-133930000D02*
X73600000Y-133930000D01*
X65810000Y-115970000D02*
X65810000Y-133870000D01*
X65810000Y-133870000D02*
X71110000Y-133870000D01*
X67460000Y-115970000D02*
X65810000Y-115970000D01*
X71110000Y-115970000D02*
X69460000Y-115970000D01*
X71110000Y-133870000D02*
X71110000Y-115970000D01*
X73600000Y-115910000D02*
X63320000Y-115910000D01*
X73600000Y-133930000D02*
X73600000Y-115910000D01*
X69460000Y-115970000D02*
G75*
G02*
X67460000Y-115970000I-1000000J0D01*
G01*
X28130000Y-78730000D02*
X28460000Y-78730000D01*
X28130000Y-85270000D02*
X28130000Y-78730000D01*
X28460000Y-85270000D02*
X28130000Y-85270000D01*
X30540000Y-85270000D02*
X30870000Y-85270000D01*
X30870000Y-78730000D02*
X30540000Y-78730000D01*
X30870000Y-85270000D02*
X30870000Y-78730000D01*
X28130000Y-181230000D02*
X28460000Y-181230000D01*
X28130000Y-187770000D02*
X28130000Y-181230000D01*
X28460000Y-187770000D02*
X28130000Y-187770000D01*
X30540000Y-187770000D02*
X30870000Y-187770000D01*
X30870000Y-181230000D02*
X30540000Y-181230000D01*
X30870000Y-187770000D02*
X30870000Y-181230000D01*
X69130000Y-197730000D02*
X69130000Y-204270000D01*
X69130000Y-204270000D02*
X69460000Y-204270000D01*
X69460000Y-197730000D02*
X69130000Y-197730000D01*
X71540000Y-197730000D02*
X71870000Y-197730000D01*
X71870000Y-197730000D02*
X71870000Y-204270000D01*
X71870000Y-204270000D02*
X71540000Y-204270000D01*
X29805000Y-109157600D02*
X29805000Y-108757600D01*
X30005000Y-108957600D02*
X29605000Y-108957600D01*
X30160000Y-111227401D02*
X28929000Y-111227401D01*
X30160000Y-111267401D02*
X28933000Y-111267401D01*
X30160000Y-111307401D02*
X28938000Y-111307401D01*
X30160000Y-111347401D02*
X28944000Y-111347401D01*
X30160000Y-111387401D02*
X28950000Y-111387401D01*
X30160000Y-111427401D02*
X28958000Y-111427401D01*
X30160000Y-111467401D02*
X28966000Y-111467401D01*
X30160000Y-111507401D02*
X28975000Y-111507401D01*
X30160000Y-111547401D02*
X28984000Y-111547401D01*
X30160000Y-111587401D02*
X28995000Y-111587401D01*
X30160000Y-111627401D02*
X29006000Y-111627401D01*
X30160000Y-111667401D02*
X29018000Y-111667401D01*
X30160000Y-111707401D02*
X29032000Y-111707401D01*
X30160000Y-111748401D02*
X29046000Y-111748401D01*
X30160000Y-111788401D02*
X29060000Y-111788401D01*
X30160000Y-111828401D02*
X29076000Y-111828401D01*
X30160000Y-111868401D02*
X29093000Y-111868401D01*
X30160000Y-111908401D02*
X29111000Y-111908401D01*
X30160000Y-111948401D02*
X29130000Y-111948401D01*
X30160000Y-111988401D02*
X29149000Y-111988401D01*
X30160000Y-112028401D02*
X29170000Y-112028401D01*
X30160000Y-112068401D02*
X29192000Y-112068401D01*
X30160000Y-112108401D02*
X29215000Y-112108401D01*
X30160000Y-112148401D02*
X29240000Y-112148401D01*
X30160000Y-112188401D02*
X29265000Y-112188401D01*
X30160000Y-112228401D02*
X29292000Y-112228401D01*
X30160000Y-112268401D02*
X29320000Y-112268401D01*
X30160000Y-112308401D02*
X29350000Y-112308401D01*
X30160000Y-112348401D02*
X29381000Y-112348401D01*
X30160000Y-112388401D02*
X29413000Y-112388401D01*
X30160000Y-112428401D02*
X29448000Y-112428401D01*
X30160000Y-112468401D02*
X29484000Y-112468401D01*
X30160000Y-112508401D02*
X29522000Y-112508401D01*
X30160000Y-112548401D02*
X29562000Y-112548401D01*
X30160000Y-112588401D02*
X29604000Y-112588401D01*
X30160000Y-112628401D02*
X29649000Y-112628401D01*
X30160000Y-112668401D02*
X29696000Y-112668401D01*
X30160000Y-112708401D02*
X29746000Y-112708401D01*
X30160000Y-112748401D02*
X29800000Y-112748401D01*
X30160000Y-112788401D02*
X29858000Y-112788401D01*
X30160000Y-112828401D02*
X29920000Y-112828401D01*
X31370000Y-113108401D02*
X30630000Y-113108401D01*
X31537000Y-113068401D02*
X30463000Y-113068401D01*
X31664000Y-113028401D02*
X30336000Y-113028401D01*
X31768000Y-112988401D02*
X30232000Y-112988401D01*
X31859000Y-112948401D02*
X30141000Y-112948401D01*
X31940000Y-112908401D02*
X30060000Y-112908401D01*
X32013000Y-112868401D02*
X29987000Y-112868401D01*
X32080000Y-112828401D02*
X31840000Y-112828401D01*
X32142000Y-112788401D02*
X31840000Y-112788401D01*
X32200000Y-112748401D02*
X31840000Y-112748401D01*
X32254000Y-112708401D02*
X31840000Y-112708401D01*
X32304000Y-112668401D02*
X31840000Y-112668401D01*
X32351000Y-112628401D02*
X31840000Y-112628401D01*
X32396000Y-112588401D02*
X31840000Y-112588401D01*
X32438000Y-112548401D02*
X31840000Y-112548401D01*
X32478000Y-112508401D02*
X31840000Y-112508401D01*
X32516000Y-112468401D02*
X31840000Y-112468401D01*
X32552000Y-112428401D02*
X31840000Y-112428401D01*
X32587000Y-112388401D02*
X31840000Y-112388401D01*
X32619000Y-112348401D02*
X31840000Y-112348401D01*
X32650000Y-112308401D02*
X31840000Y-112308401D01*
X32680000Y-112268401D02*
X31840000Y-112268401D01*
X32708000Y-112228401D02*
X31840000Y-112228401D01*
X32735000Y-112188401D02*
X31840000Y-112188401D01*
X32760000Y-112148401D02*
X31840000Y-112148401D01*
X32785000Y-112108401D02*
X31840000Y-112108401D01*
X32808000Y-112068401D02*
X31840000Y-112068401D01*
X32830000Y-112028401D02*
X31840000Y-112028401D01*
X32851000Y-111988401D02*
X31840000Y-111988401D01*
X32870000Y-111948401D02*
X31840000Y-111948401D01*
X32889000Y-111908401D02*
X31840000Y-111908401D01*
X32907000Y-111868401D02*
X31840000Y-111868401D01*
X32924000Y-111828401D02*
X31840000Y-111828401D01*
X32940000Y-111788401D02*
X31840000Y-111788401D01*
X32954000Y-111748401D02*
X31840000Y-111748401D01*
X32968000Y-111707401D02*
X31840000Y-111707401D01*
X32982000Y-111667401D02*
X31840000Y-111667401D01*
X32994000Y-111627401D02*
X31840000Y-111627401D01*
X33005000Y-111587401D02*
X31840000Y-111587401D01*
X33016000Y-111547401D02*
X31840000Y-111547401D01*
X33025000Y-111507401D02*
X31840000Y-111507401D01*
X33034000Y-111467401D02*
X31840000Y-111467401D01*
X33042000Y-111427401D02*
X31840000Y-111427401D01*
X33050000Y-111387401D02*
X31840000Y-111387401D01*
X33056000Y-111347401D02*
X31840000Y-111347401D01*
X33062000Y-111307401D02*
X31840000Y-111307401D01*
X33067000Y-111267401D02*
X31840000Y-111267401D01*
X33071000Y-111227401D02*
X31840000Y-111227401D01*
X33074000Y-111187401D02*
X28926000Y-111187401D01*
X33077000Y-111147401D02*
X28923000Y-111147401D01*
X33079000Y-111107401D02*
X28921000Y-111107401D01*
X33080000Y-111027401D02*
X28920000Y-111027401D01*
X33080000Y-111067401D02*
X28920000Y-111067401D01*
X33120000Y-111027401D02*
G75*
G02*
X28880000Y-111027401I-2120000J0D01*
G01*
X28880000Y-111027401D02*
G75*
G02*
X33120000Y-111027401I2120000J0D01*
G01*
X69130000Y-95230000D02*
X69130000Y-101770000D01*
X69130000Y-101770000D02*
X69460000Y-101770000D01*
X69460000Y-95230000D02*
X69130000Y-95230000D01*
X71540000Y-95230000D02*
X71870000Y-95230000D01*
X71870000Y-95230000D02*
X71870000Y-101770000D01*
X71870000Y-101770000D02*
X71540000Y-101770000D01*
X29805000Y-137630199D02*
X29805000Y-137230199D01*
X30005000Y-137430199D02*
X29605000Y-137430199D01*
X30160000Y-139700000D02*
X28929000Y-139700000D01*
X30160000Y-139740000D02*
X28933000Y-139740000D01*
X30160000Y-139780000D02*
X28938000Y-139780000D01*
X30160000Y-139820000D02*
X28944000Y-139820000D01*
X30160000Y-139860000D02*
X28950000Y-139860000D01*
X30160000Y-139900000D02*
X28958000Y-139900000D01*
X30160000Y-139940000D02*
X28966000Y-139940000D01*
X30160000Y-139980000D02*
X28975000Y-139980000D01*
X30160000Y-140020000D02*
X28984000Y-140020000D01*
X30160000Y-140060000D02*
X28995000Y-140060000D01*
X30160000Y-140100000D02*
X29006000Y-140100000D01*
X30160000Y-140140000D02*
X29018000Y-140140000D01*
X30160000Y-140180000D02*
X29032000Y-140180000D01*
X30160000Y-140221000D02*
X29046000Y-140221000D01*
X30160000Y-140261000D02*
X29060000Y-140261000D01*
X30160000Y-140301000D02*
X29076000Y-140301000D01*
X30160000Y-140341000D02*
X29093000Y-140341000D01*
X30160000Y-140381000D02*
X29111000Y-140381000D01*
X30160000Y-140421000D02*
X29130000Y-140421000D01*
X30160000Y-140461000D02*
X29149000Y-140461000D01*
X30160000Y-140501000D02*
X29170000Y-140501000D01*
X30160000Y-140541000D02*
X29192000Y-140541000D01*
X30160000Y-140581000D02*
X29215000Y-140581000D01*
X30160000Y-140621000D02*
X29240000Y-140621000D01*
X30160000Y-140661000D02*
X29265000Y-140661000D01*
X30160000Y-140701000D02*
X29292000Y-140701000D01*
X30160000Y-140741000D02*
X29320000Y-140741000D01*
X30160000Y-140781000D02*
X29350000Y-140781000D01*
X30160000Y-140821000D02*
X29381000Y-140821000D01*
X30160000Y-140861000D02*
X29413000Y-140861000D01*
X30160000Y-140901000D02*
X29448000Y-140901000D01*
X30160000Y-140941000D02*
X29484000Y-140941000D01*
X30160000Y-140981000D02*
X29522000Y-140981000D01*
X30160000Y-141021000D02*
X29562000Y-141021000D01*
X30160000Y-141061000D02*
X29604000Y-141061000D01*
X30160000Y-141101000D02*
X29649000Y-141101000D01*
X30160000Y-141141000D02*
X29696000Y-141141000D01*
X30160000Y-141181000D02*
X29746000Y-141181000D01*
X30160000Y-141221000D02*
X29800000Y-141221000D01*
X30160000Y-141261000D02*
X29858000Y-141261000D01*
X30160000Y-141301000D02*
X29920000Y-141301000D01*
X31370000Y-141581000D02*
X30630000Y-141581000D01*
X31537000Y-141541000D02*
X30463000Y-141541000D01*
X31664000Y-141501000D02*
X30336000Y-141501000D01*
X31768000Y-141461000D02*
X30232000Y-141461000D01*
X31859000Y-141421000D02*
X30141000Y-141421000D01*
X31940000Y-141381000D02*
X30060000Y-141381000D01*
X32013000Y-141341000D02*
X29987000Y-141341000D01*
X32080000Y-141301000D02*
X31840000Y-141301000D01*
X32142000Y-141261000D02*
X31840000Y-141261000D01*
X32200000Y-141221000D02*
X31840000Y-141221000D01*
X32254000Y-141181000D02*
X31840000Y-141181000D01*
X32304000Y-141141000D02*
X31840000Y-141141000D01*
X32351000Y-141101000D02*
X31840000Y-141101000D01*
X32396000Y-141061000D02*
X31840000Y-141061000D01*
X32438000Y-141021000D02*
X31840000Y-141021000D01*
X32478000Y-140981000D02*
X31840000Y-140981000D01*
X32516000Y-140941000D02*
X31840000Y-140941000D01*
X32552000Y-140901000D02*
X31840000Y-140901000D01*
X32587000Y-140861000D02*
X31840000Y-140861000D01*
X32619000Y-140821000D02*
X31840000Y-140821000D01*
X32650000Y-140781000D02*
X31840000Y-140781000D01*
X32680000Y-140741000D02*
X31840000Y-140741000D01*
X32708000Y-140701000D02*
X31840000Y-140701000D01*
X32735000Y-140661000D02*
X31840000Y-140661000D01*
X32760000Y-140621000D02*
X31840000Y-140621000D01*
X32785000Y-140581000D02*
X31840000Y-140581000D01*
X32808000Y-140541000D02*
X31840000Y-140541000D01*
X32830000Y-140501000D02*
X31840000Y-140501000D01*
X32851000Y-140461000D02*
X31840000Y-140461000D01*
X32870000Y-140421000D02*
X31840000Y-140421000D01*
X32889000Y-140381000D02*
X31840000Y-140381000D01*
X32907000Y-140341000D02*
X31840000Y-140341000D01*
X32924000Y-140301000D02*
X31840000Y-140301000D01*
X32940000Y-140261000D02*
X31840000Y-140261000D01*
X32954000Y-140221000D02*
X31840000Y-140221000D01*
X32968000Y-140180000D02*
X31840000Y-140180000D01*
X32982000Y-140140000D02*
X31840000Y-140140000D01*
X32994000Y-140100000D02*
X31840000Y-140100000D01*
X33005000Y-140060000D02*
X31840000Y-140060000D01*
X33016000Y-140020000D02*
X31840000Y-140020000D01*
X33025000Y-139980000D02*
X31840000Y-139980000D01*
X33034000Y-139940000D02*
X31840000Y-139940000D01*
X33042000Y-139900000D02*
X31840000Y-139900000D01*
X33050000Y-139860000D02*
X31840000Y-139860000D01*
X33056000Y-139820000D02*
X31840000Y-139820000D01*
X33062000Y-139780000D02*
X31840000Y-139780000D01*
X33067000Y-139740000D02*
X31840000Y-139740000D01*
X33071000Y-139700000D02*
X31840000Y-139700000D01*
X33074000Y-139660000D02*
X28926000Y-139660000D01*
X33077000Y-139620000D02*
X28923000Y-139620000D01*
X33079000Y-139580000D02*
X28921000Y-139580000D01*
X33080000Y-139500000D02*
X28920000Y-139500000D01*
X33080000Y-139540000D02*
X28920000Y-139540000D01*
X33120000Y-139500000D02*
G75*
G02*
X28880000Y-139500000I-2120000J0D01*
G01*
X28880000Y-139500000D02*
G75*
G02*
X33120000Y-139500000I2120000J0D01*
G01*
X69130000Y-181230000D02*
X69130000Y-187770000D01*
X69130000Y-187770000D02*
X69460000Y-187770000D01*
X69460000Y-181230000D02*
X69130000Y-181230000D01*
X71540000Y-181230000D02*
X71870000Y-181230000D01*
X71870000Y-181230000D02*
X71870000Y-187770000D01*
X71870000Y-187770000D02*
X71540000Y-187770000D01*
X40930000Y-134380000D02*
X45470000Y-134380000D01*
X40930000Y-134395000D02*
X40930000Y-134380000D01*
X40930000Y-136520000D02*
X40930000Y-136505000D01*
X40930000Y-136520000D02*
X45470000Y-136520000D01*
X45470000Y-134395000D02*
X45470000Y-134380000D01*
X45470000Y-136520000D02*
X45470000Y-136505000D01*
X66230000Y-134380000D02*
X70770000Y-134380000D01*
X66230000Y-134395000D02*
X66230000Y-134380000D01*
X66230000Y-136520000D02*
X66230000Y-136505000D01*
X66230000Y-136520000D02*
X70770000Y-136520000D01*
X70770000Y-134395000D02*
X70770000Y-134380000D01*
X70770000Y-136520000D02*
X70770000Y-136505000D01*
X38050000Y-115910000D02*
X38050000Y-133930000D01*
X38050000Y-133930000D02*
X48330000Y-133930000D01*
X40540000Y-115970000D02*
X40540000Y-133870000D01*
X40540000Y-133870000D02*
X45840000Y-133870000D01*
X42190000Y-115970000D02*
X40540000Y-115970000D01*
X45840000Y-115970000D02*
X44190000Y-115970000D01*
X45840000Y-133870000D02*
X45840000Y-115970000D01*
X48330000Y-115910000D02*
X38050000Y-115910000D01*
X48330000Y-133930000D02*
X48330000Y-115910000D01*
X44190000Y-115970000D02*
G75*
G02*
X42190000Y-115970000I-1000000J0D01*
G01*
%LPC*%
D12*
X35403810Y-179903810D03*
D13*
X46500000Y-184000000D03*
D14*
X42500000Y-178000000D03*
D12*
X55403810Y-163403810D03*
D13*
X66500000Y-167500000D03*
D14*
X62500000Y-161500000D03*
D12*
X55403810Y-77403810D03*
D13*
X66500000Y-81500000D03*
D14*
X62500000Y-75500000D03*
D12*
X55403810Y-93903810D03*
D13*
X66500000Y-98000000D03*
D14*
X62500000Y-92000000D03*
D12*
X55403810Y-179903810D03*
D13*
X66500000Y-184000000D03*
D14*
X62500000Y-178000000D03*
D12*
X55403810Y-44403810D03*
D13*
X66500000Y-48500000D03*
D14*
X62500000Y-42500000D03*
D12*
X55403810Y-60903810D03*
D13*
X66500000Y-65000000D03*
D14*
X62500000Y-59000000D03*
D12*
X35403810Y-60903810D03*
D13*
X46500000Y-65000000D03*
D14*
X42500000Y-59000000D03*
D12*
X35403810Y-93903810D03*
D13*
X46500000Y-98000000D03*
D14*
X42500000Y-92000000D03*
D12*
X35416310Y-77403810D03*
D13*
X46512500Y-81500000D03*
D14*
X42512500Y-75500000D03*
D12*
X55403810Y-146903810D03*
D13*
X66500000Y-151000000D03*
D14*
X62500000Y-145000000D03*
D15*
X29022826Y-105522826D03*
D12*
X55403810Y-196403810D03*
D13*
X66500000Y-200500000D03*
D14*
X62500000Y-194500000D03*
D12*
X35416310Y-163403810D03*
D13*
X46512500Y-167500000D03*
D14*
X42512500Y-161500000D03*
D12*
X35403810Y-146903810D03*
D13*
X46500000Y-151000000D03*
D14*
X42500000Y-145000000D03*
D12*
X35403810Y-196403810D03*
D13*
X46500000Y-200500000D03*
D14*
X42500000Y-194500000D03*
D12*
X35403810Y-44403810D03*
D13*
X46500000Y-48500000D03*
D14*
X42500000Y-42500000D03*
D16*
X29500000Y-164190000D03*
D17*
X29500000Y-171810000D03*
D16*
X29500000Y-61690000D03*
D17*
X29500000Y-69310000D03*
D16*
X58500000Y-135450000D03*
X53500000Y-135450000D03*
D18*
X32500000Y-120000000D03*
D19*
X29960000Y-120000000D03*
X32500000Y-122540000D03*
X29960000Y-122540000D03*
X32500000Y-125080000D03*
X29960000Y-125080000D03*
X32500000Y-127620000D03*
X29960000Y-127620000D03*
X32500000Y-130160000D03*
X29960000Y-130160000D03*
D16*
X70500000Y-155310000D03*
D17*
X70500000Y-147690000D03*
D16*
X70500000Y-85810000D03*
D17*
X70500000Y-78190000D03*
D16*
X70500000Y-171810000D03*
D17*
X70500000Y-164190000D03*
D20*
X59800000Y-117300000D03*
D17*
X59800000Y-119840000D03*
X59800000Y-122380000D03*
X59800000Y-124920000D03*
X59800000Y-127460000D03*
X59800000Y-130000000D03*
X59800000Y-132540000D03*
X52180000Y-132540000D03*
X52180000Y-130000000D03*
X52180000Y-127460000D03*
X52180000Y-124920000D03*
X52180000Y-122380000D03*
X52180000Y-119840000D03*
X52180000Y-117300000D03*
D16*
X29500000Y-94690000D03*
D17*
X29500000Y-102310000D03*
D16*
X29500000Y-197190000D03*
D17*
X29500000Y-204810000D03*
D16*
X29500000Y-45190000D03*
D17*
X29500000Y-52810000D03*
D16*
X45700000Y-114400000D03*
X40700000Y-114400000D03*
X70500000Y-52810000D03*
D17*
X70500000Y-45190000D03*
D16*
X29500000Y-147690000D03*
D17*
X29500000Y-155310000D03*
D16*
X70500000Y-69310000D03*
D17*
X70500000Y-61690000D03*
D16*
X71000000Y-114400000D03*
X66000000Y-114400000D03*
X58500000Y-114400000D03*
X53500000Y-114400000D03*
D20*
X72270000Y-117300000D03*
D17*
X72270000Y-119840000D03*
X72270000Y-122380000D03*
X72270000Y-124920000D03*
X72270000Y-127460000D03*
X72270000Y-130000000D03*
X72270000Y-132540000D03*
X64650000Y-132540000D03*
X64650000Y-130000000D03*
X64650000Y-127460000D03*
X64650000Y-124920000D03*
X64650000Y-122380000D03*
X64650000Y-119840000D03*
X64650000Y-117300000D03*
D16*
X29500000Y-78190000D03*
D17*
X29500000Y-85810000D03*
D16*
X29500000Y-180690000D03*
D17*
X29500000Y-188310000D03*
D16*
X70500000Y-204810000D03*
D17*
X70500000Y-197190000D03*
D21*
X31000000Y-110027401D03*
D22*
X31000000Y-112027401D03*
D16*
X70500000Y-102310000D03*
D17*
X70500000Y-94690000D03*
D21*
X31000000Y-138500000D03*
D22*
X31000000Y-140500000D03*
D16*
X70500000Y-188310000D03*
D17*
X70500000Y-180690000D03*
D16*
X45700000Y-135450000D03*
X40700000Y-135450000D03*
X71000000Y-135450000D03*
X66000000Y-135450000D03*
D20*
X47000000Y-117300000D03*
D17*
X47000000Y-119840000D03*
X47000000Y-122380000D03*
X47000000Y-124920000D03*
X47000000Y-127460000D03*
X47000000Y-130000000D03*
X47000000Y-132540000D03*
X39380000Y-132540000D03*
X39380000Y-130000000D03*
X39380000Y-127460000D03*
X39380000Y-124920000D03*
X39380000Y-122380000D03*
X39380000Y-119840000D03*
X39380000Y-117300000D03*
%LPD*%
M02*
